<svg width="189" height="32" viewBox="0 0 189 32" xmlns="http://www.w3.org/2000/svg"><title>logo</title><desc>Created with Sketch.</desc><g fill="none"><path d="M41.698 20.918c.772.88 1.693 1.575 2.765 2.09 1.07.513 2.217.77 3.44.77 1.627 0 2.912-.39 3.856-1.173.942-.782 1.413-1.805 1.413-3.07 0-.663-.102-1.22-.305-1.67-.204-.45-.477-.842-.82-1.174-.343-.33-.745-.62-1.205-.867-.46-.246-.948-.487-1.463-.723l-3.214-1.446c-.47-.193-.96-.43-1.463-.707-.503-.28-.964-.628-1.38-1.045-.42-.418-.768-.91-1.046-1.48-.28-.566-.418-1.247-.418-2.04 0-.77.154-1.473.465-2.105.31-.632.74-1.178 1.286-1.64.547-.46 1.2-.82 1.96-1.076.762-.256 1.58-.385 2.46-.385 1.286 0 2.427.252 3.423.755.997.504 1.817 1.1 2.46 1.784l-.836.997c-.622-.663-1.35-1.193-2.186-1.59-.835-.396-1.788-.595-2.86-.595-1.414 0-2.55.343-3.407 1.03-.857.684-1.285 1.606-1.285 2.763 0 .622.117 1.147.353 1.575.237.43.536.8.9 1.11.365.31.762.578 1.19.803.43.224.836.423 1.222.594l3.214 1.414c.6.257 1.168.547 1.704.868.535.322 1.006.697 1.414 1.125.406.43.734.937.98 1.527.246.59.37 1.29.37 2.105 0 .814-.16 1.57-.482 2.265-.322.697-.777 1.297-1.367 1.8-.59.504-1.3.9-2.137 1.19-.835.29-1.768.433-2.796.433-1.543 0-2.914-.295-4.114-.884-1.2-.59-2.218-1.355-3.054-2.297l.964-1.03z" fill="#fff"/><path d="M58.96 9.315h1.413v15.428H58.96V9.314zm.737-3.73c-.364 0-.67-.116-.915-.353-.247-.235-.37-.535-.37-.9 0-.407.123-.723.37-.947.246-.225.55-.338.916-.338.364 0 .67.113.916.338.246.224.37.54.37.947 0 .365-.124.665-.37.9-.246.237-.552.354-.916.354z" fill="#fff"/><path d="M66.32 9.315h1.22l.13 2.378h.095c.686-.793 1.452-1.45 2.298-1.977.847-.525 1.7-.787 2.556-.787 1.24 0 2.195.283 2.86.85.663.568 1.135 1.334 1.414 2.3.9-.966 1.773-1.732 2.62-2.3.845-.567 1.72-.85 2.62-.85 3.084 0 4.628 1.97 4.628 5.913v9.9h-1.447v-9.708c0-1.65-.28-2.865-.836-3.647-.558-.782-1.426-1.174-2.604-1.174-1.394 0-2.936.965-4.63 2.894l.002 11.635h-1.415v-9.708c0-1.65-.28-2.865-.836-3.647-.557-.782-1.435-1.174-2.635-1.174-1.394 0-2.937.965-4.63 2.894v11.635H66.32V9.315z" fill="#fff"/><path d="M93.832 21.882c.9.73 1.736 1.243 2.507 1.543.77.3 1.456.45 2.056.45.772 0 1.49-.172 2.154-.515.664-.342 1.232-.824 1.703-1.446.472-.62.84-1.366 1.11-2.234.267-.867.4-1.826.4-2.876 0-.943-.09-1.822-.272-2.636-.182-.814-.465-1.516-.85-2.105-.387-.59-.89-1.05-1.512-1.383-.62-.332-1.37-.498-2.25-.498-.77 0-1.57.22-2.394.66-.825.44-1.71 1.066-2.652 1.88v9.16zm0 4.21v5.625h-1.414V9.315h1.22l.13 1.928h.096c.75-.6 1.57-1.135 2.46-1.607.888-.47 1.815-.707 2.78-.707 2.056 0 3.6.71 4.628 2.136 1.028 1.426 1.543 3.338 1.543 5.738 0 1.307-.183 2.474-.547 3.503-.365 1.03-.862 1.902-1.495 2.62-.632.718-1.36 1.264-2.185 1.64-.825.373-1.687.56-2.588.56-.728 0-1.478-.165-2.25-.496-.77-.332-1.564-.798-2.378-1.398v2.86z" fill="#fff"/><path d="M109.903 1.632h1.414v21.246c0 .343.065.595.193.756.13.16.29.24.482.24h.21c.074 0 .197-.02.37-.063l.256 1.158c-.15.042-.3.08-.45.112-.15.032-.343.05-.58.05-1.263 0-1.895-.816-1.895-2.445V1.632z" fill="#fff"/><path d="M127.517 16.13c0-1.994-.407-3.49-1.222-4.485-.814-.996-1.917-1.495-3.31-1.495-.665 0-1.297.14-1.897.418-.6.28-1.14.675-1.623 1.19-.482.514-.88 1.14-1.19 1.88-.31.74-.508 1.57-.593 2.49h9.835zm-11.282.93c0-1.263.188-2.398.563-3.406.374-1.007.878-1.86 1.51-2.555.632-.698 1.35-1.233 2.154-1.61.803-.373 1.633-.56 2.49-.56 1.844 0 3.29.62 4.34 1.863 1.05 1.243 1.575 3 1.575 5.27v.58c0 .193-.022.386-.064.578l-11.12.002c.02.964.17 1.86.45 2.683.277.826.668 1.532 1.172 2.12.503.59 1.11 1.052 1.815 1.384.708.33 1.5.497 2.38.497.835 0 1.59-.123 2.265-.37.675-.246 1.302-.583 1.88-1.012l.58 1.093c-.622.364-1.302.707-2.042 1.028-.74.322-1.677.483-2.812.483-.985 0-1.912-.184-2.78-.548-.868-.364-1.623-.894-2.265-1.59-.643-.697-1.153-1.544-1.528-2.54-.374-.997-.562-2.127-.562-3.39z" fill="#fff"/><path d="M133.045 9.315h1.222l.128 2.378h.096c.794-.793 1.61-1.45 2.444-1.977.836-.525 1.79-.787 2.86-.787 1.608 0 2.786.48 3.537 1.445.75.964 1.126 2.454 1.126 4.468v9.9h-1.415v-9.708c0-1.65-.272-2.865-.82-3.647-.545-.782-1.45-1.174-2.714-1.174-.922 0-1.758.24-2.508.724-.75.482-1.596 1.205-2.54 2.17v11.635h-1.413V9.315z" fill="#fff"/><path d="M150.337 17.06c0 1.008.14 1.93.418 2.765.28.836.66 1.554 1.14 2.154.483.6 1.056 1.065 1.72 1.397.665.332 1.383.498 2.154.498.77 0 1.494-.166 2.17-.498.674-.332 1.253-.798 1.735-1.398.48-.6.862-1.32 1.14-2.155.28-.836.42-1.757.42-2.764 0-1.028-.14-1.96-.42-2.796-.278-.835-.66-1.56-1.14-2.17-.482-.61-1.06-1.08-1.736-1.414-.676-.33-1.4-.498-2.17-.498-.772 0-1.49.167-2.154.498-.665.333-1.238.804-1.72 1.415-.482.61-.862 1.334-1.14 2.17-.28.835-.42 1.767-.42 2.796m-1.477 0c0-1.285.186-2.437.56-3.455.376-1.017.88-1.87 1.512-2.555s1.366-1.21 2.202-1.575c.835-.364 1.714-.546 2.635-.546.92 0 1.804.18 2.65.545.848.365 1.586.89 2.22 1.575.63.686 1.134 1.538 1.51 2.555.374 1.018.562 2.17.562 3.456s-.188 2.427-.562 3.424c-.376.996-.88 1.838-1.51 2.523-.634.686-1.372 1.21-2.22 1.575-.846.364-1.73.546-2.65.546-.922 0-1.8-.182-2.636-.546-.836-.364-1.57-.89-2.202-1.575-.632-.685-1.136-1.527-1.51-2.523-.376-.997-.563-2.138-.563-3.423" fill="#fff"/><path d="M167.694 10.536h-2.41V9.443l2.442-.13.193-4.466h1.22v4.467h4.468v1.222h-4.468v10.06c0 .493.037.938.112 1.334.075.397.21.74.403 1.03.192.288.454.513.787.674.332.16.766.24 1.302.24.3 0 .627-.047.98-.144.353-.096.67-.21.948-.338l.386 1.158c-.45.172-.9.31-1.35.418-.45.107-.836.16-1.157.16-.75 0-1.37-.112-1.863-.337-.493-.224-.89-.54-1.19-.947-.3-.407-.51-.9-.626-1.48-.117-.577-.176-1.21-.176-1.895v-9.932z" fill="#fff"/><path d="M187.043 16.13c0-1.994-.407-3.49-1.22-4.485-.816-.996-1.92-1.495-3.312-1.495-.663 0-1.295.14-1.895.418-.6.28-1.14.675-1.623 1.19-.482.514-.88 1.14-1.19 1.88-.31.74-.51 1.57-.594 2.49h9.835zm-11.28.93c0-1.263.186-2.398.56-3.406.376-1.007.88-1.86 1.512-2.555.63-.698 1.35-1.233 2.153-1.61.804-.373 1.634-.56 2.49-.56 1.844 0 3.29.62 4.34 1.863 1.05 1.243 1.575 3 1.575 5.27v.58c0 .193-.02.386-.064.578l-11.122.002c.02.964.17 1.86.45 2.683.278.826.67 1.532 1.173 2.12.504.59 1.11 1.052 1.817 1.384.707.33 1.5.497 2.38.497.834 0 1.59-.123 2.265-.37.675-.246 1.3-.583 1.88-1.012l.578 1.093c-.62.364-1.3.707-2.04 1.028-.74.322-1.677.483-2.813.483-.986 0-1.912-.184-2.78-.548-.868-.364-1.624-.894-2.266-1.59-.642-.697-1.15-1.544-1.526-2.54-.375-.997-.562-2.127-.562-3.39z" fill="#fff"/><path d="M9.425 5.784c0 2.42 2.14 3.822 5.164 5.25l6.93 3.6.09.054c3.05 1.925 4.456 4.458 4.456 7.967 0 .227-.01.453-.025.678 1.7-2.338 2.706-5.217 2.706-8.327 0-7.835-6.35-14.183-14.18-14.183-.357 0-5.14-.04-5.14 4.96m5.14 23.4c-7.832 0-14.18-6.347-14.18-14.177 0-3.94 1.607-7.504 4.2-10.072-.04.373-.06.756-.06 1.144 0 3.098 1.436 5.552 4.235 7.29 0 0 6.718 3.527 6.913 3.618 3.243 1.58 5.537 2.9 5.537 5.486 0 3.444-2.93 6.71-6.644 6.71" fill="#448AC9"/></g></svg>