<svg width="18" height="23" viewBox="0 0 18 23" xmlns="http://www.w3.org/2000/svg"><title>Shape Copy 4</title><desc>Created with Sketch.</desc><path d="M15.033 12.22c.03 3.48 2.935 4.638 2.967 4.653-.025.082-.464 1.65-1.53 3.27-.92 1.402-1.877 2.798-3.384 2.827-1.48.028-1.956-.913-3.648-.913-1.692 0-2.22.884-3.622.94-1.454.06-2.56-1.514-3.49-2.91-1.9-2.855-3.35-8.07-1.402-11.588C1.892 6.75 3.622 5.644 5.5 5.615c1.426-.028 2.774 1 3.647 1 .872 0 2.51-1.236 4.232-1.055.72.033 2.743.304 4.042 2.283-.105.067-2.414 1.466-2.39 4.376m-2.78-8.548C13.02 2.7 13.54 1.347 13.4 0c-1.114.047-2.46.77-3.257 1.743-.716.86-1.342 2.238-1.173 3.558 1.24.1 2.507-.655 3.28-1.628" fill="#fff"/></svg>