<svg width="22" height="25" viewBox="0 0 22 25" xmlns="http://www.w3.org/2000/svg"><title>Fill 9</title><desc>Created with Sketch.</desc><path d="M1.55 8.086C.693 8.086 0 8.778 0 9.63v6.46c0 .855.695 1.544 1.55 1.544.857 0 1.55-.69 1.55-1.543V9.63c0-.853-.695-1.544-1.55-1.544zm12.494-5.802L15.126.317c.057-.102.02-.233-.085-.29-.105-.057-.235-.02-.29.084L13.656 2.1c-.92-.41-1.948-.637-3.036-.636-1.085 0-2.113.227-3.028.632L6.498.114C6.44.01 6.31-.03 6.208.028c-.106.056-.144.188-.086.29l1.082 1.965c-2.126 1.092-3.562 3.17-3.56 5.558H17.6c0-2.387-1.433-4.462-3.556-5.556zm-6.598 3.04c-.32-.002-.583-.262-.583-.583 0-.32.26-.583.584-.583.324 0 .585.264.586.584 0 .322-.262.583-.587.583zm6.356-.002c-.323 0-.586-.26-.586-.583 0-.32.263-.583.586-.585.32 0 .584.265.584.585 0 .32-.262.582-.584.582zM3.7 8.378l.002 10.013c0 .912.74 1.647 1.654 1.648H6.48l.003 3.42c0 .85.694 1.542 1.548 1.542.857 0 1.55-.693 1.55-1.544v-3.418h2.092v3.418c0 .85.696 1.544 1.55 1.542.856 0 1.55-.692 1.55-1.543v-3.418H15.9c.912 0 1.654-.737 1.654-1.648V8.374L3.7 8.378zm17.55 1.25c0-.853-.695-1.544-1.55-1.544-.856 0-1.55.692-1.55 1.544l.002 6.46c0 .854.693 1.544 1.55 1.544.855 0 1.548-.69 1.548-1.543V9.626z" fill="#fff"/></svg>