<svg width="873" height="251" viewBox="0 0 873 251" xmlns="http://www.w3.org/2000/svg" xmlns:xlink="http://www.w3.org/1999/xlink"><title>Sync UI</title><desc>Created with Sketch.</desc><defs><filter x="-50%" y="-50%" width="200%" height="200%" filterUnits="objectBoundingBox" id="a"><feOffset in="SourceAlpha" result="shadowOffsetOuter1"/><feGaussianBlur stdDeviation="1.5" in="shadowOffsetOuter1" result="shadowBlurOuter1"/><feColorMatrix values="0 0 0 0 0 0 0 0 0 0 0 0 0 0 0 0 0 0 0.192317708 0" in="shadowBlurOuter1" result="shadowMatrixOuter1"/><feMerge><feMergeNode in="shadowMatrixOuter1"/><feMergeNode in="SourceGraphic"/></feMerge></filter><path id="b" d="M0 0h83.155v87.712H0z"/></defs><g transform="translate(2 1)" fill="none"><g transform="translate(217 81)"><path d="M250.674 11.896c0 5.8 5.132 9.165 12.38 12.59l16.62 8.626.215.133c7.31 4.616 10.683 10.69 10.683 19.102 0 .545-.026 1.088-.06 1.627C294.59 48.368 297 41.464 297 34.008 297 15.22 281.776 0 263 0c-.856 0-12.326-.096-12.326 11.896M263 68c-18.778 0-34-15.218-34-33.992 0-9.447 3.853-17.992 10.07-24.15-.093.894-.142 1.812-.142 2.743 0 7.43 3.443 13.313 10.155 17.48 0 0 16.103 8.457 16.57 8.675 7.777 3.79 13.278 6.95 13.278 13.154 0 8.257-7.028 16.09-15.93 16.09" fill="#448AC9"/><path d="M307.5 33h218.01" id="Line" stroke="#ACD8FF" stroke-width="2" stroke-linecap="square" opacity=".542"/><circle stroke="#E7F4FF" cx="358" cy="32" r="18"/><circle stroke="#ABD7FF" fill="#FAFAFA" cx="358" cy="32" r="9"/><circle fill="#448AC9" cx="358" cy="32" r="5"/><path d="M.5 33h218.01" stroke="#ACD8FF" stroke-width="2" stroke-linecap="square" opacity=".542"/></g><g transform="translate(0 42)"><path d="M80.754 141.53s-1.584 28.146-2.77 29.732c-1.19 1.586-9.898 1.586-9.502 2.38.36.717 17.814.792 35.43.792 17.615 0 35.07-.075 35.428-.793.396-.792-8.313-.792-9.5-2.378-1.188-1.586-2.77-29.733-2.77-29.733H80.753z" stroke="#ABABAB" stroke-width="1.006" fill="#fff"/><rect stroke="#aaa" stroke-width="1.006" fill="#fff" width="207" height="151" rx="5.95"/><path d="M.5 131.5h207.292" id="Line" stroke="#aaa" stroke-linecap="square"/><path stroke="#ccc" stroke-width="1.006" stroke-linejoin="round" fill="#fff" d="M9.156 9.118h189.087v112.985H9.156z"/></g><g transform="translate(23 58)"><rect stroke="#BFBFBF" stroke-width=".5" fill="#fff" filter="url(#a)" width="161" height="100" rx=".811"/><mask transform="translate(60.845 12.288)"><use xlink:href="#b"/></mask><path stroke="#E0E0E0" stroke-width=".5" stroke-linecap="square" d="M.04 5.86h143.92"/><g transform="translate(1.623 2.021)"><ellipse fill="#FF6057" cx=".974" cy=".97" rx=".974" ry=".97"/><ellipse fill="#FFC02F" cx="4.219" cy=".97" rx=".974" ry=".97"/><ellipse fill="#29CD42" cx="7.464" cy=".97" rx=".974" ry=".97"/></g><path id="Line" stroke="#E5E5E5" stroke-width=".5" stroke-linecap="square" d="M60.967 5.942v93.856"/><path d="M6.5 10h9" stroke="#448AC9" stroke-width="2" stroke-linecap="square"/><path d="M6.5 15h9" stroke="#448AC9" stroke-width="2" stroke-linecap="square"/><path d="M6.5 22.5h6" stroke="#6CBAFF" stroke-linecap="square"/><path d="M6.5 25.5h6" stroke="#6CBAFF" stroke-linecap="square"/><path d="M6.5 28.5h6" stroke="#6CBAFF" stroke-linecap="square"/><text font-family="Source Sans Pro" font-size="12" fill="#448AC9"><tspan x="64" y="18">Hamlet</tspan></text><text id="To-be-or-not-to-be…" font-family="Source Sans Pro" font-size="10" fill="#444"><tspan x="64" y="36">To be or not to be…</tspan></text><g stroke-linecap="square" stroke-width=".5" stroke="#ADADAD"><path id="Line" d="M58.006 1.86V3.8"/><path id="Line-Copy" d="M58.98 2.83H57.03"/></g><path d="M5.434 97.66c.09 0 .162-.073.162-.163 0-.044-.017-.083-.045-.112l-.858-.862.848-.85c.034-.03.056-.074.056-.123 0-.09-.073-.162-.162-.162-.043 0-.083.017-.112.045l-.97.973c-.03.03-.05.07-.05.117s.02.088.05.118l.97.974c.03.028.07.046.112.046z" id="Shape" fill="#C1C1C1"/><path id="Line" stroke="#E6E6E6" stroke-width=".5" stroke-linecap="square" d="M65.59 93.33h77.052"/><path stroke="#E6E6E6" stroke-width=".5" stroke-linecap="square" d="M24.46 93.33h31.57"/></g><g stroke="#656363" stroke-linecap="square"><path d="M49.5 69.5h26" id="Line"/><path d="M48.5 73.5h28" id="Line-Copy-5"/></g><g stroke="#656363" stroke-linecap="square"><path d="M49.5 95.5h26" id="Line"/><path d="M48.5 99.5h28" id="Line-Copy-5"/></g><g stroke="#448AC9" stroke-linecap="square"><path d="M49.5 82.5h26" id="Line"/><path d="M48.5 86.5h28" id="Line-Copy-5"/></g><g stroke="#656363" stroke-linecap="square"><path d="M49.5 108.5h26" id="Line"/><path d="M48.5 112.5h28"/></g><rect fill="#fff" x="752.372" y=".932" width="118.008" height="248.448" rx="18.621"/><g transform="translate(751)"><rect stroke="#8C8C8C" x="80.251" width="18.633" height="3.727" rx=".621"/><rect stroke="#8C8C8C" transform="rotate(-270 2.304 40.373)" x="-3.286" y="38.509" width="11.18" height="3.727" rx=".621"/><rect id="Rectangle-13" stroke="#8C8C8C" transform="rotate(-270 2.614 62.423)" x="-1.733" y="60.249" width="8.695" height="4.348" rx=".621"/><rect stroke="#8C8C8C" transform="rotate(-270 2.614 82.92)" x="-1.733" y="80.746" width="8.695" height="4.348" rx=".621"/><rect stroke="#9F9F9F" fill="#fff" x="1.372" y=".932" width="118.008" height="248.448" rx="18.621"/><ellipse stroke="#8C8C8C" fill="#fff" cx="60.376" cy="229.504" rx="9.627" ry="9.627"/><rect stroke="#8C8C8C" fill="#fff" x="50.749" y="20.808" width="19.254" height="1.863" rx="1.552"/></g><path stroke="#BDBDBD" stroke-linejoin="round" fill="#fff" d="M762 34h99.375v176.398H762z"/><text font-family="Source Sans Pro" font-size="10" fill="#444"><tspan x="767" y="98">To be or not to be…</tspan><tspan x="767" y="116">That is the quest</tspan></text><text font-family="Source Sans Pro" font-size="12" fill="#448AC9"><tspan x="767" y="72.49">Hamlet</tspan></text><path d="M838.5 107.5v11" id="Line" stroke="#979797" stroke-linecap="square"/><path d="M762.5 54.5h98.082" id="Line" stroke="#E0EEFB" stroke-linecap="square"/><path d="M797.5 45.5h27.02" id="Line" stroke="#448AC9" stroke-width="3" stroke-linecap="square"/><g stroke="#448AC9" stroke-linecap="square"><path d="M854.063 42v6"/><path d="M857.13 45h-6.124"/></g><path d="M771 42.608l-.673-.608L767 45l3.327 3 .673-.608L768.348 45 771 42.608z" fill="#448AC9"/></g></svg>