<svg width="21" height="18" viewBox="0 0 21 18" xmlns="http://www.w3.org/2000/svg"><title>Shape</title><desc>Created with Sketch.</desc><path d="M0 9h4l-1.228 2H0V9zm7.03-2.898l2.01 1.14c-1.665 2.832-3.33 5.664-4.993 8.497l-2.13-1.21 5.114-8.428zm-3.216 10.07c-.99.893-2.86 2.655-2.86 2.655-.216.203-.327.148-.242-.144 0 0 .722-2.45 1.017-3.758l2.084 1.247zm5.45-9.22s.394-.786.7-1.28c.464-1.07-1.395-2.02-2.11-1.057-.188.3-.634 1.177-.634 1.177l2.043 1.16zm7.94 4.442c.334.57.81 1.416 1.144 1.986l-2.05 1.164c-.34-.567-.822-1.41-1.162-1.978.69-.39 1.378-.782 2.067-1.172zm-.196-.41s-3.854-6.535-5.77-9.754c-.707-.703-2.46.342-2.116 1.313 1.89 3.215 5.785 9.69 5.785 9.69l2.1-1.25zm-.203 3.818c.625-.355.97-.572 1.595-.926 1.732.618 1.883 3.51 1.192 4.855-.4.602-.16-.58-1.138-1.176-1.9-1.156-1.72-1.714-1.806-2.123-.063-.3.157-.628.157-.628zM8.208 10h4.61L14 12H7l1.208-2zM21 10v2h-2.864c-.423-.667-.713-1.333-1.136-2h4z" fill="#fff"/></svg>