<svg width="447" height="166" viewBox="0 0 447 166" xmlns="http://www.w3.org/2000/svg" xmlns:xlink="http://www.w3.org/1999/xlink"><title>Fill 13 Copy 2 + Line + Line Copy 4 + Group + Group</title><desc>Created with Sketch.</desc><defs><filter x="-50%" y="-50%" width="200%" height="200%" filterUnits="objectBoundingBox" id="a"><feOffset in="SourceAlpha" result="shadowOffsetOuter1"/><feGaussianBlur stdDeviation="1" in="shadowOffsetOuter1" result="shadowBlurOuter1"/><feColorMatrix values="0 0 0 0 0 0 0 0 0 0 0 0 0 0 0 0 0 0 0.192317708 0" in="shadowBlurOuter1" result="shadowMatrixOuter1"/><feMerge><feMergeNode in="shadowMatrixOuter1"/><feMergeNode in="SourceGraphic"/></feMerge></filter><path id="b" d="M0 0h59.967v63.153H0z"/></defs><g fill="none"><g transform="translate(155 42)"><path d="M91.674 11.896c0 5.8 5.132 9.165 12.38 12.59l16.62 8.626.215.133c7.31 4.616 10.683 10.69 10.683 19.102 0 .545-.026 1.088-.06 1.627C135.59 48.368 138 41.464 138 34.008 138 15.22 122.776 0 104 0c-.856 0-12.326-.096-12.326 11.896M104 68C85.22 68 70 52.782 70 34.008c0-9.447 3.853-17.992 10.07-24.15-.093.894-.142 1.812-.142 2.743 0 7.43 3.443 13.313 10.155 17.48 0 0 16.103 8.457 16.57 8.675 7.777 3.79 13.278 6.95 13.278 13.154 0 8.257-7.028 16.09-15.93 16.09" fill="#448AC9"/><path d="M148.5 33h58" id="Line" stroke="#ACD8FF" stroke-width="2" stroke-linecap="square" opacity=".542"/><circle stroke="#E7F4FF" cx="175" cy="32" r="18"/><circle stroke="#ABD7FF" fill="#FAFAFA" cx="175" cy="32" r="9"/><circle fill="#448AC9" cx="175" cy="32" r="5"/><path d="M.784 33h58" stroke="#ACD8FF" stroke-width="2" stroke-linecap="square" opacity=".542"/></g><g id="Group"><g transform="translate(1 21)"><path d="M58.236 101.9s-1.142 20.267-1.998 21.41c-.857 1.14-7.137 1.14-6.852 1.71.26.52 12.846.572 25.55.572 12.703 0 25.29-.053 25.55-.57.285-.572-5.995-.572-6.852-1.713-.856-1.143-1.998-21.41-1.998-21.41h-33.4z" stroke="#ABABAB" stroke-width=".725" fill="#fff"/><rect stroke="#aaa" stroke-width=".725" fill="#fff" width="149.279" height="108.72" rx="4.291"/><path d="M.36 94.68h149.49" id="Line" stroke="#aaa" stroke-width=".721" stroke-linecap="square"/><path stroke="#ccc" stroke-width=".725" stroke-linejoin="round" fill="#fff" d="M6.603 6.565h136.36v81.35H6.603z"/></g><g transform="translate(17.587 32.52)"><rect stroke="#BFBFBF" stroke-width=".5" fill="#fff" filter="url(#a)" width="116.106" height="72" rx=".585"/><mask transform="translate(43.879 8.847)"><use xlink:href="#b"/></mask><path stroke="#E0E0E0" stroke-width=".5" stroke-linecap="square" d="M.03 4.22h103.787"/><g transform="translate(1.17 1.455)"><ellipse fill="#FF6057" cx=".702" cy=".698" rx=".702" ry=".698"/><ellipse fill="#FFC02F" cx="3.042" cy=".698" rx=".702" ry=".698"/><ellipse fill="#29CD42" cx="5.382" cy=".698" rx=".702" ry=".698"/></g><path id="Line" stroke="#E5E5E5" stroke-width=".5" stroke-linecap="square" d="M43.966 4.278v67.577"/><path d="M4.688 7.2h6.49" stroke="#448AC9" stroke-width="1.442" stroke-linecap="square"/><path d="M4.688 10.8h6.49" stroke="#448AC9" stroke-width="1.442" stroke-linecap="square"/><path d="M4.688 16.2h4.326" stroke="#6CBAFF" stroke-width=".721" stroke-linecap="square"/><path d="M4.688 18.36h4.326" stroke="#6CBAFF" stroke-width=".721" stroke-linecap="square"/><path d="M4.688 20.52h4.326" stroke="#6CBAFF" stroke-width=".721" stroke-linecap="square"/><path d="M46.933 7.643h.718v2.38h2.64v-2.38h.727v5.677h-.727v-2.674h-2.64v2.674h-.717V7.643zm5.365 4.587c0-.462.206-.815.62-1.06.41-.246 1.068-.417 1.968-.515 0-.133-.013-.263-.04-.39-.025-.127-.07-.24-.138-.337-.066-.098-.154-.178-.264-.238-.11-.06-.25-.09-.424-.09-.248 0-.477.045-.688.137-.21.093-.4.196-.567.312l-.285-.494c.196-.127.435-.25.718-.368s.594-.178.935-.178c.513 0 .885.158 1.116.472.23.314.345.734.345 1.26v2.578h-.588l-.06-.502h-.018c-.203.167-.42.31-.655.428-.233.12-.48.178-.74.178-.357 0-.653-.104-.886-.312-.235-.207-.352-.502-.352-.882zm.7-.052c0 .242.072.415.213.52.142.103.317.155.525.155.202 0 .393-.048.575-.143.182-.095.374-.235.576-.42v-1.168c-.352.046-.65.1-.892.164s-.437.14-.584.225c-.147.088-.252.187-.316.3-.063.112-.095.235-.095.368zm3.94-3.064h.587l.06.606h.027c.184-.202.385-.37.6-.506.217-.136.452-.204.706-.204.323 0 .576.07.757.212.182.142.316.34.403.593.22-.242.44-.437.662-.584.222-.146.463-.22.722-.22.433 0 .755.14.965.416.21.277.316.686.316 1.23v2.664h-.71v-2.57c0-.398-.063-.685-.19-.86-.127-.177-.323-.265-.588-.265-.318 0-.67.216-1.056.65v3.045h-.71v-2.57c0-.398-.064-.685-.19-.86-.128-.177-.327-.265-.598-.265-.317 0-.67.216-1.056.65v3.045h-.71V9.114zm7.173-1.956h.71v5.366c0 .115.02.196.06.242.04.046.087.07.14.07h.064c.02 0 .05-.006.09-.018l.096.537c-.046.023-.1.04-.164.052-.064.01-.144.017-.243.017-.27 0-.464-.08-.58-.242-.115-.162-.172-.4-.172-.71V7.158zm1.896 4.068c0-.346.053-.656.16-.93.107-.275.248-.507.424-.697.176-.192.376-.337.6-.438.226-.1.46-.152.702-.152.266 0 .504.047.714.14.21.09.387.224.528.397.14.173.25.38.325.623.074.242.11.513.11.813 0 .156-.007.286-.025.39h-2.838c.03.456.168.816.42 1.082.25.265.578.398.982.398.2 0 .387-.03.557-.09.17-.062.333-.14.49-.24l.25.468c-.185.117-.39.217-.615.304-.225.087-.48.13-.77.13-.283 0-.547-.05-.792-.152-.245-.1-.458-.245-.64-.432-.182-.188-.325-.417-.428-.688-.104-.27-.156-.58-.156-.926zm2.942-.32c0-.433-.09-.763-.273-.99-.18-.23-.437-.343-.765-.343-.15 0-.293.03-.43.09-.134.06-.257.148-.367.26-.11.113-.2.25-.272.416-.07.163-.12.352-.142.566h2.25zm1.783-1.212h-.622v-.537l.657-.043.087-1.177h.597v1.177h1.133v.58H71.45v2.337c0 .26.047.46.142.602.095.14.264.212.506.212.075 0 .156-.01.242-.035.087-.024.165-.05.234-.078l.14.536c-.117.04-.242.077-.378.108-.136.032-.27.048-.402.048-.225 0-.414-.035-.567-.104-.153-.07-.277-.164-.372-.286-.095-.12-.163-.268-.204-.44-.04-.174-.06-.364-.06-.572V9.694z" fill="#448AC9"/><path d="M47.784 21.494h-1.428v-.505h3.46v.504H48.39v4.226h-.606v-4.226zm2.09 2.48c0-.292.045-.553.134-.782.09-.228.208-.422.357-.58.15-.16.32-.28.516-.36.196-.082.4-.123.618-.123.216 0 .42.04.616.12.195.083.367.203.516.362.15.158.268.352.357.58.09.23.133.49.133.783 0 .288-.044.547-.133.775-.09.228-.208.42-.357.577-.15.156-.32.275-.516.357-.195.082-.4.123-.616.123-.217 0-.422-.04-.617-.123-.194-.082-.366-.2-.515-.357-.15-.156-.268-.35-.357-.577-.09-.228-.133-.487-.133-.775zm.614 0c0 .203.024.385.072.55.048.162.117.303.206.42.09.12.196.21.32.275.126.064.263.096.412.096.15 0 .286-.032.41-.097.126-.066.233-.157.322-.275.09-.118.157-.26.205-.422.048-.164.072-.346.072-.548 0-.202-.024-.386-.072-.552-.048-.166-.116-.31-.205-.43-.09-.12-.196-.212-.32-.277-.126-.065-.263-.097-.412-.097-.15 0-.286.03-.41.096-.126.065-.233.158-.322.278-.09.12-.158.263-.206.43-.048.165-.072.35-.072.55zm5.012-3.39h.59v1.4l-.013.635c.16-.14.332-.257.52-.35.187-.094.38-.14.576-.14.226 0 .426.04.6.125.172.084.317.204.435.36.118.157.207.344.267.563.06.22.09.463.09.732 0 .298-.04.565-.123.8-.08.236-.192.435-.33.6-.14.162-.302.286-.485.37-.182.084-.375.127-.577.127-.163 0-.332-.038-.508-.112-.175-.075-.34-.182-.494-.32h-.022l-.05.345H55.5v-5.135zm.59 4.357c.155.136.308.23.46.286.15.055.284.083.4.083.144 0 .277-.034.4-.098.122-.065.228-.157.317-.274.09-.118.16-.264.21-.437.05-.172.075-.367.075-.583 0-.192-.017-.368-.05-.526-.034-.158-.088-.294-.163-.407-.075-.113-.17-.2-.29-.263-.117-.063-.258-.094-.42-.094-.285 0-.597.16-.94.476v1.84zm3.153-.965c0-.29.044-.547.133-.775.09-.23.207-.422.354-.58.146-.16.313-.28.5-.365.188-.084.383-.126.585-.126.22 0 .42.037.595.114.175.077.322.188.44.332.118.144.208.317.27.52.063.2.094.427.094.677 0 .13-.007.238-.022.324h-2.365c.024.38.14.68.35.902.21.22.482.33.818.33.168 0 .324-.025.465-.075.142-.05.278-.117.408-.198l.21.39c-.155.095-.326.18-.513.25-.188.073-.402.11-.642.11-.236 0-.455-.043-.66-.127-.204-.084-.382-.204-.533-.36-.152-.156-.27-.348-.357-.574-.087-.226-.13-.483-.13-.77zm2.452-.267c0-.36-.076-.636-.227-.826-.152-.19-.365-.285-.64-.285-.124 0-.243.026-.356.076-.113.05-.215.123-.306.216-.09.093-.167.21-.227.346-.06.137-.1.294-.12.472h1.875zm2.58.267c0-.293.046-.554.135-.783.09-.228.208-.422.357-.58.15-.16.32-.28.515-.36.195-.082.4-.123.617-.123.215 0 .42.04.616.12.194.083.366.203.515.362.15.158.27.352.358.58.09.23.134.49.134.783 0 .288-.045.547-.134.775-.09.228-.208.42-.357.577-.148.156-.32.275-.514.357-.195.082-.4.123-.617.123-.217 0-.423-.04-.618-.123-.194-.082-.366-.2-.515-.357-.15-.156-.268-.35-.357-.577-.09-.228-.134-.487-.134-.775zm.614 0c0 .202.023.384.072.548.048.163.116.304.205.422.09.118.196.21.32.274.126.064.263.096.412.096.148 0 .285-.032.41-.097.125-.066.232-.157.32-.275.09-.118.158-.26.207-.422.048-.164.072-.346.072-.548 0-.202-.025-.386-.073-.552-.05-.166-.117-.31-.206-.43-.088-.12-.195-.212-.32-.277-.125-.065-.262-.097-.41-.097-.15 0-.287.03-.412.096-.125.065-.232.158-.32.278-.09.12-.158.263-.206.43-.05.165-.073.35-.073.55zm3.555-1.76h.49l.05.635h.022c.12-.22.266-.397.437-.527.17-.13.356-.194.558-.194.14 0 .265.023.375.07l-.115.52c-.058-.02-.11-.034-.16-.043-.047-.01-.107-.015-.18-.015-.148 0-.303.06-.464.18-.16.12-.302.33-.422.628v2.25h-.59v-3.505zm3.96 0h.49l.05.505h.02c.17-.168.346-.31.53-.422.186-.113.402-.17.647-.17.37 0 .64.116.81.347.172.23.257.572.257 1.024v2.22h-.592v-2.142c0-.332-.053-.57-.16-.717-.105-.146-.273-.22-.504-.22-.182 0-.343.046-.483.138-.138.09-.297.226-.475.404v2.538h-.59v-3.505zm3.684 1.76c0-.293.043-.554.132-.783.09-.228.208-.422.357-.58.148-.16.32-.28.515-.36.195-.082.4-.123.617-.123.216 0 .42.04.616.12.195.083.367.203.516.362.15.158.268.352.357.58.09.23.134.49.134.783 0 .288-.044.547-.133.775-.088.228-.207.42-.356.577-.15.156-.32.275-.516.357-.195.082-.4.123-.616.123-.217 0-.422-.04-.617-.123-.195-.082-.367-.2-.516-.357-.15-.156-.27-.35-.358-.577-.09-.228-.133-.487-.133-.775zm.612 0c0 .202.024.384.072.548.048.163.117.304.206.422.09.118.195.21.32.274.125.064.262.096.412.096.15 0 .286-.032.41-.097.126-.066.233-.157.322-.275.088-.118.157-.26.205-.422.047-.164.07-.346.07-.548 0-.202-.023-.386-.07-.552-.05-.166-.118-.31-.206-.43-.09-.12-.196-.212-.32-.277-.126-.065-.263-.097-.412-.097-.15 0-.287.03-.412.096-.125.065-.23.158-.32.278-.09.12-.158.263-.206.43-.048.165-.072.35-.072.55zm3.656-1.277h-.52v-.447l.55-.035.07-.98h.5v.98h.943v.483h-.943v1.947c0 .217.04.384.12.502.078.117.22.176.42.176.063 0 .13-.01.203-.028.072-.02.137-.04.194-.065l.116.447c-.097.033-.2.063-.314.09-.113.026-.225.04-.335.04-.187 0-.344-.03-.472-.087-.127-.058-.23-.137-.31-.238-.08-.1-.136-.224-.17-.368-.033-.144-.05-.303-.05-.476v-1.94zm3.894 0h-.52v-.447l.55-.035.07-.98h.5v.98h.944v.483h-.945v1.947c0 .217.04.384.12.502.08.117.22.176.422.176.062 0 .13-.01.202-.028.072-.02.137-.04.194-.065l.116.447c-.096.033-.2.063-.314.09-.113.026-.225.04-.335.04-.188 0-.345-.03-.473-.087-.127-.058-.23-.137-.31-.238-.08-.1-.135-.224-.17-.368-.033-.144-.05-.303-.05-.476v-1.94zm2.005 1.277c0-.293.045-.554.134-.783.09-.228.21-.422.358-.58.15-.16.32-.28.515-.36.195-.082.4-.123.617-.123.216 0 .422.04.616.12.195.083.367.203.516.362.15.158.268.352.357.58.088.23.132.49.132.783 0 .288-.044.547-.133.775-.09.228-.21.42-.358.577-.15.156-.32.275-.516.357-.194.082-.4.123-.616.123-.217 0-.422-.04-.617-.123-.194-.082-.366-.2-.515-.357-.15-.156-.268-.35-.357-.577-.088-.228-.133-.487-.133-.775zm.613 0c0 .202.024.384.072.548.048.163.117.304.206.422.09.118.196.21.32.274.126.064.263.096.412.096.15 0 .286-.032.41-.097.126-.066.233-.157.322-.275.09-.118.157-.26.205-.422.048-.164.072-.346.072-.548 0-.202-.025-.386-.073-.552-.048-.166-.116-.31-.205-.43-.09-.12-.196-.212-.32-.277-.126-.065-.263-.097-.412-.097-.15 0-.286.03-.41.096-.126.065-.233.158-.322.278-.09.12-.158.263-.206.43-.048.165-.072.35-.072.55zm5.012-3.39h.592v1.4l-.015.634c.158-.14.33-.257.518-.35.188-.094.38-.14.577-.14.226 0 .426.04.6.125.172.084.317.204.435.36.118.157.207.344.267.563.06.22.09.463.09.732 0 .298-.04.565-.122.8-.082.236-.193.435-.332.6-.14.162-.3.286-.483.37-.183.084-.375.127-.577.127-.164 0-.333-.038-.51-.112-.174-.075-.34-.182-.493-.32h-.02l-.052.345h-.476v-5.135zm.592 4.356c.153.136.306.23.457.286.153.055.286.083.402.083.144 0 .277-.034.4-.098.123-.065.228-.157.317-.274.088-.118.158-.264.208-.437.05-.172.076-.367.076-.583 0-.192-.017-.368-.05-.526-.034-.158-.088-.294-.163-.407-.073-.113-.17-.2-.287-.263-.118-.063-.258-.094-.422-.094-.283 0-.595.16-.936.476v1.84zm3.15-.965c0-.29.045-.547.134-.775.09-.23.207-.422.354-.58.146-.16.313-.28.5-.365.188-.084.383-.126.585-.126.22 0 .42.037.595.114.176.077.322.188.44.332.118.144.208.317.27.52.063.2.094.427.094.677 0 .13-.007.238-.02.324h-2.367c.023.38.14.68.35.902.208.22.48.33.817.33.17 0 .324-.025.466-.075.14-.05.277-.117.407-.198l.21.39c-.155.095-.325.18-.513.25-.187.073-.4.11-.642.11-.235 0-.455-.043-.66-.127-.204-.084-.382-.204-.533-.36-.152-.156-.27-.348-.357-.574-.087-.226-.13-.483-.13-.77zm2.453-.267c0-.36-.076-.636-.227-.826-.152-.19-.364-.285-.638-.285-.125 0-.244.026-.357.076-.113.05-.216.123-.307.216-.09.093-.167.21-.227.346-.06.137-.1.294-.118.472h1.875zm1.47 1.65c0-.138.043-.25.127-.334.084-.084.187-.126.307-.126.116 0 .216.042.3.126.084.084.126.196.126.335 0 .13-.042.236-.126.32-.084.084-.184.127-.3.127-.12 0-.222-.043-.306-.127-.084-.084-.126-.19-.126-.32zm2.417 0c0-.138.042-.25.126-.334.084-.084.186-.126.307-.126.115 0 .215.042.3.126.083.084.125.196.125.335 0 .13-.042.236-.126.32-.084.084-.184.127-.3.127-.12 0-.222-.043-.306-.127-.084-.084-.126-.19-.126-.32zm2.416 0c0-.138.042-.25.126-.334.084-.084.186-.126.306-.126.116 0 .216.042.3.126.084.084.126.196.126.335 0 .13-.042.236-.126.32-.084.084-.184.127-.3.127-.12 0-.222-.043-.306-.127-.084-.084-.126-.19-.126-.32z" id="To-be-or-not-to-be…" fill="#444"/><g stroke-linecap="square" stroke-width=".5" stroke="#ADADAD"><path id="Line" d="M41.83 1.34v1.396"/><path id="Line-Copy" d="M42.533 2.037H41.13"/></g><path d="M3.918 70.316c.064 0 .116-.053.116-.117 0-.033-.012-.06-.032-.082l-.618-.62.61-.615c.025-.02.04-.053.04-.088 0-.065-.052-.117-.116-.117-.03 0-.06.012-.08.032l-.7.702c-.02.02-.035.05-.035.084s.014.064.036.085l.697.703c.02.02.05.033.08.033z" id="Shape" fill="#C1C1C1"/><path id="Line" stroke="#E6E6E6" stroke-width=".5" stroke-linecap="square" d="M47.3 67.198h55.567"/><path stroke="#E6E6E6" stroke-width=".5" stroke-linecap="square" d="M17.64 67.198h22.765"/></g><g stroke="#656363" stroke-linecap="square"><path d="M36.697 40.8h18.75" id="Line"/><path d="M35.976 43.68h20.192" id="Line-Copy-5"/></g><g stroke="#656363" stroke-linecap="square"><path d="M36.697 59.52h18.75" id="Line"/><path d="M35.976 62.4h20.192" id="Line-Copy-5"/></g><g stroke="#448AC9" stroke-linecap="square"><path d="M36.697 50.16h18.75" id="Line"/><path d="M35.976 53.04h20.192" id="Line-Copy-5"/></g><g stroke="#656363" stroke-linecap="square"><path d="M36.697 68.88h18.75" id="Line"/><path d="M35.976 71.76h20.192"/></g></g><g transform="translate(367 1)"><rect fill="#fff" x="1.322" y=".66" width="78.022" height="163.976" rx="12.311"/><g><rect stroke="#8C8C8C" x="53.059" width="12.319" height="2.46" rx=".41"/><rect stroke="#8C8C8C" transform="rotate(-270 1.523 26.646)" x="-2.173" y="25.416" width="7.392" height="2.46" rx=".41"/><rect id="Rectangle-13" stroke="#8C8C8C" transform="rotate(-270 1.728 41.199)" x="-1.146" y="39.764" width="5.749" height="2.87" rx=".41"/><rect stroke="#8C8C8C" transform="rotate(-270 1.728 54.727)" x="-1.146" y="53.292" width="5.749" height="2.87" rx=".41"/><rect stroke="#9F9F9F" fill="#fff" x=".907" y=".615" width="78.022" height="163.976" rx="12.311"/><ellipse stroke="#8C8C8C" fill="#fff" cx="39.918" cy="151.473" rx="6.365" ry="6.354"/><rect stroke="#8C8C8C" fill="#fff" x="33.553" y="13.733" width="12.73" height="1.23" rx="1.026"/></g><path stroke="#BDBDBD" stroke-width=".661" stroke-linejoin="round" fill="#fff" d="M7.273 22.44h65.703v116.423H7.273z"/><path d="M12.073 61.206h-1.31v-.463h3.174v.463h-1.31v3.874h-.554v-3.874zm1.917 2.274c0-.27.04-.508.122-.717.082-.21.19-.387.328-.533.136-.145.294-.255.472-.33.18-.075.367-.113.566-.113.198 0 .386.038.565.113.178.075.336.185.473.33.136.146.245.323.327.533.082.21.122.448.122.717 0 .264-.04.5-.122.71-.082.21-.19.386-.327.53-.137.143-.295.252-.473.327-.18.075-.367.112-.565.112-.2 0-.387-.038-.566-.113-.178-.075-.336-.184-.472-.327-.137-.144-.246-.32-.328-.53-.08-.21-.122-.446-.122-.71zm.562 0c0 .185.022.353.066.502.044.15.107.28.19.387.08.107.178.19.293.25.115.06.24.09.378.09.136 0 .262-.03.377-.09.114-.06.212-.143.294-.25.08-.11.143-.238.187-.388.044-.15.066-.317.066-.502s-.022-.354-.066-.506c-.044-.152-.107-.283-.188-.393-.083-.11-.18-.194-.295-.254-.115-.06-.24-.09-.377-.09s-.263.03-.377.09c-.114.06-.212.145-.293.255-.082.11-.145.242-.19.394-.043.152-.065.32-.065.506zm4.595-3.107h.542v1.282l-.014.582c.145-.128.304-.235.476-.32.172-.087.348-.13.53-.13.206 0 .39.04.548.116.158.077.292.187.4.33.108.144.19.316.244.516.055.2.083.424.083.67 0 .274-.037.518-.112.734-.075.216-.177.4-.305.55-.127.15-.275.263-.442.34-.168.077-.344.115-.53.115-.15 0-.305-.035-.466-.103-.16-.068-.31-.167-.452-.294h-.02l-.047.317h-.436v-4.707zm.542 3.993c.14.123.28.21.42.26.138.052.26.077.366.077.132 0 .255-.03.367-.09.112-.06.21-.142.29-.25.082-.108.146-.242.193-.4.046-.16.07-.338.07-.536 0-.176-.016-.337-.047-.483-.032-.145-.082-.27-.15-.373-.068-.103-.156-.183-.264-.24-.108-.058-.237-.086-.387-.086-.26 0-.548.145-.86.436v1.686zm2.89-.886c0-.264.04-.5.12-.71.082-.21.19-.388.325-.533.134-.145.287-.257.46-.334.17-.077.35-.116.535-.116.203 0 .384.036.545.106.16.07.296.172.404.304.107.133.19.29.247.476.057.186.085.393.085.622 0 .12-.006.218-.02.297h-2.168c.022.35.13.624.32.827.192.202.443.303.75.303.155 0 .298-.023.428-.07.13-.046.254-.106.373-.18l.192.356c-.14.087-.298.164-.47.23-.17.066-.368.1-.588.1-.217 0-.42-.04-.606-.116-.187-.077-.35-.188-.49-.33-.138-.144-.247-.32-.326-.527-.08-.207-.12-.443-.12-.707zm2.246-.245c0-.33-.07-.583-.208-.757-.14-.174-.334-.26-.585-.26-.115 0-.224.022-.327.07-.104.045-.197.11-.28.197-.085.086-.154.192-.21.317-.055.126-.09.27-.11.433h1.72zm2.367.245c0-.27.04-.508.123-.717.08-.21.19-.387.327-.533.137-.145.294-.255.473-.33.178-.075.367-.113.565-.113.2 0 .388.038.566.113.18.075.336.185.473.33.136.146.245.323.326.533.082.21.123.448.123.717 0 .264-.042.5-.124.71-.08.21-.19.386-.327.53-.138.143-.295.252-.474.327-.178.075-.367.112-.565.112-.197 0-.386-.038-.564-.113-.18-.075-.336-.184-.473-.327-.137-.144-.246-.32-.327-.53-.082-.21-.123-.446-.123-.71zm.562 0c0 .185.022.353.066.502.046.15.108.28.19.387.08.107.18.19.294.25.115.06.24.09.377.09.138 0 .263-.03.378-.09.114-.06.213-.143.294-.25.082-.11.144-.238.188-.388.045-.15.067-.317.067-.502s-.022-.354-.067-.506c-.044-.152-.106-.283-.188-.393-.08-.11-.18-.194-.294-.254-.115-.06-.24-.09-.377-.09-.136 0-.26.03-.376.09-.114.06-.213.145-.294.255-.082.11-.144.242-.19.394-.043.152-.065.32-.065.506zm3.26-1.613h.45l.046.582h.02c.11-.204.244-.365.4-.484.157-.12.328-.18.513-.18.128 0 .242.023.344.068l-.106.476c-.052-.018-.1-.03-.144-.04-.045-.01-.1-.013-.166-.013-.136 0-.28.055-.426.165-.148.11-.277.302-.387.575v2.063h-.542v-3.213zm3.63 0h.45l.045.463h.02c.155-.155.317-.284.486-.387.17-.104.367-.156.592-.156.34 0 .587.106.744.318.156.21.235.524.235.94v2.035h-.543v-1.964c0-.304-.048-.523-.145-.657-.098-.136-.252-.203-.464-.203-.167 0-.315.042-.443.125-.128.084-.273.208-.436.37v2.328h-.542v-3.213zm3.378 1.613c0-.27.04-.508.122-.717.082-.21.19-.387.328-.533.136-.145.294-.255.472-.33.18-.075.367-.113.566-.113.2 0 .388.038.566.113.18.075.336.185.473.33.135.146.244.323.326.533.082.21.122.448.122.717 0 .264-.04.5-.122.71-.082.21-.19.386-.327.53-.138.143-.295.252-.474.327-.178.075-.367.112-.565.112-.198 0-.386-.038-.565-.113-.178-.075-.336-.184-.472-.327-.137-.144-.246-.32-.328-.53-.08-.21-.122-.446-.122-.71zm.562 0c0 .185.022.353.066.502.045.15.108.28.19.387.08.107.18.19.294.25.114.06.24.09.377.09s.263-.03.378-.09c.114-.06.212-.143.294-.25.08-.11.144-.238.188-.388.044-.15.066-.317.066-.502s-.022-.354-.066-.506c-.044-.152-.107-.283-.188-.393-.082-.11-.18-.194-.294-.254-.115-.06-.24-.09-.377-.09-.136 0-.262.03-.376.09-.115.06-.213.145-.294.255-.082.11-.145.242-.19.394-.043.152-.065.32-.065.506zm3.352-1.17h-.476v-.41l.504-.033.066-.9h.456v.9h.866v.443h-.866v1.785c0 .198.036.35.11.46.072.107.2.16.386.16.057 0 .12-.007.185-.025.066-.018.126-.038.178-.06l.106.41c-.087.03-.183.06-.286.083-.104.024-.206.036-.308.036-.172 0-.316-.027-.433-.08-.117-.053-.21-.126-.284-.218-.074-.093-.126-.205-.157-.337-.03-.133-.046-.278-.046-.437V62.31zm3.57 0h-.476v-.41l.504-.033.066-.9h.456v.9h.866v.443h-.866v1.785c0 .198.037.35.11.46.072.107.2.16.386.16.057 0 .12-.007.185-.025.066-.018.126-.038.18-.06l.104.41c-.087.03-.183.06-.286.083-.104.024-.206.036-.308.036-.17 0-.316-.027-.433-.08-.116-.053-.21-.126-.284-.218-.074-.093-.125-.205-.156-.337-.03-.133-.047-.278-.047-.437V62.31zm1.838 1.17c0-.27.04-.508.123-.717.08-.21.19-.387.327-.533.137-.145.294-.255.473-.33.178-.075.367-.113.565-.113.198 0 .387.038.565.113.18.075.336.185.473.33.138.146.247.323.328.533.082.21.123.448.123.717 0 .264-.04.5-.122.71-.08.21-.19.386-.327.53-.136.143-.293.252-.472.327-.178.075-.367.112-.565.112-.198 0-.387-.038-.565-.113-.18-.075-.336-.184-.473-.327-.137-.144-.246-.32-.327-.53-.082-.21-.123-.446-.123-.71zm.562 0c0 .185.022.353.067.502.044.15.106.28.188.387.082.107.18.19.294.25.115.06.24.09.377.09s.262-.03.377-.09c.115-.06.213-.143.294-.25.082-.11.144-.238.19-.388.043-.15.065-.317.065-.502s-.023-.354-.067-.506c-.045-.152-.107-.283-.19-.393-.08-.11-.178-.194-.293-.254-.115-.06-.24-.09-.377-.09s-.262.03-.377.09c-.114.06-.212.145-.294.255-.082.11-.144.242-.188.394-.045.152-.067.32-.067.506zm4.595-3.107h.543v1.282l-.014.582c.147-.128.306-.235.477-.32.172-.087.35-.13.53-.13.207 0 .39.04.548.116.16.077.292.187.4.33.108.144.19.316.245.516.055.2.082.424.082.67 0 .274-.037.518-.112.734-.075.216-.176.4-.304.55-.128.15-.276.263-.443.34-.168.077-.344.115-.53.115-.15 0-.304-.035-.465-.103-.16-.068-.312-.167-.453-.294h-.02l-.046.317H52.5v-4.707zm.543 3.993c.14.123.28.21.42.26.138.052.26.077.366.077.134 0 .256-.03.368-.09.113-.06.21-.142.29-.25.083-.108.147-.242.193-.4.047-.16.07-.338.07-.536 0-.176-.015-.337-.046-.483-.03-.145-.08-.27-.15-.373-.067-.103-.155-.183-.263-.24-.107-.058-.236-.086-.386-.086-.26 0-.546.145-.86.436v1.686zm2.89-.886c0-.264.04-.5.12-.71.083-.21.19-.388.325-.533.135-.145.288-.257.46-.334.172-.077.35-.116.535-.116.203 0 .385.036.546.106.162.07.296.172.404.304.108.133.19.29.248.476.057.186.086.393.086.622 0 .12-.007.218-.02.297h-2.17c.023.35.13.624.322.827.192.202.442.303.75.303.155 0 .297-.023.427-.07.13-.046.254-.106.373-.18l.192.356c-.14.087-.297.164-.47.23-.17.066-.367.1-.588.1-.216 0-.417-.04-.605-.116-.188-.077-.35-.188-.49-.33-.14-.144-.248-.32-.327-.527-.08-.207-.12-.443-.12-.707zm2.247-.245c0-.33-.07-.583-.208-.757-.14-.174-.334-.26-.586-.26-.114 0-.223.022-.327.07-.102.045-.196.11-.28.197-.084.086-.153.192-.208.317-.055.126-.092.27-.11.433h1.72zm1.35 1.514c0-.128.037-.23.114-.308.077-.077.17-.116.28-.116.107 0 .2.04.276.116.077.077.115.18.115.307 0 .118-.038.217-.115.294-.077.077-.17.115-.275.115-.11 0-.204-.04-.28-.116-.078-.077-.116-.176-.116-.295zm2.213 0c0-.128.04-.23.116-.308.078-.077.172-.116.282-.116.106 0 .197.04.275.116.077.077.115.18.115.307 0 .118-.038.217-.115.294-.078.077-.17.115-.275.115-.11 0-.204-.04-.28-.116-.078-.077-.117-.176-.117-.295zm2.215 0c0-.128.04-.23.116-.308.077-.077.17-.116.28-.116.107 0 .198.04.275.116.08.077.117.18.117.307 0 .118-.038.217-.116.294-.076.077-.167.115-.273.115-.11 0-.204-.04-.28-.116-.078-.077-.117-.176-.117-.295zm-51.887 8.356h-1.31v-.462h3.174v.462h-1.31v3.875h-.554v-3.874zm2.59-.833h.544v1.283l-.02.66c.154-.144.315-.27.482-.372.167-.104.363-.156.588-.156.34 0 .587.106.744.318.156.21.234.524.234.938v2.037h-.542v-1.963c0-.304-.048-.523-.145-.658-.098-.135-.252-.202-.464-.202-.168 0-.315.042-.443.125-.128.084-.273.207-.436.37v2.328h-.543v-4.707zm3.44 3.875c0-.353.157-.623.472-.81.315-.187.817-.32 1.504-.394 0-.1-.01-.2-.03-.297-.02-.097-.056-.183-.106-.258-.05-.076-.118-.136-.202-.183-.084-.046-.192-.07-.324-.07-.19 0-.365.036-.525.107-.16.07-.306.15-.433.238l-.22-.377c.15-.097.334-.19.55-.28.216-.092.454-.137.714-.137.392 0 .677.12.853.36.176.24.264.56.264.963v1.97h-.448l-.046-.383h-.014c-.154.128-.32.237-.5.328-.177.09-.366.135-.564.135-.273 0-.5-.08-.678-.238-.178-.16-.268-.383-.268-.674zm.535-.04c0 .185.054.317.162.397.108.08.24.12.4.12.154 0 .3-.038.44-.11.14-.073.285-.18.44-.32V75.3c-.27.037-.497.08-.682.127-.185.05-.334.106-.446.172-.112.065-.193.14-.24.227-.05.086-.074.18-.074.28zm3.1-1.897h-.475v-.41l.502-.032.066-.9h.458v.9h.866v.443h-.866v1.786c0 .198.036.35.11.46.07.107.2.16.385.16.058 0 .12-.008.186-.025.065-.017.124-.037.177-.06l.106.41c-.088.032-.184.06-.288.084-.103.024-.206.036-.307.036-.172 0-.316-.026-.433-.08-.117-.052-.212-.125-.285-.217-.072-.093-.124-.205-.155-.338-.03-.132-.046-.277-.046-.436v-1.78zm3.756-1.104c-.106 0-.195-.033-.268-.1-.072-.065-.11-.15-.11-.25 0-.106.038-.19.11-.255.073-.062.162-.094.268-.094.106 0 .195.032.268.095.073.065.11.15.11.256 0 .1-.037.185-.11.25-.073.067-.162.1-.268.1zm-.277.662h.542v3.213h-.543V73.77zm1.54 2.486c.14.114.285.207.433.277.148.072.32.107.512.107.212 0 .37-.048.477-.145.104-.097.157-.216.157-.357 0-.084-.022-.157-.066-.22-.043-.06-.1-.114-.168-.16-.068-.047-.146-.088-.234-.123l-.265-.106c-.114-.04-.23-.085-.343-.135-.115-.05-.218-.112-.308-.184-.09-.073-.164-.158-.22-.255-.06-.096-.087-.213-.087-.35 0-.127.025-.247.076-.36.05-.112.124-.21.22-.29.094-.082.21-.146.346-.192.137-.047.29-.07.463-.07.202 0 .388.036.557.106.17.07.317.157.44.258l-.258.344c-.11-.084-.226-.152-.345-.205-.12-.052-.25-.08-.39-.08-.202 0-.35.048-.446.14-.096.093-.143.2-.143.324 0 .075.02.14.06.195.04.054.092.103.158.145.066.042.142.08.228.112l.268.103c.116.044.23.09.348.138.117.05.222.11.314.182.093.073.17.162.228.268.06.106.09.234.09.383 0 .134-.026.257-.077.372-.05.114-.125.216-.224.304-.1.088-.224.157-.372.208-.147.05-.316.076-.505.076-.23 0-.448-.042-.655-.125-.207-.084-.388-.19-.542-.318l.27-.363zm4.284-2.043h-.475v-.41l.503-.032.066-.9h.456v.9h.866v.443h-.866v1.786c0 .198.036.35.11.46.072.107.2.16.386.16.057 0 .12-.008.185-.025.067-.017.127-.037.18-.06l.105.41c-.088.032-.184.06-.287.084-.104.024-.206.036-.308.036-.172 0-.316-.026-.433-.08-.117-.052-.21-.125-.284-.217-.073-.093-.125-.205-.155-.338-.03-.132-.047-.277-.047-.436v-1.78zm2.143-1.937h.543v1.283l-.02.66c.154-.144.315-.27.482-.372.168-.104.364-.156.59-.156.338 0 .586.106.743.318.157.21.235.524.235.938v2.037h-.542v-1.963c0-.304-.048-.523-.145-.658-.097-.135-.25-.202-.463-.202-.168 0-.315.042-.443.125-.128.084-.273.207-.436.37v2.328h-.543v-4.707zm3.36 3.108c0-.264.04-.5.12-.71.083-.21.19-.387.325-.532.135-.146.288-.257.46-.334.172-.077.35-.116.535-.116.203 0 .385.036.546.106.16.07.294.172.402.304.108.132.19.29.248.476.057.185.086.393.086.622 0 .12-.006.218-.02.297h-2.168c.022.348.13.624.32.827.192.202.442.304.75.304.155 0 .297-.023.427-.07.13-.046.255-.107.374-.18l.19.356c-.14.088-.297.165-.47.23-.17.067-.367.1-.587.1-.216 0-.418-.038-.605-.116-.188-.077-.35-.187-.49-.33-.138-.143-.248-.32-.327-.526-.078-.207-.118-.443-.118-.707zm2.247-.244c0-.33-.07-.583-.208-.757-.14-.175-.334-.262-.585-.262-.115 0-.224.023-.328.07-.104.046-.198.112-.282.198-.083.086-.153.192-.208.317-.055.126-.09.27-.11.433h1.72zm2.374.245c0-.26.038-.494.115-.703.076-.21.18-.387.307-.533.128-.145.275-.257.443-.337.167-.08.344-.12.53-.12.184 0 .347.033.488.097.14.064.284.16.43.288h.013l.054-.304h.436v4.568h-.55v-1.144l.028-.568c-.128.12-.275.22-.44.307-.165.087-.34.13-.525.13-.406 0-.73-.145-.97-.436-.24-.29-.36-.705-.36-1.243zm.562-.006c0 .388.077.69.23.906.155.216.373.324.656.324.15 0 .29-.036.423-.11.132-.072.264-.183.396-.333v-1.678c-.135-.124-.266-.21-.392-.262-.126-.05-.255-.076-.387-.076-.127 0-.247.03-.36.09-.11.06-.21.143-.293.25-.084.11-.15.238-.2.388-.047.15-.07.317-.07.502zm3.26-1.606h.548v1.963c0 .305.047.525.142.66.095.134.248.2.46.2.167 0 .315-.042.443-.128.126-.086.267-.224.422-.413v-2.282h.542v3.213h-.45l-.046-.502h-.02c-.15.177-.307.318-.473.423-.165.107-.36.16-.585.16-.344 0-.594-.106-.75-.317-.157-.212-.235-.525-.235-.94V73.77zm3.404 1.613c0-.264.04-.5.122-.71.082-.21.19-.387.324-.532.135-.146.288-.257.46-.334.172-.077.35-.116.535-.116.204 0 .386.036.547.106.16.07.295.172.403.304.108.132.19.29.248.476.057.185.086.393.086.622 0 .12-.007.218-.02.297h-2.168c.022.348.13.624.32.827.192.202.442.304.75.304.155 0 .297-.023.427-.07.13-.046.255-.107.374-.18l.19.356c-.14.088-.296.165-.468.23-.173.067-.37.1-.59.1-.215 0-.417-.038-.604-.116-.188-.077-.35-.187-.49-.33-.138-.143-.248-.32-.327-.526-.08-.207-.12-.443-.12-.707zm2.248-.244c0-.33-.07-.583-.208-.757-.14-.175-.334-.262-.585-.262-.115 0-.224.023-.328.07-.103.046-.197.112-.28.198-.084.086-.154.192-.21.317-.054.126-.09.27-.108.433h1.718zm1.183 1.118c.143.114.287.207.435.277.147.072.318.107.512.107.212 0 .37-.048.476-.145.106-.097.16-.216.16-.357 0-.084-.023-.157-.067-.22-.045-.06-.1-.114-.17-.16-.067-.047-.146-.088-.234-.123l-.264-.106c-.115-.04-.23-.085-.344-.135-.115-.05-.217-.112-.307-.184-.09-.073-.165-.158-.222-.255-.057-.096-.086-.213-.086-.35 0-.127.024-.247.075-.36.05-.112.124-.21.218-.29.095-.082.21-.146.347-.192.137-.047.29-.07.463-.07.203 0 .39.036.56.106.17.07.315.157.44.258l-.26.344c-.11-.084-.224-.152-.343-.205-.12-.052-.25-.08-.39-.08-.203 0-.352.048-.446.14-.095.093-.143.2-.143.324 0 .075.02.14.06.195.04.054.093.103.16.145.066.042.142.08.228.112l.267.103c.115.044.23.09.348.138.116.05.22.11.314.182.092.073.168.162.228.268.06.106.09.234.09.383 0 .134-.026.257-.077.372-.05.114-.126.216-.225.304-.1.088-.222.157-.37.208-.148.05-.316.076-.506.076-.23 0-.447-.042-.654-.125-.208-.084-.388-.19-.543-.318l.27-.363zm2.95-2.043h-.476v-.41l.503-.032.066-.9h.456v.9h.865v.443h-.866v1.786c0 .198.035.35.108.46.073.107.202.16.387.16.057 0 .12-.008.185-.025.066-.017.126-.037.18-.06l.104.41c-.088.032-.184.06-.287.084-.104.024-.206.036-.308.036-.173 0-.317-.026-.434-.08-.117-.052-.21-.125-.284-.217-.073-.093-.125-.205-.155-.338-.03-.132-.047-.277-.047-.436v-1.78z" fill="#444"/><path d="M11.293 42.395h.658v2.182h2.42v-2.182h.667V47.6h-.666v-2.452h-2.42V47.6h-.657v-5.205zm4.92 4.205c0-.423.188-.747.566-.972.377-.224.98-.382 1.804-.472 0-.12-.012-.24-.036-.357-.024-.117-.066-.22-.127-.31-.06-.09-.14-.163-.24-.218-.1-.056-.23-.084-.39-.084-.227 0-.437.043-.63.127-.193.085-.367.18-.52.286l-.262-.45c.18-.118.4-.23.66-.338.258-.11.543-.163.856-.163.47 0 .81.143 1.023.43.212.29.317.674.317 1.156V47.6h-.54l-.055-.46h-.017c-.185.153-.384.284-.6.393-.213.108-.44.162-.677.162-.328 0-.6-.095-.813-.285-.214-.19-.32-.46-.32-.81zm.64-.047c0 .222.066.38.196.476.128.094.288.142.48.142.184 0 .36-.044.526-.13.167-.09.343-.217.528-.386v-1.07c-.323.04-.595.09-.817.15-.223.058-.4.126-.536.206-.134.08-.23.17-.29.274-.057.103-.086.215-.086.337zm3.61-2.81h.54l.056.557h.023c.17-.186.353-.34.55-.465.2-.124.415-.186.648-.186.297 0 .53.064.695.193.167.13.29.31.37.544.2-.222.402-.4.606-.536.205-.134.426-.2.664-.2.396 0 .69.126.884.38.193.254.29.63.29 1.126V47.6h-.65v-2.356c0-.365-.06-.628-.175-.79-.117-.16-.297-.242-.54-.242-.29 0-.613.2-.968.595V47.6h-.65v-2.356c0-.365-.06-.628-.175-.79-.116-.16-.3-.242-.547-.242-.29 0-.614.2-.968.595V47.6h-.65v-3.856zm6.578-1.792h.652v4.92c0 .106.018.18.055.222.037.043.08.064.127.064h.06c.018 0 .046-.006.083-.016l.087.492c-.042.02-.092.037-.15.047-.058.01-.133.015-.222.015-.25 0-.426-.074-.532-.222-.106-.148-.16-.365-.16-.65V41.95zm1.74 3.73c0-.317.048-.602.146-.853.097-.25.227-.464.388-.64.162-.173.346-.307.552-.4.206-.092.42-.138.642-.138.244 0 .462.04.655.126.193.084.354.206.484.365.13.16.23.35.297.572.07.222.104.47.104.746 0 .143-.008.262-.024.357H29.42c.028.418.156.748.386.992.23.243.53.365.9.365.186 0 .356-.028.513-.084.155-.055.304-.128.447-.218l.23.43c-.17.104-.357.197-.563.276-.207.08-.442.12-.707.12-.26 0-.5-.047-.726-.14-.223-.092-.42-.224-.586-.396-.166-.172-.297-.382-.392-.63-.096-.25-.143-.533-.143-.85zm2.696-.294c0-.396-.083-.7-.25-.908-.166-.21-.4-.313-.702-.313-.137 0-.268.027-.392.083-.125.055-.237.135-.338.238-.1.103-.183.23-.25.38-.066.152-.11.325-.13.52h2.062zm1.635-1.11h-.57v-.492l.602-.04.08-1.08h.547v1.08h1.04v.532h-1.04v2.142c0 .238.043.422.13.55.087.13.242.196.464.196.07 0 .143-.01.222-.032.08-.02.15-.045.215-.072l.128.492c-.106.037-.22.07-.346.1-.124.03-.247.043-.368.043-.207 0-.38-.032-.52-.095s-.254-.15-.34-.262c-.09-.11-.15-.246-.188-.404-.037-.16-.055-.334-.055-.524v-2.134z" fill="#448AC9"/><path d="M57.85 70.95v7.26" id="Line" stroke="#979797" stroke-width=".661" stroke-linecap="square"/><path d="M7.603 35.97H72.45" id="Line" stroke="#E0EEFB" stroke-width=".661" stroke-linecap="square"/><path d="M30.744 30.03h17.863" id="Line" stroke="#448AC9" stroke-width="1.983" stroke-linecap="square"/><g stroke="#448AC9" stroke-width=".661" stroke-linecap="square"><path d="M68.14 27.72v3.96"/><path d="M70.17 29.7h-4.05"/></g><path d="M13.223 28.12l-.445-.4-2.2 1.98 2.2 1.98.445-.4-1.753-1.58 1.753-1.58z" fill="#448AC9"/></g></g></svg>