<?xml version="1.0" encoding="UTF-8" standalone="no"?>
<svg width="447px" height="166px" viewBox="0 0 447 166" version="1.1" xmlns="http://www.w3.org/2000/svg" xmlns:xlink="http://www.w3.org/1999/xlink" xmlns:sketch="http://www.bohemiancoding.com/sketch/ns">
    <!-- Generator: Sketch 3.4 (15575) - http://www.bohemiancoding.com/sketch -->
    <title>Fill 13 Copy 2 + Line + Line Copy 4 + Group + Group</title>
    <desc>Created with Sketch.</desc>
    <defs>
        <filter x="-50%" y="-50%" width="200%" height="200%" filterUnits="objectBoundingBox" id="filter-1">
            <feOffset dx="0" dy="0" in="SourceAlpha" result="shadowOffsetOuter1"></feOffset>
            <feGaussianBlur stdDeviation="1" in="shadowOffsetOuter1" result="shadowBlurOuter1"></feGaussianBlur>
            <feColorMatrix values="0 0 0 0 0   0 0 0 0 0   0 0 0 0 0  0 0 0 0.192317708 0" in="shadowBlurOuter1" type="matrix" result="shadowMatrixOuter1"></feColorMatrix>
            <feMerge>
                <feMergeNode in="shadowMatrixOuter1"></feMergeNode>
                <feMergeNode in="SourceGraphic"></feMergeNode>
            </feMerge>
        </filter>
        <rect id="path-2" x="0" y="0" width="59.9674973" height="63.152789"></rect>
    </defs>
    <g id="Mac-App-UI" stroke="none" stroke-width="1" fill="none" fill-rule="evenodd" sketch:type="MSPage">
        <g id="Artboard-1" sketch:type="MSArtboardGroup" transform="translate(-3261.000000, -4101.000000)">
            <g id="Fill-13-Copy-2-+-Line-+-Line-Copy-4-+-Group-+-Group" sketch:type="MSLayerGroup" transform="translate(3262.000000, 4102.000000)">
                <g id="Fill-13-Copy-2-+-Line-+-Line-Copy-4" transform="translate(154.000000, 41.000000)" sketch:type="MSShapeGroup">
                    <path d="M91.6739635,11.8956488 C91.6739635,17.6971013 96.8059824,21.0608847 104.054947,24.4866089 L120.673817,33.1123607 L120.888608,33.2452336 C128.199512,37.8608201 131.573238,43.9350117 131.573238,52.3469679 C131.573238,52.8924463 131.547263,53.4349276 131.513296,53.9744117 C135.58934,48.367773 138,41.4643742 138,34.0075047 C138,15.2214685 122.775776,2.37736023e-05 103.999001,2.37736023e-05 C103.143831,2.37736023e-05 91.6739635,-0.0958845158 91.6739635,11.8956488 M103.999001,68 C85.2222255,68 70,52.7815524 70,34.0075047 C70,24.5605382 73.8532601,16.0157091 80.071225,9.85759764 C79.9773161,10.7517426 79.9283636,11.6698647 79.9283636,12.6009743 C79.9283636,20.0298706 83.3710222,25.9132447 90.0825082,30.0812591 C90.0825082,30.0812591 106.185878,38.5371733 106.653425,38.754965 C114.429877,42.5463396 119.930538,45.7053189 119.930538,51.9093864 C119.930538,60.1674897 112.902359,68 103.999001,68" id="Fill-13-Copy-2" fill="#448AC9"></path>
                    <path d="M148.5,33 L206.5,33" id="Line" stroke="#ACD8FF" stroke-width="2" stroke-linecap="square" opacity="0.541744403"></path>
                    <circle id="Oval-21-Copy" stroke="#E7F4FF" cx="175" cy="32" r="18"></circle>
                    <circle id="Oval-21-Copy-2" stroke="#ABD7FF" fill="#FAFAFA" cx="175" cy="32" r="9"></circle>
                    <circle id="Oval-21" fill="#448AC9" cx="175" cy="32" r="5"></circle>
                    <path d="M0.783529162,33 L58.7835292,33" id="Line-Copy-4" stroke="#ACD8FF" stroke-width="2" stroke-linecap="square" opacity="0.541744403"></path>
                </g>
                <g id="Group" transform="translate(0.000000, 20.000000)">
                    <g id="iMac-27&quot;" sketch:type="MSShapeGroup">
                        <path d="M58.2358839,101.900971 C58.2358839,101.900971 57.0940002,122.16699 56.2375874,123.308738 C55.3811746,124.450485 49.100814,124.450485 49.3862849,125.021359 C49.6449885,125.538705 62.2324779,125.592166 74.9359336,125.592166 C87.6393893,125.592166 100.226879,125.538705 100.485582,125.021359 C100.771053,124.450485 94.4906927,124.450485 93.6342798,123.308738 C92.777867,122.16699 91.6359833,101.900971 91.6359833,101.900971 L74.9359336,101.900971 L58.2358839,101.900971 Z" id="Foot" stroke="#ABABAB" stroke-width="0.725298408" fill="#FFFFFF"></path>
                        <rect id="blackglass" stroke="#AAAAAA" stroke-width="0.725298408" fill="#FFFFFF" x="0" y="0" width="149.278846" height="108.72" rx="4.29086525"></rect>
                        <path d="M0.360576923,94.68 L149.850049,94.68" id="Line" stroke="#AAAAAA" stroke-width="0.721153846" stroke-linecap="square"></path>
                        <rect id="pixels" stroke="#CCCCCC" stroke-width="0.725298408" stroke-linejoin="round" fill="#FFFFFF" x="6.6027182" y="6.56504854" width="136.360484" height="81.3495146"></rect>
                    </g>
                    <g id="Mac-App-UI-Light-Copy" transform="translate(16.586538, 11.520000)">
                        <rect id="App-Window" stroke="#BFBFBF" stroke-width="0.5" fill="#FFFFFF" filter="url(#filter-1)" sketch:type="MSShapeGroup" x="0" y="0" width="116.105769" height="72" rx="0.584581089"></rect>
                        <g id="#-Proposed-Producer-" transform="translate(43.878657, 8.847211)">
                            <mask id="mask-3" sketch:name="Mask" fill="white">
                                <use xlink:href="#path-2"></use>
                            </mask>
                            <use id="Mask" opacity="0" fill="#D8D8D8" sketch:type="MSShapeGroup" xlink:href="#path-2"></use>
                        </g>
                        <path id="Toolbar-Divider" stroke="#E0E0E0" stroke-width="0.5" stroke-linecap="square" sketch:type="MSShapeGroup" d="M0.0292524377,4.21988682 L103.816901,4.21988682"></path>
                        <g id="OS-Window-Controls" transform="translate(1.170098, 1.455133)" sketch:type="MSShapeGroup">
                            <ellipse id="Red" fill="#FF6057" cx="0.702058505" cy="0.698464026" rx="0.702058505" ry="0.698464026"></ellipse>
                            <ellipse id="Yellow" fill="#FFC02F" cx="3.04225352" cy="0.698464026" rx="0.702058505" ry="0.698464026"></ellipse>
                            <ellipse id="Green" fill="#29CD42" cx="5.38244854" cy="0.698464026" rx="0.702058505" ry="0.698464026"></ellipse>
                        </g>
                        <path id="Line" stroke="#E5E5E5" stroke-width="0.5" stroke-linecap="square" sketch:type="MSShapeGroup" d="M43.9664139,4.27809216 L43.9664139,71.8545151"></path>
                        <path d="M4.6875,7.2 L11.1778846,7.2" id="Line-Copy-6" stroke="#448AC9" stroke-width="1.44230769" stroke-linecap="square" sketch:type="MSShapeGroup"></path>
                        <path d="M4.6875,10.8 L11.1778846,10.8" id="Line-Copy-7" stroke="#448AC9" stroke-width="1.44230769" stroke-linecap="square" sketch:type="MSShapeGroup"></path>
                        <path d="M4.6875,16.2 L9.01442308,16.2" id="Line-Copy-8" stroke="#6CBAFF" stroke-width="0.721153846" stroke-linecap="square" sketch:type="MSShapeGroup"></path>
                        <path d="M4.6875,18.36 L9.01442308,18.36" id="Line-Copy-9" stroke="#6CBAFF" stroke-width="0.721153846" stroke-linecap="square" sketch:type="MSShapeGroup"></path>
                        <path d="M4.6875,20.52 L9.01442308,20.52" id="Line-Copy-10" stroke="#6CBAFF" stroke-width="0.721153846" stroke-linecap="square" sketch:type="MSShapeGroup"></path>
                        <path d="M46.9326923,7.64307692 L47.6509615,7.64307692 L47.6509615,10.0228846 L50.2903846,10.0228846 L50.2903846,7.64307692 L51.0173077,7.64307692 L51.0173077,13.32 L50.2903846,13.32 L50.2903846,10.6459615 L47.6509615,10.6459615 L47.6509615,13.32 L46.9326923,13.32 L46.9326923,7.64307692 Z M52.2980769,12.2296154 C52.2980769,11.7680746 52.5043249,11.4147128 52.9168269,11.1695192 C53.329329,10.9243257 53.9855724,10.7526928 54.8855769,10.6546154 C54.8855769,10.5219224 54.8725963,10.392116 54.8466346,10.2651923 C54.8206729,10.1382686 54.7745196,10.0257697 54.7081731,9.92769231 C54.6418266,9.82961489 54.5538467,9.75028876 54.4442308,9.68971154 C54.3346148,9.62913431 54.1932701,9.59884615 54.0201923,9.59884615 C53.7721141,9.59884615 53.5427895,9.64499954 53.3322115,9.73730769 C53.1216336,9.82961585 52.9326931,9.93346096 52.7653846,10.0488462 L52.4798077,9.55557692 C52.6759625,9.42865321 52.9153832,9.30605828 53.1980769,9.18778846 C53.4807706,9.06951864 53.792306,9.01038462 54.1326923,9.01038462 C54.6461564,9.01038462 55.0182681,9.16759458 55.2490385,9.48201923 C55.4798088,9.79644388 55.5951923,10.2161512 55.5951923,10.7411538 L55.5951923,13.32 L55.0067308,13.32 L54.9461538,12.8180769 L54.9288462,12.8180769 C54.7269221,12.9853855 54.5091358,13.1281725 54.2754808,13.2464423 C54.0418258,13.3647121 53.7951936,13.4238462 53.5355769,13.4238462 C53.1778828,13.4238462 52.8822127,13.320001 52.6485577,13.1123077 C52.4149027,12.9046143 52.2980769,12.6103865 52.2980769,12.2296154 L52.2980769,12.2296154 Z M52.9990385,12.1776923 C52.9990385,12.4200012 53.0697108,12.5930764 53.2110577,12.6969231 C53.3524046,12.8007697 53.526922,12.8526923 53.7346154,12.8526923 C53.9365395,12.8526923 54.1283645,12.8050966 54.3100962,12.7099038 C54.4918278,12.6147111 54.6836528,12.4748086 54.8855769,12.2901923 L54.8855769,11.1219231 C54.5336521,11.1680772 54.2365397,11.2228843 53.9942308,11.2863462 C53.7519219,11.349808 53.5572123,11.4248073 53.4100962,11.5113462 C53.26298,11.597885 53.1576926,11.6974033 53.0942308,11.8099038 C53.0307689,11.9224044 52.9990385,12.0449993 52.9990385,12.1776923 L52.9990385,12.1776923 Z M56.9365385,9.11423077 L57.525,9.11423077 L57.5855769,9.72 L57.6115385,9.72 C57.7961548,9.51807591 57.9966335,9.3493276 58.2129808,9.21375 C58.429328,9.0781724 58.6644218,9.01038462 58.9182692,9.01038462 C59.2413478,9.01038462 59.4937491,9.08105699 59.6754808,9.22240385 C59.8572124,9.36375071 59.9913457,9.56134488 60.0778846,9.81519231 C60.2971165,9.5728834 60.5177874,9.37817381 60.7399038,9.23105769 C60.9620203,9.08394157 61.2028833,9.01038462 61.4625,9.01038462 C61.8951945,9.01038462 62.2168259,9.14884477 62.4274038,9.42576923 C62.6379818,9.70269369 62.7432692,10.112305 62.7432692,10.6546154 L62.7432692,13.32 L62.0336538,13.32 L62.0336538,10.7498077 C62.0336538,10.3517288 61.9701929,10.0647124 61.8432692,9.88875 C61.7163455,9.71278758 61.5201936,9.62480769 61.2548077,9.62480769 C60.9374984,9.62480769 60.5855789,9.84115168 60.1990385,10.2738462 L60.1990385,13.32 L59.4894231,13.32 L59.4894231,10.7498077 C59.4894231,10.3517288 59.4259622,10.0647124 59.2990385,9.88875 C59.1721148,9.71278758 58.9730783,9.62480769 58.7019231,9.62480769 C58.3846138,9.62480769 58.0326942,9.84115168 57.6461538,10.2738462 L57.6461538,13.32 L56.9365385,13.32 L56.9365385,9.11423077 Z M64.1105769,7.15846154 L64.8201923,7.15846154 L64.8201923,12.5238462 C64.8201923,12.6392313 64.8403844,12.7199998 64.8807692,12.7661538 C64.921154,12.8123079 64.9673074,12.8353846 65.0192308,12.8353846 L65.0841346,12.8353846 C65.104327,12.8353846 65.1346152,12.8296154 65.175,12.8180769 L65.2701923,13.3546154 C65.2240382,13.3776924 65.1692311,13.3949999 65.1057692,13.4065385 C65.0423074,13.418077 64.961539,13.4238462 64.8634615,13.4238462 C64.5923063,13.4238462 64.399039,13.3430777 64.2836538,13.1815385 C64.1682687,13.0199992 64.1105769,12.7834631 64.1105769,12.4719231 L64.1105769,7.15846154 Z M66.0057692,11.2257692 C66.0057692,10.8796137 66.0591341,10.5695206 66.1658654,10.2954808 C66.2725967,10.0214409 66.4139414,9.78923172 66.5899038,9.59884615 C66.7658663,9.40846059 66.966345,9.26278897 67.1913462,9.16182692 C67.4163473,9.06086488 67.6499988,9.01038462 67.8923077,9.01038462 C68.1576936,9.01038462 68.395672,9.056538 68.60625,9.14884615 C68.816828,9.24115431 68.9927878,9.37384529 69.1341346,9.54692308 C69.2754815,9.72000087 69.3836535,9.9276911 69.4586538,10.17 C69.5336542,10.4123089 69.5711538,10.68346 69.5711538,10.9834615 C69.5711538,11.1392315 69.5625001,11.2690379 69.5451923,11.3728846 L66.7067308,11.3728846 C66.7355771,11.8286561 66.8754795,12.1892294 67.1264423,12.4546154 C67.3774051,12.7200013 67.7048057,12.8526923 68.1086538,12.8526923 C68.3105779,12.8526923 68.4966338,12.8224041 68.6668269,12.7618269 C68.8370201,12.7012497 68.9999992,12.6219236 69.1557692,12.5238462 L69.4067308,12.9911538 C69.2221145,13.106539 69.0173088,13.2074996 68.7923077,13.2940385 C68.5673066,13.3805774 68.3105784,13.4238462 68.0221154,13.4238462 C67.7394217,13.4238462 67.475482,13.3733659 67.2302885,13.2724038 C66.9850949,13.1714418 66.7716355,13.0272125 66.5899038,12.8397115 C66.4081722,12.6522106 66.2653851,12.422886 66.1615385,12.1517308 C66.0576918,11.8805756 66.0057692,11.5719248 66.0057692,11.2257692 L66.0057692,11.2257692 Z M68.9480769,10.9055769 C68.9480769,10.4728825 68.8572124,10.1425973 68.6754808,9.91471154 C68.4937491,9.68682578 68.2384632,9.57288462 67.9096154,9.57288462 C67.7596146,9.57288462 67.6168276,9.60317277 67.48125,9.66375 C67.3456724,9.72432723 67.2230775,9.81086482 67.1134615,9.92336538 C67.0038456,10.0358659 66.9129811,10.1743261 66.8408654,10.33875 C66.7687496,10.5031739 66.721154,10.6921143 66.6980769,10.9055769 L68.9480769,10.9055769 Z M70.7307692,9.69403846 L70.1076923,9.69403846 L70.1076923,9.1575 L70.7653846,9.11423077 L70.8519231,7.93730769 L71.4490385,7.93730769 L71.4490385,9.11423077 L72.5826923,9.11423077 L72.5826923,9.69403846 L71.4490385,9.69403846 L71.4490385,12.0305769 C71.4490385,12.2901936 71.4966341,12.4906724 71.5918269,12.6320192 C71.6870197,12.7733661 71.855768,12.8440385 72.0980769,12.8440385 C72.1730773,12.8440385 72.2538457,12.8325001 72.3403846,12.8094231 C72.4269235,12.786346 72.5048073,12.7603848 72.5740385,12.7315385 L72.7125,13.2680769 C72.5971148,13.3084617 72.4716353,13.3445191 72.3360577,13.37625 C72.2004801,13.4079809 72.0663468,13.4238462 71.9336538,13.4238462 C71.7086527,13.4238462 71.5197123,13.3892311 71.3668269,13.32 C71.2139415,13.2507689 71.0899043,13.1555775 70.9947115,13.0344231 C70.8995188,12.9132686 70.831731,12.7661547 70.7913462,12.5930769 C70.7509613,12.4199991 70.7307692,12.2296164 70.7307692,12.0219231 L70.7307692,9.69403846 Z" id="Hamlet-Copy" fill="#448AC9" sketch:type="MSShapeGroup"></path>
                        <path d="M47.7836538,21.4940385 L46.3557692,21.4940385 L46.3557692,20.9892308 L49.8173077,20.9892308 L49.8173077,21.4940385 L48.3894231,21.4940385 L48.3894231,25.72 L47.7836538,25.72 L47.7836538,21.4940385 Z M49.875,23.9748077 C49.875,23.681537 49.9194707,23.4207223 50.0084135,23.1923558 C50.0973562,22.9639892 50.2163454,22.7704816 50.3653846,22.6118269 C50.5144238,22.4531723 50.6862971,22.3329812 50.8810096,22.25125 C51.0757221,22.1695188 51.2812489,22.1286538 51.4975962,22.1286538 C51.7139434,22.1286538 51.9194702,22.1695188 52.1141827,22.25125 C52.3088952,22.3329812 52.4807685,22.4531723 52.6298077,22.6118269 C52.7788469,22.7704816 52.8978361,22.9639892 52.9867788,23.1923558 C53.0757216,23.4207223 53.1201923,23.681537 53.1201923,23.9748077 C53.1201923,24.2632707 53.0757216,24.5216816 52.9867788,24.7500481 C52.8978361,24.9784146 52.7788469,25.1707204 52.6298077,25.3269712 C52.4807685,25.4832219 52.3088952,25.6022111 52.1141827,25.6839423 C51.9194702,25.7656735 51.7139434,25.8065385 51.4975962,25.8065385 C51.2812489,25.8065385 51.0757221,25.7656735 50.8810096,25.6839423 C50.6862971,25.6022111 50.5144238,25.4832219 50.3653846,25.3269712 C50.2163454,25.1707204 50.0973562,24.9784146 50.0084135,24.7500481 C49.9194707,24.5216816 49.875,24.2632707 49.875,23.9748077 L49.875,23.9748077 Z M50.4879808,23.9748077 C50.4879808,24.1767318 50.512019,24.3594223 50.5600962,24.5228846 C50.6081733,24.686347 50.6766822,24.8269706 50.765625,24.9447596 C50.8545678,25.0625487 50.9615378,25.1538939 51.0865385,25.2187981 C51.2115391,25.2837022 51.3485569,25.3161538 51.4975962,25.3161538 C51.6466354,25.3161538 51.7836532,25.2837022 51.9086538,25.2187981 C52.0336545,25.1538939 52.1406246,25.0625487 52.2295673,24.9447596 C52.3185101,24.8269706 52.387019,24.686347 52.4350962,24.5228846 C52.4831733,24.3594223 52.5072115,24.1767318 52.5072115,23.9748077 C52.5072115,23.7728836 52.4831733,23.5889912 52.4350962,23.423125 C52.387019,23.2572588 52.3185101,23.1142314 52.2295673,22.9940385 C52.1406246,22.8738456 52.0336545,22.7812984 51.9086538,22.7163942 C51.7836532,22.6514901 51.6466354,22.6190385 51.4975962,22.6190385 C51.3485569,22.6190385 51.2115391,22.6514901 51.0865385,22.7163942 C50.9615378,22.7812984 50.8545678,22.8738456 50.765625,22.9940385 C50.6766822,23.1142314 50.6081733,23.2572588 50.5600962,23.423125 C50.512019,23.5889912 50.4879808,23.7728836 50.4879808,23.9748077 L50.4879808,23.9748077 Z M55.5,20.5853846 L56.0913462,20.5853846 L56.0913462,21.9844231 L56.0769231,22.6190385 C56.2355777,22.4796147 56.4086529,22.3630293 56.5961538,22.2692788 C56.7836548,22.1755284 56.9759606,22.1286538 57.1730769,22.1286538 C57.3990396,22.1286538 57.5985568,22.1707207 57.7716346,22.2548558 C57.9447124,22.3389908 58.0901436,22.4591819 58.2079327,22.6154327 C58.3257217,22.7716835 58.4146632,22.9591816 58.4747596,23.1779327 C58.5348561,23.3966838 58.5649038,23.6406717 58.5649038,23.9099038 C58.5649038,24.2079823 58.5240389,24.4748065 58.4423077,24.7103846 C58.3605765,24.9459627 58.2500007,25.14548 58.1105769,25.3089423 C57.9711531,25.4724047 57.8100971,25.5962015 57.6274038,25.6803365 C57.4447106,25.7644716 57.2524049,25.8065385 57.0504808,25.8065385 C56.8870184,25.8065385 56.717549,25.7692792 56.5420673,25.6947596 C56.3665857,25.62024 56.2019238,25.5132699 56.0480769,25.3738462 L56.0264423,25.3738462 L55.9759615,25.72 L55.5,25.72 L55.5,20.5853846 Z M56.0913462,24.9411538 C56.2451931,25.0757699 56.3978358,25.1707209 56.5492788,25.2260096 C56.7007219,25.2812984 56.834134,25.3089423 56.9495192,25.3089423 C57.0937507,25.3089423 57.2271628,25.2764907 57.3497596,25.2115865 C57.4723564,25.1466824 57.5781246,25.0553371 57.6670673,24.9375481 C57.7560101,24.819759 57.8257209,24.6743278 57.8762019,24.50125 C57.9266829,24.3281722 57.9519231,24.1334626 57.9519231,23.9171154 C57.9519231,23.7248067 57.9350963,23.5493277 57.9014423,23.3906731 C57.8677883,23.2320184 57.8137023,23.0962025 57.7391827,22.9832212 C57.6646631,22.8702398 57.5685102,22.7825003 57.4507212,22.72 C57.3329321,22.6574997 57.1923085,22.62625 57.0288462,22.62625 C56.7451909,22.62625 56.432694,22.7849023 56.0913462,23.1022115 L56.0913462,24.9411538 Z M59.2427885,23.9748077 C59.2427885,23.6863447 59.2872592,23.4279338 59.3762019,23.1995673 C59.4651447,22.9712008 59.582932,22.7776931 59.7295673,22.6190385 C59.8762027,22.4603838 60.0432683,22.3389908 60.2307692,22.2548558 C60.4182702,22.1707207 60.6129798,22.1286538 60.8149038,22.1286538 C61.0360588,22.1286538 61.2343741,22.167115 61.4098558,22.2440385 C61.5853374,22.3209619 61.7319706,22.4315377 61.8497596,22.5757692 C61.9675487,22.7200007 62.057692,22.8930759 62.1201923,23.095 C62.1826926,23.2969241 62.2139423,23.5228834 62.2139423,23.7728846 C62.2139423,23.902693 62.2067308,24.010865 62.1923077,24.0974038 L59.8269231,24.0974038 C59.8509617,24.4772134 59.967547,24.7776912 60.1766827,24.9988462 C60.3858184,25.2200011 60.6586522,25.3305769 60.9951923,25.3305769 C61.1634624,25.3305769 61.3185089,25.3053368 61.4603365,25.2548558 C61.6021642,25.2043747 61.7379801,25.1382696 61.8677885,25.0565385 L62.0769231,25.4459615 C61.9230762,25.5421159 61.7524048,25.6262496 61.5649038,25.6983654 C61.3774029,25.7704811 61.1634627,25.8065385 60.9230769,25.8065385 C60.6874988,25.8065385 60.4675491,25.7644716 60.2632212,25.6803365 C60.0588932,25.5962015 59.8810104,25.4760104 59.7295673,25.3197596 C59.5781242,25.1635088 59.459135,24.972405 59.3725962,24.7464423 C59.2860573,24.5204796 59.2427885,24.2632707 59.2427885,23.9748077 L59.2427885,23.9748077 Z M61.6947115,23.7079808 C61.6947115,23.347402 61.6189911,23.0721644 61.4675481,22.8822596 C61.316105,22.6923548 61.1033668,22.5974038 60.8293269,22.5974038 C60.7043263,22.5974038 60.5853371,22.622644 60.4723558,22.673125 C60.3593744,22.723606 60.257212,22.7957207 60.1658654,22.8894712 C60.0745188,22.9832216 59.9987984,23.0986051 59.9387019,23.235625 C59.8786055,23.3726449 59.8389424,23.5300953 59.8197115,23.7079808 L61.6947115,23.7079808 Z M64.2764423,23.9748077 C64.2764423,23.681537 64.320913,23.4207223 64.4098558,23.1923558 C64.4987985,22.9639892 64.6177877,22.7704816 64.7668269,22.6118269 C64.9158661,22.4531723 65.0877394,22.3329812 65.2824519,22.25125 C65.4771644,22.1695188 65.6826912,22.1286538 65.8990385,22.1286538 C66.1153857,22.1286538 66.3209125,22.1695188 66.515625,22.25125 C66.7103375,22.3329812 66.8822108,22.4531723 67.03125,22.6118269 C67.1802892,22.7704816 67.2992784,22.9639892 67.3882212,23.1923558 C67.4771639,23.4207223 67.5216346,23.681537 67.5216346,23.9748077 C67.5216346,24.2632707 67.4771639,24.5216816 67.3882212,24.7500481 C67.2992784,24.9784146 67.1802892,25.1707204 67.03125,25.3269712 C66.8822108,25.4832219 66.7103375,25.6022111 66.515625,25.6839423 C66.3209125,25.7656735 66.1153857,25.8065385 65.8990385,25.8065385 C65.6826912,25.8065385 65.4771644,25.7656735 65.2824519,25.6839423 C65.0877394,25.6022111 64.9158661,25.4832219 64.7668269,25.3269712 C64.6177877,25.1707204 64.4987985,24.9784146 64.4098558,24.7500481 C64.320913,24.5216816 64.2764423,24.2632707 64.2764423,23.9748077 L64.2764423,23.9748077 Z M64.8894231,23.9748077 C64.8894231,24.1767318 64.9134613,24.3594223 64.9615385,24.5228846 C65.0096156,24.686347 65.0781246,24.8269706 65.1670673,24.9447596 C65.2560101,25.0625487 65.3629801,25.1538939 65.4879808,25.2187981 C65.6129814,25.2837022 65.7499993,25.3161538 65.8990385,25.3161538 C66.0480777,25.3161538 66.1850955,25.2837022 66.3100962,25.2187981 C66.4350968,25.1538939 66.5420669,25.0625487 66.6310096,24.9447596 C66.7199524,24.8269706 66.7884613,24.686347 66.8365385,24.5228846 C66.8846156,24.3594223 66.9086538,24.1767318 66.9086538,23.9748077 C66.9086538,23.7728836 66.8846156,23.5889912 66.8365385,23.423125 C66.7884613,23.2572588 66.7199524,23.1142314 66.6310096,22.9940385 C66.5420669,22.8738456 66.4350968,22.7812984 66.3100962,22.7163942 C66.1850955,22.6514901 66.0480777,22.6190385 65.8990385,22.6190385 C65.7499993,22.6190385 65.6129814,22.6514901 65.4879808,22.7163942 C65.3629801,22.7812984 65.2560101,22.8738456 65.1670673,22.9940385 C65.0781246,23.1142314 65.0096156,23.2572588 64.9615385,23.423125 C64.9134613,23.5889912 64.8894231,23.7728836 64.8894231,23.9748077 L64.8894231,23.9748077 Z M68.4447115,22.2151923 L68.9350962,22.2151923 L68.9855769,22.8498077 L69.0072115,22.8498077 C69.1274044,22.6286527 69.2728357,22.4531737 69.4435096,22.3233654 C69.6141835,22.193557 69.8004798,22.1286538 70.0024038,22.1286538 C70.1418276,22.1286538 70.2668264,22.1526921 70.3774038,22.2007692 L70.2620192,22.72 C70.2043266,22.7007691 70.1514425,22.6863462 70.1033654,22.6767308 C70.0552882,22.6671153 69.9951927,22.6623077 69.9230769,22.6623077 C69.7740377,22.6623077 69.6189912,22.7224032 69.4579327,22.8425962 C69.2968742,22.9627891 69.1562506,23.1719216 69.0360577,23.47 L69.0360577,25.72 L68.4447115,25.72 L68.4447115,22.2151923 Z M72.4038462,22.2151923 L72.8942308,22.2151923 L72.9447115,22.72 L72.9663462,22.72 C73.1346162,22.5517299 73.3112972,22.4111063 73.4963942,22.298125 C73.6814913,22.1851437 73.8966334,22.1286538 74.1418269,22.1286538 C74.5120211,22.1286538 74.7824511,22.2440373 74.953125,22.4748077 C75.1237989,22.7055781 75.2091346,23.0469208 75.2091346,23.4988462 L75.2091346,25.72 L74.6177885,25.72 L74.6177885,23.5781731 C74.6177885,23.2464406 74.5649044,23.0072603 74.4591346,22.860625 C74.3533649,22.7139897 74.1850973,22.6406731 73.9543269,22.6406731 C73.7716337,22.6406731 73.6105776,22.6863457 73.4711538,22.7776923 C73.3317301,22.8690389 73.1730778,23.003653 72.9951923,23.1815385 L72.9951923,25.72 L72.4038462,25.72 L72.4038462,22.2151923 Z M76.0889423,23.9748077 C76.0889423,23.681537 76.133413,23.4207223 76.2223558,23.1923558 C76.3112985,22.9639892 76.4302877,22.7704816 76.5793269,22.6118269 C76.7283661,22.4531723 76.9002394,22.3329812 77.0949519,22.25125 C77.2896644,22.1695188 77.4951912,22.1286538 77.7115385,22.1286538 C77.9278857,22.1286538 78.1334125,22.1695188 78.328125,22.25125 C78.5228375,22.3329812 78.6947108,22.4531723 78.84375,22.6118269 C78.9927892,22.7704816 79.1117784,22.9639892 79.2007212,23.1923558 C79.2896639,23.4207223 79.3341346,23.681537 79.3341346,23.9748077 C79.3341346,24.2632707 79.2896639,24.5216816 79.2007212,24.7500481 C79.1117784,24.9784146 78.9927892,25.1707204 78.84375,25.3269712 C78.6947108,25.4832219 78.5228375,25.6022111 78.328125,25.6839423 C78.1334125,25.7656735 77.9278857,25.8065385 77.7115385,25.8065385 C77.4951912,25.8065385 77.2896644,25.7656735 77.0949519,25.6839423 C76.9002394,25.6022111 76.7283661,25.4832219 76.5793269,25.3269712 C76.4302877,25.1707204 76.3112985,24.9784146 76.2223558,24.7500481 C76.133413,24.5216816 76.0889423,24.2632707 76.0889423,23.9748077 L76.0889423,23.9748077 Z M76.7019231,23.9748077 C76.7019231,24.1767318 76.7259613,24.3594223 76.7740385,24.5228846 C76.8221156,24.686347 76.8906246,24.8269706 76.9795673,24.9447596 C77.0685101,25.0625487 77.1754801,25.1538939 77.3004808,25.2187981 C77.4254814,25.2837022 77.5624993,25.3161538 77.7115385,25.3161538 C77.8605777,25.3161538 77.9975955,25.2837022 78.1225962,25.2187981 C78.2475968,25.1538939 78.3545669,25.0625487 78.4435096,24.9447596 C78.5324524,24.8269706 78.6009613,24.686347 78.6490385,24.5228846 C78.6971156,24.3594223 78.7211538,24.1767318 78.7211538,23.9748077 C78.7211538,23.7728836 78.6971156,23.5889912 78.6490385,23.423125 C78.6009613,23.2572588 78.5324524,23.1142314 78.4435096,22.9940385 C78.3545669,22.8738456 78.2475968,22.7812984 78.1225962,22.7163942 C77.9975955,22.6514901 77.8605777,22.6190385 77.7115385,22.6190385 C77.5624993,22.6190385 77.4254814,22.6514901 77.3004808,22.7163942 C77.1754801,22.7812984 77.0685101,22.8738456 76.9795673,22.9940385 C76.8906246,23.1142314 76.8221156,23.2572588 76.7740385,23.423125 C76.7259613,23.5889912 76.7019231,23.7728836 76.7019231,23.9748077 L76.7019231,23.9748077 Z M80.3581731,22.6983654 L79.8389423,22.6983654 L79.8389423,22.25125 L80.3870192,22.2151923 L80.4591346,21.2344231 L80.9567308,21.2344231 L80.9567308,22.2151923 L81.9014423,22.2151923 L81.9014423,22.6983654 L80.9567308,22.6983654 L80.9567308,24.6454808 C80.9567308,24.861828 80.9963938,25.0288936 81.0757212,25.1466827 C81.1550485,25.2644717 81.2956721,25.3233654 81.4975962,25.3233654 C81.5600965,25.3233654 81.6274035,25.3137501 81.6995192,25.2945192 C81.771635,25.2752884 81.8365382,25.253654 81.8942308,25.2296154 L82.0096154,25.6767308 C81.9134611,25.7103848 81.8088948,25.7404326 81.6959135,25.766875 C81.5829321,25.7933174 81.4711544,25.8065385 81.3605769,25.8065385 C81.173076,25.8065385 81.0156256,25.7776926 80.8882212,25.72 C80.7608167,25.6623074 80.6574523,25.5829813 80.578125,25.4820192 C80.4987977,25.3810572 80.4423079,25.2584623 80.4086538,25.1142308 C80.3749998,24.9699993 80.3581731,24.811347 80.3581731,24.6382692 L80.3581731,22.6983654 Z M84.2524038,22.6983654 L83.7331731,22.6983654 L83.7331731,22.25125 L84.28125,22.2151923 L84.3533654,21.2344231 L84.8509615,21.2344231 L84.8509615,22.2151923 L85.7956731,22.2151923 L85.7956731,22.6983654 L84.8509615,22.6983654 L84.8509615,24.6454808 C84.8509615,24.861828 84.8906246,25.0288936 84.9699519,25.1466827 C85.0492792,25.2644717 85.1899028,25.3233654 85.3918269,25.3233654 C85.4543272,25.3233654 85.5216343,25.3137501 85.59375,25.2945192 C85.6658657,25.2752884 85.7307689,25.253654 85.7884615,25.2296154 L85.9038462,25.6767308 C85.8076918,25.7103848 85.7031256,25.7404326 85.5901442,25.766875 C85.4771629,25.7933174 85.3653852,25.8065385 85.2548077,25.8065385 C85.0673068,25.8065385 84.9098564,25.7776926 84.7824519,25.72 C84.6550474,25.6623074 84.5516831,25.5829813 84.4723558,25.4820192 C84.3930284,25.3810572 84.3365386,25.2584623 84.3028846,25.1142308 C84.2692306,24.9699993 84.2524038,24.811347 84.2524038,24.6382692 L84.2524038,22.6983654 Z M86.2572115,23.9748077 C86.2572115,23.681537 86.3016822,23.4207223 86.390625,23.1923558 C86.4795678,22.9639892 86.5985569,22.7704816 86.7475962,22.6118269 C86.8966354,22.4531723 87.0685086,22.3329812 87.2632212,22.25125 C87.4579337,22.1695188 87.6634605,22.1286538 87.8798077,22.1286538 C88.0961549,22.1286538 88.3016817,22.1695188 88.4963942,22.25125 C88.6911067,22.3329812 88.86298,22.4531723 89.0120192,22.6118269 C89.1610584,22.7704816 89.2800476,22.9639892 89.3689904,23.1923558 C89.4579331,23.4207223 89.5024038,23.681537 89.5024038,23.9748077 C89.5024038,24.2632707 89.4579331,24.5216816 89.3689904,24.7500481 C89.2800476,24.9784146 89.1610584,25.1707204 89.0120192,25.3269712 C88.86298,25.4832219 88.6911067,25.6022111 88.4963942,25.6839423 C88.3016817,25.7656735 88.0961549,25.8065385 87.8798077,25.8065385 C87.6634605,25.8065385 87.4579337,25.7656735 87.2632212,25.6839423 C87.0685086,25.6022111 86.8966354,25.4832219 86.7475962,25.3269712 C86.5985569,25.1707204 86.4795678,24.9784146 86.390625,24.7500481 C86.3016822,24.5216816 86.2572115,24.2632707 86.2572115,23.9748077 L86.2572115,23.9748077 Z M86.8701923,23.9748077 C86.8701923,24.1767318 86.8942305,24.3594223 86.9423077,24.5228846 C86.9903849,24.686347 87.0588938,24.8269706 87.1478365,24.9447596 C87.2367793,25.0625487 87.3437494,25.1538939 87.46875,25.2187981 C87.5937506,25.2837022 87.7307685,25.3161538 87.8798077,25.3161538 C88.0288469,25.3161538 88.1658648,25.2837022 88.2908654,25.2187981 C88.415866,25.1538939 88.5228361,25.0625487 88.6117788,24.9447596 C88.7007216,24.8269706 88.7692305,24.686347 88.8173077,24.5228846 C88.8653849,24.3594223 88.8894231,24.1767318 88.8894231,23.9748077 C88.8894231,23.7728836 88.8653849,23.5889912 88.8173077,23.423125 C88.7692305,23.2572588 88.7007216,23.1142314 88.6117788,22.9940385 C88.5228361,22.8738456 88.415866,22.7812984 88.2908654,22.7163942 C88.1658648,22.6514901 88.0288469,22.6190385 87.8798077,22.6190385 C87.7307685,22.6190385 87.5937506,22.6514901 87.46875,22.7163942 C87.3437494,22.7812984 87.2367793,22.8738456 87.1478365,22.9940385 C87.0588938,23.1142314 86.9903849,23.2572588 86.9423077,23.423125 C86.8942305,23.5889912 86.8701923,23.7728836 86.8701923,23.9748077 L86.8701923,23.9748077 Z M91.8822115,20.5853846 L92.4735577,20.5853846 L92.4735577,21.9844231 L92.4591346,22.6190385 C92.6177893,22.4796147 92.7908644,22.3630293 92.9783654,22.2692788 C93.1658663,22.1755284 93.3581721,22.1286538 93.5552885,22.1286538 C93.7812511,22.1286538 93.9807684,22.1707207 94.1538462,22.2548558 C94.3269239,22.3389908 94.4723552,22.4591819 94.5901442,22.6154327 C94.7079333,22.7716835 94.7968747,22.9591816 94.8569712,23.1779327 C94.9170676,23.3966838 94.9471154,23.6406717 94.9471154,23.9099038 C94.9471154,24.2079823 94.9062504,24.4748065 94.8245192,24.7103846 C94.7427881,24.9459627 94.6322122,25.14548 94.4927885,25.3089423 C94.3533647,25.4724047 94.1923086,25.5962015 94.0096154,25.6803365 C93.8269222,25.7644716 93.6346164,25.8065385 93.4326923,25.8065385 C93.26923,25.8065385 93.0997605,25.7692792 92.9242788,25.6947596 C92.7487972,25.62024 92.5841354,25.5132699 92.4302885,25.3738462 L92.4086538,25.3738462 L92.3581731,25.72 L91.8822115,25.72 L91.8822115,20.5853846 Z M92.4735577,24.9411538 C92.6274046,25.0757699 92.7800473,25.1707209 92.9314904,25.2260096 C93.0829334,25.2812984 93.2163456,25.3089423 93.3317308,25.3089423 C93.4759623,25.3089423 93.6093744,25.2764907 93.7319712,25.2115865 C93.8545679,25.1466824 93.9603361,25.0553371 94.0492788,24.9375481 C94.1382216,24.819759 94.2079324,24.6743278 94.2584135,24.50125 C94.3088945,24.3281722 94.3341346,24.1334626 94.3341346,23.9171154 C94.3341346,23.7248067 94.3173079,23.5493277 94.2836538,23.3906731 C94.2499998,23.2320184 94.1959138,23.0962025 94.1213942,22.9832212 C94.0468746,22.8702398 93.9507217,22.7825003 93.8329327,22.72 C93.7151436,22.6574997 93.57452,22.62625 93.4110577,22.62625 C93.1274024,22.62625 92.8149056,22.7849023 92.4735577,23.1022115 L92.4735577,24.9411538 Z M95.625,23.9748077 C95.625,23.6863447 95.6694707,23.4279338 95.7584135,23.1995673 C95.8473562,22.9712008 95.9651435,22.7776931 96.1117788,22.6190385 C96.2584142,22.4603838 96.4254798,22.3389908 96.6129808,22.2548558 C96.8004817,22.1707207 96.9951913,22.1286538 97.1971154,22.1286538 C97.4182703,22.1286538 97.6165857,22.167115 97.7920673,22.2440385 C97.967549,22.3209619 98.1141821,22.4315377 98.2319712,22.5757692 C98.3497602,22.7200007 98.4399035,22.8930759 98.5024038,23.095 C98.5649042,23.2969241 98.5961538,23.5228834 98.5961538,23.7728846 C98.5961538,23.902693 98.5889424,24.010865 98.5745192,24.0974038 L96.2091346,24.0974038 C96.2331732,24.4772134 96.3497586,24.7776912 96.5588942,24.9988462 C96.7680299,25.2200011 97.0408637,25.3305769 97.3774038,25.3305769 C97.5456739,25.3305769 97.7007204,25.3053368 97.8425481,25.2548558 C97.9843757,25.2043747 98.1201917,25.1382696 98.25,25.0565385 L98.4591346,25.4459615 C98.3052877,25.5421159 98.1346163,25.6262496 97.9471154,25.6983654 C97.7596144,25.7704811 97.5456743,25.8065385 97.3052885,25.8065385 C97.0697104,25.8065385 96.8497606,25.7644716 96.6454327,25.6803365 C96.4411047,25.5962015 96.2632219,25.4760104 96.1117788,25.3197596 C95.9603358,25.1635088 95.8413466,24.972405 95.7548077,24.7464423 C95.6682688,24.5204796 95.625,24.2632707 95.625,23.9748077 L95.625,23.9748077 Z M98.0769231,23.7079808 C98.0769231,23.347402 98.0012027,23.0721644 97.8497596,22.8822596 C97.6983166,22.6923548 97.4855783,22.5974038 97.2115385,22.5974038 C97.0865378,22.5974038 96.9675486,22.622644 96.8545673,22.673125 C96.741586,22.723606 96.6394235,22.7957207 96.5480769,22.8894712 C96.4567303,22.9832216 96.3810099,23.0986051 96.3209135,23.235625 C96.260817,23.3726449 96.2211539,23.5300953 96.2019231,23.7079808 L98.0769231,23.7079808 Z M99.5480769,25.3594231 C99.5480769,25.2199993 99.5901438,25.1082216 99.6742788,25.0240865 C99.7584139,24.9399515 99.8605763,24.8978846 99.9807692,24.8978846 C100.096154,24.8978846 100.195913,24.9399515 100.280048,25.0240865 C100.364183,25.1082216 100.40625,25.2199993 100.40625,25.3594231 C100.40625,25.4892314 100.364183,25.5962015 100.280048,25.6803365 C100.195913,25.7644716 100.096154,25.8065385 99.9807692,25.8065385 C99.8605763,25.8065385 99.7584139,25.7644716 99.6742788,25.6803365 C99.5901438,25.5962015 99.5480769,25.4892314 99.5480769,25.3594231 L99.5480769,25.3594231 Z M101.963942,25.3594231 C101.963942,25.2199993 102.006009,25.1082216 102.090144,25.0240865 C102.174279,24.9399515 102.276442,24.8978846 102.396635,24.8978846 C102.51202,24.8978846 102.611778,24.9399515 102.695913,25.0240865 C102.780048,25.1082216 102.822115,25.2199993 102.822115,25.3594231 C102.822115,25.4892314 102.780048,25.5962015 102.695913,25.6803365 C102.611778,25.7644716 102.51202,25.8065385 102.396635,25.8065385 C102.276442,25.8065385 102.174279,25.7644716 102.090144,25.6803365 C102.006009,25.5962015 101.963942,25.4892314 101.963942,25.3594231 L101.963942,25.3594231 Z M104.379808,25.3594231 C104.379808,25.2199993 104.421875,25.1082216 104.50601,25.0240865 C104.590145,24.9399515 104.692307,24.8978846 104.8125,24.8978846 C104.927885,24.8978846 105.027644,24.9399515 105.111779,25.0240865 C105.195914,25.1082216 105.237981,25.2199993 105.237981,25.3594231 C105.237981,25.4892314 105.195914,25.5962015 105.111779,25.6803365 C105.027644,25.7644716 104.927885,25.8065385 104.8125,25.8065385 C104.692307,25.8065385 104.590145,25.7644716 104.50601,25.6803365 C104.421875,25.5962015 104.379808,25.4892314 104.379808,25.3594231 L104.379808,25.3594231 Z" id="To-be-or-not-to-be…" fill="#444444" sketch:type="MSShapeGroup"></path>
                        <g id="Add-Icon" transform="translate(41.128927, 1.338723)" stroke-linecap="square" stroke-width="0.5" stroke="#ADADAD" sketch:type="MSShapeGroup">
                            <path id="Line" d="M0.702058505,0 L0.702058505,1.39692805"></path>
                            <path id="Line-Copy" d="M1.40411701,0.698464026 L0,0.698464026"></path>
                        </g>
                        <path d="M4.38786566,69.1479386 C4.38786566,69.0836411 4.33548429,69.0315279 4.2708559,69.0315279 C4.23930228,69.0315279 4.21071289,69.0439838 4.18965114,69.0641617 L4.18961213,69.0641229 L3.56852438,69.6820307 L2.95547129,69.0721164 C2.9340195,69.0472821 2.90223185,69.0315279 2.86673889,69.0315279 C2.80211051,69.0315279 2.74972914,69.0836411 2.74972914,69.1479386 C2.74972914,69.1791754 2.76213218,69.2075408 2.78229686,69.2284559 L2.78198483,69.2287664 L3.48404334,69.9272304 L3.48408234,69.9271916 C3.50537811,69.9491544 3.5352156,69.9628133 3.56829036,69.9628133 L3.56856338,69.9628133 L3.5688364,69.9628133 C3.60195016,69.9628133 3.63170964,69.9491544 3.65304442,69.9271916 L3.65308342,69.9272304 L4.35514193,69.2287664 L4.35510293,69.2287276 C4.37538462,69.2078124 4.38786566,69.1793306 4.38786566,69.1479386 L4.38786566,69.1479386 Z" id="Shape" fill="#C1C1C1" sketch:type="MSShapeGroup" transform="translate(3.568797, 69.497171) rotate(-270.000000) translate(-3.568797, -69.497171) "></path>
                        <path id="Line" stroke="#E6E6E6" stroke-width="0.5" stroke-linecap="square" sketch:type="MSShapeGroup" d="M47.3011918,67.1980598 L102.866811,67.1980598"></path>
                        <path id="Line-Copy-2" stroke="#E6E6E6" stroke-width="0.5" stroke-linecap="square" sketch:type="MSShapeGroup" d="M17.6391448,67.1980598 L40.4053759,67.1980598"></path>
                    </g>
                    <g id="Line-+-Line-Copy-5" transform="translate(34.615385, 18.720000)" stroke="#656363" stroke-linecap="square" sketch:type="MSShapeGroup">
                        <path d="M1.08173077,1.08 L19.8317308,1.08" id="Line" stroke-width="2.16346154"></path>
                        <path d="M0.360576923,3.96 L20.5528846,3.96" id="Line-Copy-5" stroke-width="0.721153846"></path>
                    </g>
                    <g id="Line-+-Line-Copy-6" transform="translate(34.615385, 37.440000)" stroke="#656363" stroke-linecap="square" sketch:type="MSShapeGroup">
                        <path d="M1.08173077,1.08 L19.8317308,1.08" id="Line" stroke-width="2.16346154"></path>
                        <path d="M0.360576923,3.96 L20.5528846,3.96" id="Line-Copy-5" stroke-width="0.721153846"></path>
                    </g>
                    <g id="Line-+-Line-Copy-8" transform="translate(34.615385, 28.080000)" stroke="#448AC9" stroke-linecap="square" sketch:type="MSShapeGroup">
                        <path d="M1.08173077,1.08 L19.8317308,1.08" id="Line" stroke-width="2.16346154"></path>
                        <path d="M0.360576923,3.96 L20.5528846,3.96" id="Line-Copy-5" stroke-width="0.721153846"></path>
                    </g>
                    <g id="Line-+-Line-Copy-7" transform="translate(34.615385, 46.800000)" stroke="#656363" stroke-linecap="square" sketch:type="MSShapeGroup">
                        <path d="M1.08173077,1.08 L19.8317308,1.08" id="Line" stroke-width="2.16346154"></path>
                        <path d="M0.360576923,3.96 L20.5528846,3.96" id="Line-Copy-5" stroke-width="0.721153846"></path>
                    </g>
                </g>
                <g id="Group" transform="translate(366.000000, 0.000000)" sketch:type="MSShapeGroup">
                    <rect id="body-copy" fill="#FFFFFF" x="1.32231405" y="0.66" width="78.0220821" height="163.975662" rx="12.3111998"></rect>
                    <g id="iPhone-5s-Copy-2" stroke-width="0.661157025" stroke-linejoin="round">
                        <rect id="btn-power" stroke="#8C8C8C" x="53.05879" y="0" width="12.3192761" height="2.45963493" rx="0.410373326"></rect>
                        <rect id="btn-silent" stroke="#8C8C8C" transform="translate(1.523152, 26.646045) rotate(-270.000000) translate(-1.523152, -26.646045) " x="-2.1726313" y="25.4162276" width="7.39156567" height="2.45963493" rx="0.410373326"></rect>
                        <rect id="Rectangle-13" stroke="#8C8C8C" transform="translate(1.728473, 41.198885) rotate(-270.000000) translate(-1.728473, -41.198885) " x="-1.14602495" y="39.764098" width="5.74899552" height="2.86957408" rx="0.410373326"></rect>
                        <rect id="Rectangle-13" stroke="#8C8C8C" transform="translate(1.728473, 54.726877) rotate(-270.000000) translate(-1.728473, -54.726877) " x="-1.14602495" y="53.2920901" width="5.74899552" height="2.86957408" rx="0.410373326"></rect>
                        <rect id="body" stroke="#9F9F9F" fill="#FFFFFF" x="0.907187734" y="0.614908732" width="78.0220821" height="163.975662" rx="12.3111998"></rect>
                        <ellipse id="btn-home" stroke="#8C8C8C" fill="#FFFFFF" cx="39.9182288" cy="151.472518" rx="6.36495933" ry="6.3540569"></ellipse>
                        <rect id="speaker" stroke="#8C8C8C" fill="#FFFFFF" x="33.5532694" y="13.7329617" width="12.7299187" height="1.22981746" rx="1.02593331"></rect>
                    </g>
                    <rect id="Screen" stroke="#BDBDBD" stroke-width="0.661157025" stroke-linejoin="round" fill="#FFFFFF" x="7.27272727" y="22.44" width="65.702806" height="116.42272"></rect>
                    <path d="M12.0727273,61.2056198 L10.7636364,61.2056198 L10.7636364,60.7428099 L13.9371901,60.7428099 L13.9371901,61.2056198 L12.6280992,61.2056198 L12.6280992,65.08 L12.0727273,65.08 L12.0727273,61.2056198 Z M13.9900826,63.48 C13.9900826,63.2111281 14.0308536,62.9720121 14.1123967,62.7626446 C14.1939398,62.5532772 14.3030296,62.3758685 14.4396694,62.2304132 C14.5763092,62.084958 14.7338834,61.9747662 14.9123967,61.8998347 C15.09091,61.8249032 15.2793379,61.787438 15.477686,61.787438 C15.676034,61.787438 15.8644619,61.8249032 16.0429752,61.8998347 C16.2214885,61.9747662 16.3790627,62.084958 16.5157025,62.2304132 C16.6523423,62.3758685 16.7614321,62.5532772 16.8429752,62.7626446 C16.9245183,62.9720121 16.9652893,63.2111281 16.9652893,63.48 C16.9652893,63.7444641 16.9245183,63.9813764 16.8429752,64.1907438 C16.7614321,64.4001112 16.6523423,64.576418 16.5157025,64.7196694 C16.3790627,64.8629208 16.2214885,64.9720106 16.0429752,65.0469421 C15.8644619,65.1218737 15.676034,65.1593388 15.477686,65.1593388 C15.2793379,65.1593388 15.09091,65.1218737 14.9123967,65.0469421 C14.7338834,64.9720106 14.5763092,64.8629208 14.4396694,64.7196694 C14.3030296,64.576418 14.1939398,64.4001112 14.1123967,64.1907438 C14.0308536,63.9813764 13.9900826,63.7444641 13.9900826,63.48 L13.9900826,63.48 Z M14.5520661,63.48 C14.5520661,63.6651249 14.5741045,63.8326163 14.6181818,63.9824793 C14.6622592,64.1323423 14.7250685,64.2612667 14.8066116,64.3692562 C14.8881547,64.4772457 14.9862253,64.5609914 15.1008264,64.6204959 C15.2154276,64.6800003 15.3410461,64.7097521 15.477686,64.7097521 C15.6143258,64.7097521 15.7399443,64.6800003 15.8545455,64.6204959 C15.9691466,64.5609914 16.0672172,64.4772457 16.1487603,64.3692562 C16.2303034,64.2612667 16.2931127,64.1323423 16.3371901,63.9824793 C16.3812674,63.8326163 16.4033058,63.6651249 16.4033058,63.48 C16.4033058,63.2948751 16.3812674,63.1262818 16.3371901,62.9742149 C16.2931127,62.822148 16.2303034,62.6910198 16.1487603,62.5808264 C16.0672172,62.4706331 15.9691466,62.3857854 15.8545455,62.326281 C15.7399443,62.2667766 15.6143258,62.2370248 15.477686,62.2370248 C15.3410461,62.2370248 15.2154276,62.2667766 15.1008264,62.326281 C14.9862253,62.3857854 14.8881547,62.4706331 14.8066116,62.5808264 C14.7250685,62.6910198 14.6622592,62.822148 14.6181818,62.9742149 C14.5741045,63.1262818 14.5520661,63.2948751 14.5520661,63.48 L14.5520661,63.48 Z M19.1471074,60.372562 L19.6892562,60.372562 L19.6892562,61.6552066 L19.6760331,62.2370248 C19.8214883,62.1092005 19.9801644,62.0023145 20.1520661,61.9163636 C20.3239678,61.8304128 20.5002746,61.787438 20.6809917,61.787438 C20.8881553,61.787438 21.0710736,61.8260051 21.2297521,61.9031405 C21.3884305,61.9802759 21.5217625,62.0904676 21.6297521,62.233719 C21.7377416,62.3769704 21.8192835,62.5488695 21.8743802,62.7494215 C21.9294769,62.9499735 21.9570248,63.1736627 21.9570248,63.4204959 C21.9570248,63.6937755 21.9195596,63.9384011 21.8446281,64.1543802 C21.7696966,64.3703592 21.6683202,64.5532775 21.5404959,64.7031405 C21.4126715,64.8530035 21.2650146,64.966501 21.0975207,65.0436364 C20.9300267,65.1207717 20.7537199,65.1593388 20.568595,65.1593388 C20.418732,65.1593388 20.2633617,65.1251794 20.1024793,65.0568595 C19.941597,64.9885396 19.7906343,64.890469 19.6495868,64.7626446 L19.6297521,64.7626446 L19.5834711,65.08 L19.1471074,65.08 L19.1471074,60.372562 Z M19.6892562,64.3659504 C19.8303037,64.489367 19.9702472,64.5764185 20.1090909,64.6271074 C20.2479346,64.6777964 20.3702474,64.7031405 20.4760331,64.7031405 C20.6082651,64.7031405 20.730578,64.6733887 20.8429752,64.6138843 C20.9553725,64.5543799 21.0523412,64.4706341 21.1338843,64.3626446 C21.2154274,64.2546551 21.2793386,64.1213231 21.3256198,63.9626446 C21.3719011,63.8039661 21.3950413,63.6254555 21.3950413,63.4271074 C21.3950413,63.250798 21.3796145,63.0899181 21.3487603,62.9444628 C21.3179062,62.7990075 21.2683199,62.6744909 21.2,62.5709091 C21.1316801,62.4673273 21.0435267,62.3868873 20.9355372,62.3295868 C20.8275477,62.2722862 20.6986233,62.2436364 20.5487603,62.2436364 C20.2887039,62.2436364 20.0022054,62.3890895 19.6892562,62.68 L19.6892562,64.3659504 Z M22.5785124,63.48 C22.5785124,63.2155359 22.6192833,62.9786236 22.7008264,62.7692562 C22.7823696,62.5598888 22.8903575,62.3824801 23.0247934,62.2370248 C23.1592293,62.0915695 23.3123958,61.9802759 23.4842975,61.9031405 C23.6561992,61.8260051 23.8347098,61.787438 24.0198347,61.787438 C24.2225905,61.787438 24.4044069,61.8226994 24.5652893,61.8932231 C24.7261716,61.9637469 24.8606055,62.0651233 24.968595,62.1973554 C25.0765846,62.3295874 25.1592284,62.4882635 25.2165289,62.6733884 C25.2738295,62.8585133 25.3024793,63.0656738 25.3024793,63.294876 C25.3024793,63.4138849 25.2958678,63.5130575 25.2826446,63.5923967 L23.1140496,63.5923967 C23.1360883,63.9406078 23.2429742,64.2160871 23.4347107,64.418843 C23.6264472,64.6215988 23.8765825,64.7229752 24.185124,64.7229752 C24.3393947,64.7229752 24.481542,64.6998349 24.6115702,64.6535537 C24.7415984,64.6072725 24.8661151,64.546667 24.985124,64.4717355 L25.1768595,64.8287603 C25.035812,64.916915 24.8793397,64.9940493 24.707438,65.0601653 C24.5355363,65.1262813 24.339395,65.1593388 24.1190083,65.1593388 C23.9030292,65.1593388 23.7013783,65.1207717 23.5140496,65.0436364 C23.3267208,64.966501 23.1636371,64.8563093 23.0247934,64.7130579 C22.8859497,64.5698064 22.7768599,64.3946016 22.6975207,64.187438 C22.6181814,63.9802744 22.5785124,63.7444641 22.5785124,63.48 L22.5785124,63.48 Z M24.8264463,63.2353719 C24.8264463,62.9047917 24.7570255,62.6524527 24.6181818,62.4783471 C24.4793381,62.3042416 24.2842988,62.2171901 24.0330579,62.2171901 C23.9184567,62.2171901 23.8093669,62.2403303 23.7057851,62.2866116 C23.6022033,62.3328928 23.5085404,62.3990078 23.4247934,62.4849587 C23.3410464,62.5709095 23.2716256,62.6766936 23.2165289,62.802314 C23.1614322,62.9279345 23.125069,63.0722857 23.107438,63.2353719 L24.8264463,63.2353719 Z M27.1933884,63.48 C27.1933884,63.2111281 27.2341594,62.9720121 27.3157025,62.7626446 C27.3972456,62.5532772 27.5063354,62.3758685 27.6429752,62.2304132 C27.779615,62.084958 27.9371892,61.9747662 28.1157025,61.8998347 C28.2942158,61.8249032 28.4826436,61.787438 28.6809917,61.787438 C28.8793398,61.787438 29.0677677,61.8249032 29.246281,61.8998347 C29.4247943,61.9747662 29.5823685,62.084958 29.7190083,62.2304132 C29.8556481,62.3758685 29.9647379,62.5532772 30.046281,62.7626446 C30.1278241,62.9720121 30.168595,63.2111281 30.168595,63.48 C30.168595,63.7444641 30.1278241,63.9813764 30.046281,64.1907438 C29.9647379,64.4001112 29.8556481,64.576418 29.7190083,64.7196694 C29.5823685,64.8629208 29.4247943,64.9720106 29.246281,65.0469421 C29.0677677,65.1218737 28.8793398,65.1593388 28.6809917,65.1593388 C28.4826436,65.1593388 28.2942158,65.1218737 28.1157025,65.0469421 C27.9371892,64.9720106 27.779615,64.8629208 27.6429752,64.7196694 C27.5063354,64.576418 27.3972456,64.4001112 27.3157025,64.1907438 C27.2341594,63.9813764 27.1933884,63.7444641 27.1933884,63.48 L27.1933884,63.48 Z M27.7553719,63.48 C27.7553719,63.6651249 27.7774102,63.8326163 27.8214876,63.9824793 C27.865565,64.1323423 27.9283742,64.2612667 28.0099174,64.3692562 C28.0914605,64.4772457 28.1895311,64.5609914 28.3041322,64.6204959 C28.4187334,64.6800003 28.5443519,64.7097521 28.6809917,64.7097521 C28.8176315,64.7097521 28.9432501,64.6800003 29.0578512,64.6204959 C29.1724524,64.5609914 29.270523,64.4772457 29.3520661,64.3692562 C29.4336092,64.2612667 29.4964185,64.1323423 29.5404959,63.9824793 C29.5845732,63.8326163 29.6066116,63.6651249 29.6066116,63.48 C29.6066116,63.2948751 29.5845732,63.1262818 29.5404959,62.9742149 C29.4964185,62.822148 29.4336092,62.6910198 29.3520661,62.5808264 C29.270523,62.4706331 29.1724524,62.3857854 29.0578512,62.326281 C28.9432501,62.2667766 28.8176315,62.2370248 28.6809917,62.2370248 C28.5443519,62.2370248 28.4187334,62.2667766 28.3041322,62.326281 C28.1895311,62.3857854 28.0914605,62.4706331 28.0099174,62.5808264 C27.9283742,62.6910198 27.865565,62.822148 27.8214876,62.9742149 C27.7774102,63.1262818 27.7553719,63.2948751 27.7553719,63.48 L27.7553719,63.48 Z M31.014876,61.8667769 L31.4644628,61.8667769 L31.5107438,62.448595 L31.5305785,62.448595 C31.6407719,62.2458392 31.7741039,62.0849593 31.9305785,61.9659504 C32.0870531,61.8469416 32.2578503,61.787438 32.4429752,61.787438 C32.5707995,61.787438 32.6853989,61.8094764 32.7867769,61.8535537 L32.6809917,62.3295868 C32.6280989,62.3119558 32.5796145,62.2987328 32.5355372,62.2899174 C32.4914598,62.2811019 32.436364,62.2766942 32.3702479,62.2766942 C32.2336081,62.2766942 32.0914608,62.3317901 31.9438017,62.4419835 C31.7961425,62.5521769 31.6672182,62.7439105 31.5570248,63.0171901 L31.5570248,65.08 L31.014876,65.08 L31.014876,61.8667769 Z M34.6446281,61.8667769 L35.0942149,61.8667769 L35.1404959,62.3295868 L35.1603306,62.3295868 C35.3146013,62.175316 35.4765832,62.0463917 35.646281,61.9428099 C35.8159788,61.8392281 36.013222,61.787438 36.2380165,61.787438 C36.5774122,61.787438 36.8253436,61.8932221 36.9818182,62.1047934 C37.1382928,62.3163647 37.2165289,62.6293092 37.2165289,63.0436364 L37.2165289,65.08 L36.6743802,65.08 L36.6743802,63.1163636 C36.6743802,62.8122299 36.6258958,62.5929483 36.5289256,62.4585124 C36.4319554,62.3240765 36.277687,62.2568595 36.0661157,62.2568595 C35.8986218,62.2568595 35.7509648,62.2987324 35.6231405,62.3824793 C35.4953162,62.4662263 35.3498631,62.5896411 35.1867769,62.7527273 L35.1867769,65.08 L34.6446281,65.08 L34.6446281,61.8667769 Z M38.0231405,63.48 C38.0231405,63.2111281 38.0639114,62.9720121 38.1454545,62.7626446 C38.2269977,62.5532772 38.3360875,62.3758685 38.4727273,62.2304132 C38.6093671,62.084958 38.7669413,61.9747662 38.9454545,61.8998347 C39.1239678,61.8249032 39.3123957,61.787438 39.5107438,61.787438 C39.7090919,61.787438 39.8975198,61.8249032 40.0760331,61.8998347 C40.2545463,61.9747662 40.4121205,62.084958 40.5487603,62.2304132 C40.6854001,62.3758685 40.79449,62.5532772 40.8760331,62.7626446 C40.9575762,62.9720121 40.9983471,63.2111281 40.9983471,63.48 C40.9983471,63.7444641 40.9575762,63.9813764 40.8760331,64.1907438 C40.79449,64.4001112 40.6854001,64.576418 40.5487603,64.7196694 C40.4121205,64.8629208 40.2545463,64.9720106 40.0760331,65.0469421 C39.8975198,65.1218737 39.7090919,65.1593388 39.5107438,65.1593388 C39.3123957,65.1593388 39.1239678,65.1218737 38.9454545,65.0469421 C38.7669413,64.9720106 38.6093671,64.8629208 38.4727273,64.7196694 C38.3360875,64.576418 38.2269977,64.4001112 38.1454545,64.1907438 C38.0639114,63.9813764 38.0231405,63.7444641 38.0231405,63.48 L38.0231405,63.48 Z M38.585124,63.48 C38.585124,63.6651249 38.6071623,63.8326163 38.6512397,63.9824793 C38.695317,64.1323423 38.7581263,64.2612667 38.8396694,64.3692562 C38.9212125,64.4772457 39.0192832,64.5609914 39.1338843,64.6204959 C39.2484854,64.6800003 39.374104,64.7097521 39.5107438,64.7097521 C39.6473836,64.7097521 39.7730022,64.6800003 39.8876033,64.6204959 C40.0022044,64.5609914 40.1002751,64.4772457 40.1818182,64.3692562 C40.2633613,64.2612667 40.3261706,64.1323423 40.3702479,63.9824793 C40.4143253,63.8326163 40.4363636,63.6651249 40.4363636,63.48 C40.4363636,63.2948751 40.4143253,63.1262818 40.3702479,62.9742149 C40.3261706,62.822148 40.2633613,62.6910198 40.1818182,62.5808264 C40.1002751,62.4706331 40.0022044,62.3857854 39.8876033,62.326281 C39.7730022,62.2667766 39.6473836,62.2370248 39.5107438,62.2370248 C39.374104,62.2370248 39.2484854,62.2667766 39.1338843,62.326281 C39.0192832,62.3857854 38.9212125,62.4706331 38.8396694,62.5808264 C38.7581263,62.6910198 38.695317,62.822148 38.6512397,62.9742149 C38.6071623,63.1262818 38.585124,63.2948751 38.585124,63.48 L38.585124,63.48 Z M41.9371901,62.3097521 L41.461157,62.3097521 L41.461157,61.8998347 L41.9636364,61.8667769 L42.0297521,60.9676033 L42.4859504,60.9676033 L42.4859504,61.8667769 L43.3520661,61.8667769 L43.3520661,62.3097521 L42.4859504,62.3097521 L42.4859504,64.094876 C42.4859504,64.2932241 42.5223137,64.4463906 42.5950413,64.5543802 C42.667769,64.6623697 42.7966933,64.7163636 42.9818182,64.7163636 C43.0391187,64.7163636 43.1008261,64.7075483 43.1669421,64.6899174 C43.2330582,64.6722864 43.2925617,64.6524519 43.3454545,64.6304132 L43.4512397,65.0403306 C43.363085,65.0711847 43.2672181,65.0987327 43.1636364,65.1229752 C43.0600546,65.1472178 42.9575763,65.1593388 42.8561983,65.1593388 C42.6842967,65.1593388 42.5399455,65.1328928 42.4231405,65.08 C42.3063355,65.0271072 42.2115706,64.9543806 42.138843,64.8618182 C42.0661153,64.7692557 42.0143252,64.6568602 41.9834711,64.5246281 C41.9526169,64.392396 41.9371901,64.2469429 41.9371901,64.0882645 L41.9371901,62.3097521 Z M45.507438,62.3097521 L45.031405,62.3097521 L45.031405,61.8998347 L45.5338843,61.8667769 L45.6,60.9676033 L46.0561983,60.9676033 L46.0561983,61.8667769 L46.922314,61.8667769 L46.922314,62.3097521 L46.0561983,62.3097521 L46.0561983,64.094876 C46.0561983,64.2932241 46.0925616,64.4463906 46.1652893,64.5543802 C46.2380169,64.6623697 46.3669412,64.7163636 46.5520661,64.7163636 C46.6093667,64.7163636 46.671074,64.7075483 46.7371901,64.6899174 C46.8033061,64.6722864 46.8628097,64.6524519 46.9157025,64.6304132 L47.0214876,65.0403306 C46.9333329,65.0711847 46.8374661,65.0987327 46.7338843,65.1229752 C46.6303025,65.1472178 46.5278242,65.1593388 46.4264463,65.1593388 C46.2545446,65.1593388 46.1101934,65.1328928 45.9933884,65.08 C45.8765834,65.0271072 45.7818185,64.9543806 45.7090909,64.8618182 C45.6363633,64.7692557 45.5845732,64.6568602 45.553719,64.5246281 C45.5228649,64.392396 45.507438,64.2469429 45.507438,64.0882645 L45.507438,62.3097521 Z M47.3454545,63.48 C47.3454545,63.2111281 47.3862255,62.9720121 47.4677686,62.7626446 C47.5493117,62.5532772 47.6584015,62.3758685 47.7950413,62.2304132 C47.9316811,62.084958 48.0892553,61.9747662 48.2677686,61.8998347 C48.4462819,61.8249032 48.6347098,61.787438 48.8330579,61.787438 C49.031406,61.787438 49.2198338,61.8249032 49.3983471,61.8998347 C49.5768604,61.9747662 49.7344346,62.084958 49.8710744,62.2304132 C50.0077142,62.3758685 50.116804,62.5532772 50.1983471,62.7626446 C50.2798902,62.9720121 50.3206612,63.2111281 50.3206612,63.48 C50.3206612,63.7444641 50.2798902,63.9813764 50.1983471,64.1907438 C50.116804,64.4001112 50.0077142,64.576418 49.8710744,64.7196694 C49.7344346,64.8629208 49.5768604,64.9720106 49.3983471,65.0469421 C49.2198338,65.1218737 49.031406,65.1593388 48.8330579,65.1593388 C48.6347098,65.1593388 48.4462819,65.1218737 48.2677686,65.0469421 C48.0892553,64.9720106 47.9316811,64.8629208 47.7950413,64.7196694 C47.6584015,64.576418 47.5493117,64.4001112 47.4677686,64.1907438 C47.3862255,63.9813764 47.3454545,63.7444641 47.3454545,63.48 L47.3454545,63.48 Z M47.907438,63.48 C47.907438,63.6651249 47.9294764,63.8326163 47.9735537,63.9824793 C48.0176311,64.1323423 48.0804404,64.2612667 48.1619835,64.3692562 C48.2435266,64.4772457 48.3415972,64.5609914 48.4561983,64.6204959 C48.5707995,64.6800003 48.696418,64.7097521 48.8330579,64.7097521 C48.9696977,64.7097521 49.0953162,64.6800003 49.2099174,64.6204959 C49.3245185,64.5609914 49.4225891,64.4772457 49.5041322,64.3692562 C49.5856753,64.2612667 49.6484846,64.1323423 49.692562,63.9824793 C49.7366393,63.8326163 49.7586777,63.6651249 49.7586777,63.48 C49.7586777,63.2948751 49.7366393,63.1262818 49.692562,62.9742149 C49.6484846,62.822148 49.5856753,62.6910198 49.5041322,62.5808264 C49.4225891,62.4706331 49.3245185,62.3857854 49.2099174,62.326281 C49.0953162,62.2667766 48.9696977,62.2370248 48.8330579,62.2370248 C48.696418,62.2370248 48.5707995,62.2667766 48.4561983,62.326281 C48.3415972,62.3857854 48.2435266,62.4706331 48.1619835,62.5808264 C48.0804404,62.6910198 48.0176311,62.822148 47.9735537,62.9742149 C47.9294764,63.1262818 47.907438,63.2948751 47.907438,63.48 L47.907438,63.48 Z M52.5024793,60.372562 L53.0446281,60.372562 L53.0446281,61.6552066 L53.031405,62.2370248 C53.1768602,62.1092005 53.3355363,62.0023145 53.507438,61.9163636 C53.6793397,61.8304128 53.8556465,61.787438 54.0363636,61.787438 C54.2435272,61.787438 54.4264455,61.8260051 54.585124,61.9031405 C54.7438024,61.9802759 54.8771344,62.0904676 54.985124,62.233719 C55.0931135,62.3769704 55.1746554,62.5488695 55.2297521,62.7494215 C55.2848488,62.9499735 55.3123967,63.1736627 55.3123967,63.4204959 C55.3123967,63.6937755 55.2749315,63.9384011 55.2,64.1543802 C55.1250685,64.3703592 55.0236921,64.5532775 54.8958678,64.7031405 C54.7680434,64.8530035 54.6203865,64.966501 54.4528926,65.0436364 C54.2853986,65.1207717 54.1090918,65.1593388 53.9239669,65.1593388 C53.7741039,65.1593388 53.6187336,65.1251794 53.4578512,65.0568595 C53.2969689,64.9885396 53.1460062,64.890469 53.0049587,64.7626446 L52.985124,64.7626446 L52.938843,65.08 L52.5024793,65.08 L52.5024793,60.372562 Z M53.0446281,64.3659504 C53.1856756,64.489367 53.3256191,64.5764185 53.4644628,64.6271074 C53.6033065,64.6777964 53.7256193,64.7031405 53.831405,64.7031405 C53.963637,64.7031405 54.0859499,64.6733887 54.1983471,64.6138843 C54.3107444,64.5543799 54.4077131,64.4706341 54.4892562,64.3626446 C54.5707993,64.2546551 54.6347105,64.1213231 54.6809917,63.9626446 C54.727273,63.8039661 54.7504132,63.6254555 54.7504132,63.4271074 C54.7504132,63.250798 54.7349864,63.0899181 54.7041322,62.9444628 C54.6732781,62.7990075 54.6236918,62.6744909 54.5553719,62.5709091 C54.487052,62.4673273 54.3988986,62.3868873 54.2909091,62.3295868 C54.1829196,62.2722862 54.0539952,62.2436364 53.9041322,62.2436364 C53.6440758,62.2436364 53.3575773,62.3890895 53.0446281,62.68 L53.0446281,64.3659504 Z M55.9338843,63.48 C55.9338843,63.2155359 55.9746552,62.9786236 56.0561983,62.7692562 C56.1377415,62.5598888 56.2457294,62.3824801 56.3801653,62.2370248 C56.5146012,62.0915695 56.6677677,61.9802759 56.8396694,61.9031405 C57.0115711,61.8260051 57.1900817,61.787438 57.3752066,61.787438 C57.5779624,61.787438 57.7597788,61.8226994 57.9206612,61.8932231 C58.0815435,61.9637469 58.2159774,62.0651233 58.3239669,62.1973554 C58.4319565,62.3295874 58.5146003,62.4882635 58.5719008,62.6733884 C58.6292014,62.8585133 58.6578512,63.0656738 58.6578512,63.294876 C58.6578512,63.4138849 58.6512397,63.5130575 58.6380165,63.5923967 L56.4694215,63.5923967 C56.4914602,63.9406078 56.5983461,64.2160871 56.7900826,64.418843 C56.9818191,64.6215988 57.2319544,64.7229752 57.5404959,64.7229752 C57.6947666,64.7229752 57.836914,64.6998349 57.9669421,64.6535537 C58.0969703,64.6072725 58.221487,64.546667 58.3404959,64.4717355 L58.5322314,64.8287603 C58.3911839,64.916915 58.2347116,64.9940493 58.0628099,65.0601653 C57.8909082,65.1262813 57.6947669,65.1593388 57.4743802,65.1593388 C57.2584011,65.1593388 57.0567502,65.1207717 56.8694215,65.0436364 C56.6820927,64.966501 56.519009,64.8563093 56.3801653,64.7130579 C56.2413216,64.5698064 56.1322318,64.3946016 56.0528926,64.187438 C55.9735533,63.9802744 55.9338843,63.7444641 55.9338843,63.48 L55.9338843,63.48 Z M58.1818182,63.2353719 C58.1818182,62.9047917 58.1123974,62.6524527 57.9735537,62.4783471 C57.83471,62.3042416 57.6396707,62.2171901 57.3884298,62.2171901 C57.2738286,62.2171901 57.1647388,62.2403303 57.061157,62.2866116 C56.9575752,62.3328928 56.8639123,62.3990078 56.7801653,62.4849587 C56.6964183,62.5709095 56.6269975,62.6766936 56.5719008,62.802314 C56.5168041,62.9279345 56.4804409,63.0722857 56.4628099,63.2353719 L58.1818182,63.2353719 Z M59.5305785,64.7494215 C59.5305785,64.6215972 59.5691456,64.5191188 59.646281,64.4419835 C59.7234164,64.3648481 59.8170793,64.326281 59.9272727,64.326281 C60.0330584,64.326281 60.1245175,64.3648481 60.2016529,64.4419835 C60.2787883,64.5191188 60.3173554,64.6215972 60.3173554,64.7494215 C60.3173554,64.8684303 60.2787883,64.966501 60.2016529,65.0436364 C60.1245175,65.1207717 60.0330584,65.1593388 59.9272727,65.1593388 C59.8170793,65.1593388 59.7234164,65.1207717 59.646281,65.0436364 C59.5691456,64.966501 59.5305785,64.8684303 59.5305785,64.7494215 L59.5305785,64.7494215 Z M61.7454545,64.7494215 C61.7454545,64.6215972 61.7840217,64.5191188 61.861157,64.4419835 C61.9382924,64.3648481 62.0319554,64.326281 62.1421488,64.326281 C62.2479344,64.326281 62.3393936,64.3648481 62.4165289,64.4419835 C62.4936643,64.5191188 62.5322314,64.6215972 62.5322314,64.7494215 C62.5322314,64.8684303 62.4936643,64.966501 62.4165289,65.0436364 C62.3393936,65.1207717 62.2479344,65.1593388 62.1421488,65.1593388 C62.0319554,65.1593388 61.9382924,65.1207717 61.861157,65.0436364 C61.7840217,64.966501 61.7454545,64.8684303 61.7454545,64.7494215 L61.7454545,64.7494215 Z M63.9603306,64.7494215 C63.9603306,64.6215972 63.9988977,64.5191188 64.0760331,64.4419835 C64.1531684,64.3648481 64.2468314,64.326281 64.3570248,64.326281 C64.4628104,64.326281 64.5542696,64.3648481 64.631405,64.4419835 C64.7085403,64.5191188 64.7471074,64.6215972 64.7471074,64.7494215 C64.7471074,64.8684303 64.7085403,64.966501 64.631405,65.0436364 C64.5542696,65.1207717 64.4628104,65.1593388 64.3570248,65.1593388 C64.2468314,65.1593388 64.1531684,65.1207717 64.0760331,65.0436364 C63.9988977,64.966501 63.9603306,64.8684303 63.9603306,64.7494215 L63.9603306,64.7494215 Z M12.0727273,73.1064463 L10.7636364,73.1064463 L10.7636364,72.6436364 L13.9371901,72.6436364 L13.9371901,73.1064463 L12.6280992,73.1064463 L12.6280992,76.9808264 L12.0727273,76.9808264 L12.0727273,73.1064463 Z M14.6644628,72.2733884 L15.2066116,72.2733884 L15.2066116,73.5560331 L15.1867769,74.2171901 C15.3410476,74.0717348 15.5019275,73.9472181 15.6694215,73.8436364 C15.8369154,73.7400546 16.0330567,73.6882645 16.2578512,73.6882645 C16.5972469,73.6882645 16.8451783,73.7940485 17.0016529,74.0056198 C17.1581275,74.2171911 17.2363636,74.5301357 17.2363636,74.9444628 L17.2363636,76.9808264 L16.6942149,76.9808264 L16.6942149,75.0171901 C16.6942149,74.7130563 16.6457305,74.4937748 16.5487603,74.3593388 C16.4517901,74.2249029 16.2975217,74.157686 16.0859504,74.157686 C15.9184565,74.157686 15.7707995,74.1995588 15.6429752,74.2833058 C15.5151509,74.3670528 15.3696978,74.4904675 15.2066116,74.6535537 L15.2066116,76.9808264 L14.6644628,76.9808264 L14.6644628,72.2733884 Z M18.1024793,76.1477686 C18.1024793,75.7951498 18.2600535,75.52518 18.5752066,75.3378512 C18.8903597,75.1505225 19.3917321,75.0193943 20.0793388,74.9444628 C20.0793388,74.8430849 20.0694216,74.7439123 20.0495868,74.6469421 C20.029752,74.549972 19.9944906,74.4640224 19.9438017,74.3890909 C19.8931127,74.3141594 19.8258957,74.253554 19.7421488,74.2072727 C19.6584018,74.1609915 19.5504139,74.1378512 19.4181818,74.1378512 C19.2286492,74.1378512 19.0534443,74.1731126 18.892562,74.2436364 C18.7316796,74.3141601 18.5873285,74.3934982 18.4595041,74.4816529 L18.2413223,74.1047934 C18.3911853,74.0078232 18.5741036,73.9141602 18.7900826,73.8238017 C19.0060617,73.7334431 19.2440758,73.6882645 19.5041322,73.6882645 C19.8964207,73.6882645 20.1807154,73.8083735 20.3570248,74.048595 C20.5333342,74.2888166 20.6214876,74.6094746 20.6214876,75.0105785 L20.6214876,76.9808264 L20.1719008,76.9808264 L20.1256198,76.5973554 L20.1123967,76.5973554 C19.958126,76.7251797 19.7917364,76.8342695 19.6132231,76.9246281 C19.4347099,77.0149867 19.246282,77.0601653 19.0479339,77.0601653 C18.7746543,77.0601653 18.5487612,76.9808272 18.3702479,76.8221488 C18.1917346,76.6634703 18.1024793,76.4386791 18.1024793,76.1477686 L18.1024793,76.1477686 Z M18.6380165,76.1080992 C18.6380165,76.2932241 18.6920105,76.4254541 18.8,76.5047934 C18.9079895,76.5841326 19.0413215,76.6238017 19.2,76.6238017 C19.3542707,76.6238017 19.5008258,76.5874384 19.6396694,76.5147107 C19.7785131,76.4419831 19.9250681,76.3350971 20.0793388,76.1940496 L20.0793388,75.3014876 C19.810467,75.3367495 19.583472,75.3786223 19.3983471,75.4271074 C19.2132222,75.4755925 19.0644634,75.5328922 18.9520661,75.5990083 C18.8396689,75.6651243 18.7592289,75.7411566 18.7107438,75.8271074 C18.6622587,75.9130583 18.6380165,76.0067213 18.6380165,76.1080992 L18.6380165,76.1080992 Z M21.738843,74.2105785 L21.2628099,74.2105785 L21.2628099,73.8006612 L21.7652893,73.7676033 L21.831405,72.8684298 L22.2876033,72.8684298 L22.2876033,73.7676033 L23.153719,73.7676033 L23.153719,74.2105785 L22.2876033,74.2105785 L22.2876033,75.9957025 C22.2876033,76.1940506 22.3239666,76.3472171 22.3966942,76.4552066 C22.4694219,76.5631961 22.5983462,76.6171901 22.7834711,76.6171901 C22.8407716,76.6171901 22.902479,76.6083747 22.968595,76.5907438 C23.0347111,76.5731129 23.0942146,76.5532783 23.1471074,76.5312397 L23.2528926,76.941157 C23.1647379,76.9720112 23.068871,76.9995591 22.9652893,77.0238017 C22.8617075,77.0480442 22.7592292,77.0601653 22.6578512,77.0601653 C22.4859496,77.0601653 22.3415984,77.0337193 22.2247934,76.9808264 C22.1079884,76.9279336 22.0132235,76.8552071 21.9404959,76.7626446 C21.8677682,76.6700822 21.8159781,76.5576866 21.785124,76.4254545 C21.7542698,76.2932225 21.738843,76.1477694 21.738843,75.9890909 L21.738843,74.2105785 Z M25.4942149,73.1064463 C25.3884292,73.1064463 25.2991739,73.0733888 25.2264463,73.0072727 C25.1537186,72.9411567 25.1173554,72.857411 25.1173554,72.7560331 C25.1173554,72.6502474 25.1537186,72.5653998 25.2264463,72.5014876 C25.2991739,72.4375754 25.3884292,72.4056198 25.4942149,72.4056198 C25.6000005,72.4056198 25.6892558,72.4375754 25.7619835,72.5014876 C25.8347111,72.5653998 25.8710744,72.6502474 25.8710744,72.7560331 C25.8710744,72.857411 25.8347111,72.9411567 25.7619835,73.0072727 C25.6892558,73.0733888 25.6000005,73.1064463 25.4942149,73.1064463 L25.4942149,73.1064463 Z M25.2165289,73.7676033 L25.7586777,73.7676033 L25.7586777,76.9808264 L25.2165289,76.9808264 L25.2165289,73.7676033 Z M26.7570248,76.2535537 C26.8980723,76.3681548 27.0424235,76.4607159 27.1900826,76.5312397 C27.3377418,76.6017634 27.508539,76.6370248 27.7024793,76.6370248 C27.9140506,76.6370248 28.0727267,76.5885404 28.1785124,76.4915702 C28.284298,76.3946001 28.3371901,76.275593 28.3371901,76.1345455 C28.3371901,76.0507985 28.3151517,75.9780719 28.2710744,75.9163636 C28.226997,75.8546553 28.1707992,75.8006614 28.1024793,75.7543802 C28.0341594,75.7080989 27.9559233,75.667328 27.8677686,75.6320661 C27.7796139,75.5968042 27.6914605,75.5615429 27.6033058,75.526281 C27.4887047,75.4866114 27.3741053,75.4414328 27.2595041,75.3907438 C27.144903,75.3400548 27.0424247,75.2783475 26.9520661,75.2056198 C26.8617075,75.1328922 26.7878791,75.0480446 26.7305785,74.9510744 C26.673278,74.8541042 26.6446281,74.737301 26.6446281,74.6006612 C26.6446281,74.4728368 26.6699722,74.3527278 26.7206612,74.2403306 C26.7713501,74.1279333 26.8440767,74.0309646 26.938843,73.9494215 C27.0336093,73.8678784 27.1493106,73.8039672 27.2859504,73.757686 C27.4225902,73.7114047 27.5768586,73.6882645 27.7487603,73.6882645 C27.9515162,73.6882645 28.1377402,73.7235258 28.307438,73.7940496 C28.4771358,73.8645734 28.6236908,73.9505229 28.7471074,74.0519008 L28.4892562,74.3957025 C28.3790628,74.3119555 28.2644634,74.2436366 28.1454545,74.1907438 C28.0264457,74.137851 27.8964194,74.111405 27.7553719,74.111405 C27.5526161,74.111405 27.4038572,74.1576855 27.3090909,74.2502479 C27.2143246,74.3428104 27.1669421,74.4507983 27.1669421,74.5742149 C27.1669421,74.6491464 27.1867767,74.7141595 27.2264463,74.7692562 C27.2661159,74.8243529 27.3190079,74.8728373 27.385124,74.9147107 C27.45124,74.9565842 27.5272723,74.9940494 27.6132231,75.0271074 C27.699174,75.0601655 27.7884293,75.0943249 27.8809917,75.1295868 C27.9955929,75.1736641 28.1112942,75.2199447 28.2280992,75.2684298 C28.3449042,75.3169148 28.4495863,75.3775203 28.5421488,75.4502479 C28.6347112,75.5229756 28.7107435,75.6122309 28.7702479,75.7180165 C28.8297524,75.8238022 28.8595041,75.9516246 28.8595041,76.1014876 C28.8595041,76.2337197 28.83416,76.3571344 28.7834711,76.4717355 C28.7327821,76.5863367 28.6578517,76.6877131 28.5586777,76.7758678 C28.4595036,76.8640225 28.3360889,76.9334433 28.1884298,76.9841322 C28.0407706,77.0348212 27.8721773,77.0601653 27.6826446,77.0601653 C27.4534424,77.0601653 27.2352627,77.0182924 27.0280992,76.9345455 C26.8209356,76.8507985 26.6402212,76.7450144 26.4859504,76.6171901 L26.7570248,76.2535537 Z M31.0413223,74.2105785 L30.5652893,74.2105785 L30.5652893,73.8006612 L31.0677686,73.7676033 L31.1338843,72.8684298 L31.5900826,72.8684298 L31.5900826,73.7676033 L32.4561983,73.7676033 L32.4561983,74.2105785 L31.5900826,74.2105785 L31.5900826,75.9957025 C31.5900826,76.1940506 31.6264459,76.3472171 31.6991736,76.4552066 C31.7719012,76.5631961 31.9008255,76.6171901 32.0859504,76.6171901 C32.143251,76.6171901 32.2049583,76.6083747 32.2710744,76.5907438 C32.3371904,76.5731129 32.396694,76.5532783 32.4495868,76.5312397 L32.5553719,76.941157 C32.4672172,76.9720112 32.3713504,76.9995591 32.2677686,77.0238017 C32.1641868,77.0480442 32.0617085,77.0601653 31.9603306,77.0601653 C31.7884289,77.0601653 31.6440777,77.0337193 31.5272727,76.9808264 C31.4104677,76.9279336 31.3157028,76.8552071 31.2429752,76.7626446 C31.1702476,76.6700822 31.1184575,76.5576866 31.0876033,76.4254545 C31.0567492,76.2932225 31.0413223,76.1477694 31.0413223,75.9890909 L31.0413223,74.2105785 Z M33.1834711,72.2733884 L33.7256198,72.2733884 L33.7256198,73.5560331 L33.7057851,74.2171901 C33.8600559,74.0717348 34.0209358,73.9472181 34.1884298,73.8436364 C34.3559237,73.7400546 34.552065,73.6882645 34.7768595,73.6882645 C35.1162551,73.6882645 35.3641865,73.7940485 35.5206612,74.0056198 C35.6771358,74.2171911 35.7553719,74.5301357 35.7553719,74.9444628 L35.7553719,76.9808264 L35.2132231,76.9808264 L35.2132231,75.0171901 C35.2132231,74.7130563 35.1647388,74.4937748 35.0677686,74.3593388 C34.9707984,74.2249029 34.81653,74.157686 34.6049587,74.157686 C34.4374647,74.157686 34.2898078,74.1995588 34.1619835,74.2833058 C34.0341591,74.3670528 33.888706,74.4904675 33.7256198,74.6535537 L33.7256198,76.9808264 L33.1834711,76.9808264 L33.1834711,72.2733884 Z M36.5421488,75.3808264 C36.5421488,75.1163623 36.5829197,74.8794501 36.6644628,74.6700826 C36.7460059,74.4607152 36.8539938,74.2833065 36.9884298,74.1378512 C37.1228657,73.992396 37.2760322,73.8811023 37.4479339,73.8039669 C37.6198356,73.7268316 37.7983462,73.6882645 37.9834711,73.6882645 C38.1862269,73.6882645 38.3680433,73.7235258 38.5289256,73.7940496 C38.689808,73.8645734 38.8242419,73.9659498 38.9322314,74.0981818 C39.0402209,74.2304139 39.1228647,74.38909 39.1801653,74.5742149 C39.2374659,74.7593398 39.2661157,74.9665002 39.2661157,75.1957025 C39.2661157,75.3147113 39.2595042,75.4138839 39.246281,75.4932231 L37.077686,75.4932231 C37.0997246,75.8414342 37.2066106,76.1169136 37.3983471,76.3196694 C37.5900836,76.5224253 37.8402188,76.6238017 38.1487603,76.6238017 C38.3030311,76.6238017 38.4451784,76.6006614 38.5752066,76.5543802 C38.7052348,76.5080989 38.8297515,76.4474935 38.9487603,76.372562 L39.1404959,76.7295868 C38.9994483,76.8177415 38.8429761,76.8948757 38.6710744,76.9609917 C38.4991727,77.0271078 38.3030314,77.0601653 38.0826446,77.0601653 C37.8666656,77.0601653 37.6650147,77.0215982 37.477686,76.9444628 C37.2903572,76.8673274 37.1272734,76.7571357 36.9884298,76.6138843 C36.8495861,76.4706329 36.7404963,76.295428 36.661157,76.0882645 C36.5818178,75.8811009 36.5421488,75.6452906 36.5421488,75.3808264 L36.5421488,75.3808264 Z M38.7900826,75.1361983 C38.7900826,74.8056182 38.7206619,74.5532791 38.5818182,74.3791736 C38.4429745,74.205068 38.2479351,74.1180165 37.9966942,74.1180165 C37.8820931,74.1180165 37.7730033,74.1411568 37.6694215,74.187438 C37.5658397,74.2337192 37.4721767,74.2998343 37.3884298,74.3857851 C37.3046828,74.471736 37.235262,74.57752 37.1801653,74.7031405 C37.1250686,74.828761 37.0887053,74.9731121 37.0710744,75.1361983 L38.7900826,75.1361983 Z M41.1636364,75.3808264 C41.1636364,75.12077 41.2022035,74.8860617 41.2793388,74.6766942 C41.3564742,74.4673268 41.4589525,74.2899181 41.5867769,74.1444628 C41.7146012,73.9990075 41.8622581,73.886612 42.0297521,73.8072727 C42.197246,73.7279335 42.3735528,73.6882645 42.5586777,73.6882645 C42.7438026,73.6882645 42.9068863,73.7202201 43.0479339,73.7841322 C43.1889814,73.8480444 43.3322307,73.9439112 43.477686,74.0717355 L43.4909091,74.0717355 L43.5438017,73.7676033 L43.9801653,73.7676033 L43.9801653,78.3361983 L43.431405,78.3361983 L43.431405,77.1923967 L43.4578512,76.6238017 C43.3300269,76.7428105 43.1834719,76.8452888 43.0181818,76.9312397 C42.8528917,77.0171905 42.6776869,77.0601653 42.492562,77.0601653 C42.0870503,77.0601653 41.7641885,76.9147122 41.5239669,76.6238017 C41.2837454,76.3328911 41.1636364,75.9185702 41.1636364,75.3808264 L41.1636364,75.3808264 Z M41.7256198,75.3742149 C41.7256198,75.7620956 41.802754,76.064021 41.9570248,76.28 C42.1112955,76.495979 42.3294752,76.6039669 42.6115702,76.6039669 C42.7614333,76.6039669 42.9024787,76.5676037 43.0347107,76.494876 C43.1669428,76.4221484 43.2991729,76.3108547 43.431405,76.1609917 L43.431405,74.4816529 C43.2947652,74.3582363 43.163637,74.2711848 43.0380165,74.2204959 C42.9123961,74.1698069 42.7834717,74.1444628 42.6512397,74.1444628 C42.5234153,74.1444628 42.4033063,74.1742146 42.2909091,74.233719 C42.1785118,74.2932234 42.0804412,74.3769692 41.9966942,74.4849587 C41.9129472,74.5929482 41.8468322,74.7218725 41.7983471,74.8717355 C41.749862,75.0215985 41.7256198,75.18909 41.7256198,75.3742149 L41.7256198,75.3742149 Z M44.985124,73.7676033 L45.5338843,73.7676033 L45.5338843,75.7312397 C45.5338843,76.0353734 45.5812667,76.254655 45.6760331,76.3890909 C45.7707994,76.5235268 45.9239659,76.5907438 46.1355372,76.5907438 C46.3030311,76.5907438 46.4506881,76.547769 46.5785124,76.4618182 C46.7063367,76.3758673 46.8473821,76.2381277 47.0016529,76.048595 L47.0016529,73.7676033 L47.5438017,73.7676033 L47.5438017,76.9808264 L47.0942149,76.9808264 L47.0479339,76.4783471 L47.0280992,76.4783471 C46.8782362,76.6546565 46.720662,76.795702 46.5553719,76.9014876 C46.3900818,77.0072733 46.1950424,77.0601653 45.9702479,77.0601653 C45.6264446,77.0601653 45.3763093,76.9543812 45.2198347,76.7428099 C45.0633601,76.5312386 44.985124,76.2182941 44.985124,75.8039669 L44.985124,73.7676033 Z M48.3900826,75.3808264 C48.3900826,75.1163623 48.4308536,74.8794501 48.5123967,74.6700826 C48.5939398,74.4607152 48.7019277,74.2833065 48.8363636,74.1378512 C48.9707996,73.992396 49.1239661,73.8811023 49.2958678,73.8039669 C49.4677695,73.7268316 49.6462801,73.6882645 49.831405,73.6882645 C50.0341608,73.6882645 50.2159772,73.7235258 50.3768595,73.7940496 C50.5377419,73.8645734 50.6721758,73.9659498 50.7801653,74.0981818 C50.8881548,74.2304139 50.9707986,74.38909 51.0280992,74.5742149 C51.0853997,74.7593398 51.1140496,74.9665002 51.1140496,75.1957025 C51.1140496,75.3147113 51.1074381,75.4138839 51.0942149,75.4932231 L48.9256198,75.4932231 C48.9476585,75.8414342 49.0545445,76.1169136 49.246281,76.3196694 C49.4380175,76.5224253 49.6881527,76.6238017 49.9966942,76.6238017 C50.150965,76.6238017 50.2931123,76.6006614 50.4231405,76.5543802 C50.5531687,76.5080989 50.6776854,76.4474935 50.7966942,76.372562 L50.9884298,76.7295868 C50.8473822,76.8177415 50.69091,76.8948757 50.5190083,76.9609917 C50.3471066,77.0271078 50.1509653,77.0601653 49.9305785,77.0601653 C49.7145995,77.0601653 49.5129486,77.0215982 49.3256198,76.9444628 C49.1382911,76.8673274 48.9752073,76.7571357 48.8363636,76.6138843 C48.69752,76.4706329 48.5884301,76.295428 48.5090909,76.0882645 C48.4297517,75.8811009 48.3900826,75.6452906 48.3900826,75.3808264 L48.3900826,75.3808264 Z M50.6380165,75.1361983 C50.6380165,74.8056182 50.5685957,74.5532791 50.4297521,74.3791736 C50.2909084,74.205068 50.095869,74.1180165 49.8446281,74.1180165 C49.730027,74.1180165 49.6209372,74.1411568 49.5173554,74.187438 C49.4137736,74.2337192 49.3201106,74.2998343 49.2363636,74.3857851 C49.1526167,74.471736 49.0831959,74.57752 49.0280992,74.7031405 C48.9730025,74.828761 48.9366392,74.9731121 48.9190083,75.1361983 L50.6380165,75.1361983 Z M51.8214876,76.2535537 C51.9625351,76.3681548 52.1068863,76.4607159 52.2545455,76.5312397 C52.4022046,76.6017634 52.5730018,76.6370248 52.7669421,76.6370248 C52.9785135,76.6370248 53.1371896,76.5885404 53.2429752,76.4915702 C53.3487609,76.3946001 53.4016529,76.275593 53.4016529,76.1345455 C53.4016529,76.0507985 53.3796145,75.9780719 53.3355372,75.9163636 C53.2914598,75.8546553 53.235262,75.8006614 53.1669421,75.7543802 C53.0986222,75.7080989 53.0203861,75.667328 52.9322314,75.6320661 C52.8440767,75.5968042 52.7559233,75.5615429 52.6677686,75.526281 C52.5531675,75.4866114 52.4385681,75.4414328 52.3239669,75.3907438 C52.2093658,75.3400548 52.1068875,75.2783475 52.0165289,75.2056198 C51.9261703,75.1328922 51.8523419,75.0480446 51.7950413,74.9510744 C51.7377408,74.8541042 51.7090909,74.737301 51.7090909,74.6006612 C51.7090909,74.4728368 51.734435,74.3527278 51.785124,74.2403306 C51.8358129,74.1279333 51.9085395,74.0309646 52.0033058,73.9494215 C52.0980721,73.8678784 52.2137734,73.8039672 52.3504132,73.757686 C52.487053,73.7114047 52.6413215,73.6882645 52.8132231,73.6882645 C53.015979,73.6882645 53.202203,73.7235258 53.3719008,73.7940496 C53.5415986,73.8645734 53.6881537,73.9505229 53.8115702,74.0519008 L53.553719,74.3957025 C53.4435256,74.3119555 53.3289262,74.2436366 53.2099174,74.1907438 C53.0909085,74.137851 52.9608822,74.111405 52.8198347,74.111405 C52.6170789,74.111405 52.46832,74.1576855 52.3735537,74.2502479 C52.2787874,74.3428104 52.231405,74.4507983 52.231405,74.5742149 C52.231405,74.6491464 52.2512395,74.7141595 52.2909091,74.7692562 C52.3305787,74.8243529 52.3834707,74.8728373 52.4495868,74.9147107 C52.5157028,74.9565842 52.5917351,74.9940494 52.677686,75.0271074 C52.7636368,75.0601655 52.8528921,75.0943249 52.9454545,75.1295868 C53.0600557,75.1736641 53.175757,75.2199447 53.292562,75.2684298 C53.409367,75.3169148 53.5140491,75.3775203 53.6066116,75.4502479 C53.699174,75.5229756 53.7752063,75.6122309 53.8347107,75.7180165 C53.8942152,75.8238022 53.9239669,75.9516246 53.9239669,76.1014876 C53.9239669,76.2337197 53.8986228,76.3571344 53.8479339,76.4717355 C53.7972449,76.5863367 53.7223145,76.6877131 53.6231405,76.7758678 C53.5239664,76.8640225 53.4005517,76.9334433 53.2528926,76.9841322 C53.1052334,77.0348212 52.9366401,77.0601653 52.7471074,77.0601653 C52.5179052,77.0601653 52.2997256,77.0182924 52.092562,76.9345455 C51.8853984,76.8507985 51.704684,76.7450144 51.5504132,76.6171901 L51.8214876,76.2535537 Z M54.7702479,74.2105785 L54.2942149,74.2105785 L54.2942149,73.8006612 L54.7966942,73.7676033 L54.8628099,72.8684298 L55.3190083,72.8684298 L55.3190083,73.7676033 L56.185124,73.7676033 L56.185124,74.2105785 L55.3190083,74.2105785 L55.3190083,75.9957025 C55.3190083,76.1940506 55.3553715,76.3472171 55.4280992,76.4552066 C55.5008268,76.5631961 55.6297511,76.6171901 55.814876,76.6171901 C55.8721766,76.6171901 55.933884,76.6083747 56,76.5907438 C56.066116,76.5731129 56.1256196,76.5532783 56.1785124,76.5312397 L56.2842975,76.941157 C56.1961428,76.9720112 56.100276,76.9995591 55.9966942,77.0238017 C55.8931124,77.0480442 55.7906341,77.0601653 55.6892562,77.0601653 C55.5173545,77.0601653 55.3730033,77.0337193 55.2561983,76.9808264 C55.1393934,76.9279336 55.0446285,76.8552071 54.9719008,76.7626446 C54.8991732,76.6700822 54.8473831,76.5576866 54.8165289,76.4254545 C54.7856748,76.2932225 54.7702479,76.1477694 54.7702479,75.9890909 L54.7702479,74.2105785 Z" id="To-be-or-not-to-be…" fill="#444444"></path>
                    <path d="M11.292562,42.3953719 L11.9510744,42.3953719 L11.9510744,44.5771901 L14.3709091,44.5771901 L14.3709091,42.3953719 L15.0373554,42.3953719 L15.0373554,47.6 L14.3709091,47.6 L14.3709091,45.1484298 L11.9510744,45.1484298 L11.9510744,47.6 L11.292562,47.6 L11.292562,42.3953719 Z M16.2115702,46.6003306 C16.2115702,46.177188 16.4006593,45.8532243 16.778843,45.6284298 C17.1570267,45.4036352 17.7586736,45.2462814 18.5838017,45.1563636 C18.5838017,45.0347101 18.5719009,44.9157031 18.5480992,44.7993388 C18.5242974,44.6829746 18.4819838,44.5798352 18.421157,44.4899174 C18.3603303,44.3999996 18.2796699,44.327273 18.1791736,44.2717355 C18.0786772,44.2161981 17.9490917,44.1884298 17.7904132,44.1884298 C17.5629741,44.1884298 17.3527282,44.2307434 17.1596694,44.3153719 C16.9666106,44.4000004 16.7933892,44.4952061 16.64,44.6009917 L16.3781818,44.1487603 C16.5580174,44.0323961 16.7775194,43.9200005 17.0366942,43.8115702 C17.2958691,43.70314 17.581486,43.6489256 17.8935537,43.6489256 C18.3642999,43.6489256 18.7054535,43.7930564 18.9170248,44.0813223 C19.1285961,44.3695882 19.2343802,44.7543778 19.2343802,45.2357025 L19.2343802,47.6 L18.694876,47.6 L18.6393388,47.1398347 L18.6234711,47.1398347 C18.4383462,47.2932239 18.2386788,47.4241317 18.0244628,47.532562 C17.8102469,47.6409923 17.5841334,47.6952066 17.3461157,47.6952066 C17.0181802,47.6952066 16.7471085,47.600001 16.5328926,47.4095868 C16.3186766,47.2191726 16.2115702,46.9494232 16.2115702,46.6003306 L16.2115702,46.6003306 Z M16.8542149,46.5527273 C16.8542149,46.7748771 16.9190076,46.9335532 17.048595,47.0287603 C17.1781825,47.1239674 17.3381809,47.1715702 17.528595,47.1715702 C17.7137199,47.1715702 17.8895859,47.1279343 18.0561983,47.0406612 C18.2228108,46.953388 18.3986768,46.8251248 18.5838017,46.6558678 L18.5838017,45.5847934 C18.2611554,45.6271076 17.9887614,45.6773551 17.7666116,45.7355372 C17.5444617,45.7937193 17.3659511,45.8624789 17.2310744,45.9418182 C17.0961977,46.0211574 16.9996697,46.1123962 16.9414876,46.2155372 C16.8833055,46.3186782 16.8542149,46.4310738 16.8542149,46.5527273 L16.8542149,46.5527273 Z M20.4641322,43.7441322 L21.0036364,43.7441322 L21.0591736,44.2995041 L21.0829752,44.2995041 C21.2522323,44.1143792 21.4360321,43.95967 21.6343802,43.8353719 C21.8327283,43.7110738 22.0482633,43.6489256 22.2809917,43.6489256 C22.5771916,43.6489256 22.8085942,43.7137184 22.9752066,43.8433058 C23.141819,43.9728932 23.264793,44.1540484 23.3441322,44.3867769 C23.545125,44.164627 23.747437,43.9861164 23.9510744,43.8512397 C24.1547118,43.716363 24.375536,43.6489256 24.6135537,43.6489256 C25.0102499,43.6489256 25.305123,43.7758665 25.4981818,44.0297521 C25.6912406,44.2836376 25.7877686,44.6591711 25.7877686,45.1563636 L25.7877686,47.6 L25.1371901,47.6 L25.1371901,45.2436364 C25.1371901,44.8786759 25.0790088,44.615538 24.9626446,44.4542149 C24.8462804,44.2928918 24.6664475,44.2122314 24.4231405,44.2122314 C24.13223,44.2122314 23.8095885,44.4105765 23.4552066,44.8072727 L23.4552066,47.6 L22.8046281,47.6 L22.8046281,45.2436364 C22.8046281,44.8786759 22.7464469,44.615538 22.6300826,44.4542149 C22.5137184,44.2928918 22.3312409,44.2122314 22.0826446,44.2122314 C21.7917341,44.2122314 21.4690927,44.4105765 21.1147107,44.8072727 L21.1147107,47.6 L20.4641322,47.6 L20.4641322,43.7441322 Z M27.0413223,41.9510744 L27.6919008,41.9510744 L27.6919008,46.8700826 C27.6919008,46.9758683 27.710413,47.0499171 27.747438,47.0922314 C27.784463,47.1345457 27.8267766,47.1557025 27.8743802,47.1557025 L27.9338843,47.1557025 C27.9523968,47.1557025 27.9801651,47.1504133 28.0171901,47.1398347 L28.1044628,47.6317355 C28.0621485,47.6528927 28.0119011,47.6687603 27.953719,47.6793388 C27.8955369,47.6899174 27.8214881,47.6952066 27.7315702,47.6952066 C27.482974,47.6952066 27.3057857,47.6211578 27.2,47.4730579 C27.0942143,47.3249579 27.0413223,47.1081006 27.0413223,46.8224793 L27.0413223,41.9510744 Z M28.778843,45.68 C28.778843,45.362643 28.8277681,45.0783484 28.9256198,44.8271074 C29.0234716,44.5758665 29.153057,44.3629761 29.3143802,44.1884298 C29.4757033,44.0138834 29.6595031,43.880331 29.8657851,43.7877686 C30.0720671,43.6952061 30.2862799,43.6489256 30.5084298,43.6489256 C30.7517368,43.6489256 30.9699164,43.6912392 31.1629752,43.7758678 C31.356034,43.8604963 31.5173547,43.982148 31.6469421,44.1408264 C31.7765296,44.2995049 31.8757021,44.4899162 31.9444628,44.7120661 C32.0132235,44.934216 32.0476033,45.1828085 32.0476033,45.4578512 C32.0476033,45.6006619 32.0396695,45.7196689 32.0238017,45.814876 L29.4214876,45.814876 C29.447934,46.2327294 29.5761972,46.5633046 29.806281,46.8066116 C30.0363648,47.0499186 30.3365271,47.1715702 30.7067769,47.1715702 C30.8919018,47.1715702 31.0624786,47.1438019 31.2185124,47.0882645 C31.3745462,47.032727 31.5239662,46.9600004 31.6667769,46.8700826 L31.8968595,47.2985124 C31.7276025,47.404298 31.5398357,47.4968591 31.3335537,47.5761983 C31.1272717,47.6555376 30.8919021,47.6952066 30.627438,47.6952066 C30.3682632,47.6952066 30.1262821,47.6489261 29.9014876,47.5563636 C29.6766931,47.4638012 29.4809926,47.3315711 29.3143802,47.1596694 C29.1477678,46.9877677 29.01686,46.7775219 28.9216529,46.5289256 C28.8264458,46.2803293 28.778843,45.997357 28.778843,45.68 L28.778843,45.68 Z M31.4763636,45.3864463 C31.4763636,44.9897501 31.3930587,44.6869432 31.2264463,44.4780165 C31.0598339,44.2690899 30.8257866,44.1646281 30.5242975,44.1646281 C30.3867762,44.1646281 30.2558684,44.1923964 30.1315702,44.2479339 C30.0072721,44.3034714 29.8948765,44.3828094 29.7943802,44.4859504 C29.6938838,44.5890914 29.6105788,44.7160323 29.5444628,44.8667769 C29.4783468,45.0175214 29.4347108,45.1907428 29.4135537,45.3864463 L31.4763636,45.3864463 Z M33.1107438,44.2757025 L32.5395041,44.2757025 L32.5395041,43.7838017 L33.1424793,43.7441322 L33.2218182,42.665124 L33.7692562,42.665124 L33.7692562,43.7441322 L34.808595,43.7441322 L34.808595,44.2757025 L33.7692562,44.2757025 L33.7692562,46.4178512 C33.7692562,46.655869 33.8128921,46.8396688 33.9001653,46.9692562 C33.9874385,47.0988436 34.1421476,47.1636364 34.3642975,47.1636364 C34.4330582,47.1636364 34.507107,47.153058 34.5864463,47.1319008 C34.6657855,47.1107437 34.7371898,47.0869423 34.8006612,47.0604959 L34.9276033,47.5523967 C34.8218177,47.5894217 34.7067775,47.6224792 34.5824793,47.6515702 C34.4581812,47.6806613 34.3352072,47.6952066 34.2135537,47.6952066 C34.0072717,47.6952066 33.8340503,47.6634714 33.6938843,47.6 C33.5537183,47.5365286 33.4400004,47.4492568 33.3527273,47.3381818 C33.2654541,47.2271069 33.203306,47.0922322 33.166281,46.9335537 C33.129256,46.7748752 33.1107438,46.6003315 33.1107438,46.4099174 L33.1107438,44.2757025 Z" id="Hamlet" fill="#448AC9"></path>
                    <path d="M57.8512397,70.95 L57.8512397,78.21" id="Line" stroke="#979797" stroke-width="0.661157025" stroke-linecap="square"></path>
                    <path d="M7.60330579,35.97 L72.4506422,35.97" id="Line" stroke="#E0EEFB" stroke-width="0.661157025" stroke-linecap="square"></path>
                    <path d="M30.7438017,30.03 L48.6072811,30.03" id="Line" stroke="#448AC9" stroke-width="1.98347107" stroke-linecap="square"></path>
                    <g id="Add-Icon-Copy" transform="translate(66.115702, 27.720000)" stroke="#448AC9" stroke-width="0.661157025" stroke-linecap="square">
                        <path d="M2.02479339,0 L2.02479339,3.96" id="Line"></path>
                        <path d="M4.05349785,1.98 L0.00391106972,1.98" id="Line-Copy"></path>
                    </g>
                    <path d="M13.2231405,28.12095 L12.7782369,27.72 L10.5785124,29.7 L12.7782369,31.68 L13.2231405,31.27905 L11.469697,29.7 L13.2231405,28.12095 Z" id="Shape" fill="#448AC9"></path>
                </g>
            </g>
        </g>
    </g>
</svg>