<?xml version="1.0" encoding="UTF-8" standalone="no"?>
<svg width="211px" height="737px" viewBox="0 0 211 737" version="1.1" xmlns="http://www.w3.org/2000/svg" xmlns:xlink="http://www.w3.org/1999/xlink" xmlns:sketch="http://www.bohemiancoding.com/sketch/ns">
    <!-- Generator: Sketch 3.3.3 (12072) - http://www.bohemiancoding.com/sketch -->
    <title>Sync UI</title>
    <desc>Created with Sketch.</desc>
    <defs>
        <filter x="-50%" y="-50%" width="200%" height="200%" filterUnits="objectBoundingBox" id="filter-1">
            <feOffset dx="0" dy="0" in="SourceAlpha" result="shadowOffsetOuter1"></feOffset>
            <feGaussianBlur stdDeviation="1.5" in="shadowOffsetOuter1" result="shadowBlurOuter1"></feGaussianBlur>
            <feColorMatrix values="0 0 0 0 0   0 0 0 0 0   0 0 0 0 0  0 0 0 0.192317708 0" in="shadowBlurOuter1" type="matrix" result="shadowMatrixOuter1"></feColorMatrix>
            <feMerge>
                <feMergeNode in="shadowMatrixOuter1"></feMergeNode>
                <feMergeNode in="SourceGraphic"></feMergeNode>
            </feMerge>
        </filter>
        <rect id="path-2" x="0" y="0" width="83.1549296" height="87.712207"></rect>
    </defs>
    <g id="Mac-App-UI" stroke="none" stroke-width="1" fill="none" fill-rule="evenodd" sketch:type="MSPage">
        <g id="Artboard-1" sketch:type="MSArtboardGroup" transform="translate(-3268.000000, -1878.000000)">
            <g id="Sync-UI" sketch:type="MSLayerGroup" transform="translate(3270.000000, 1879.000000)">
                <g id="Fill-13-Copy-2-+-Line-+-Line-Copy-4" transform="translate(71.000000, 260.000000)" sketch:type="MSShapeGroup">
                    <path d="M22.6301678,123.895649 C22.6301678,129.697101 27.9885993,133.060885 35.5573708,136.486609 L52.9094261,145.112361 L53.1336938,145.245234 C60.7671378,149.86082 64.2897041,155.935012 64.2897041,164.346968 C64.2897041,164.892446 64.2625834,165.434928 64.2271178,165.974412 C68.4829871,160.367773 71,153.464374 71,146.007505 C71,127.221469 55.1041195,112.000024 35.4989569,112.000024 C34.6060588,112.000024 22.6301678,111.904115 22.6301678,123.895649 M35.4989569,180 C15.8937943,180 0,164.781552 0,146.007505 C0,136.560538 4.02325684,128.015709 10.5155437,121.857598 C10.4174918,122.751743 10.3663797,123.669865 10.3663797,124.600974 C10.3663797,132.029871 13.9609203,137.913245 20.9685012,142.081259 C20.9685012,142.081259 37.7823142,150.537173 38.2704875,150.754965 C46.3900185,154.54634 52.1333559,157.705319 52.1333559,163.909386 C52.1333559,172.16749 44.7951106,180 35.4989569,180" id="Fill-13-Copy-2" fill="#448AC9"></path>
                    <g id="Group" transform="translate(35.000000, 51.500000) rotate(-270.000000) translate(-35.000000, -51.500000) translate(-15.500000, 33.000000)">
                        <path d="M0.503311258,20 L100.503311,20" id="Line" stroke="#ACD8FF" stroke-width="2" stroke-linecap="square" opacity="0.541744403"></path>
                        <ellipse id="Oval-21-Copy" stroke="#E7F4FF" cx="51.3377483" cy="19" rx="18.1192053" ry="18"></ellipse>
                        <ellipse id="Oval-21-Copy-2" stroke="#ABD7FF" fill="#FAFAFA" cx="51.3377483" cy="19" rx="9.05960265" ry="9"></ellipse>
                        <ellipse id="Oval-21" fill="#448AC9" cx="51.3377483" cy="19" rx="5.03311258" ry="5"></ellipse>
                    </g>
                    <path d="M35,290 L35,190" id="Line-Copy-4" stroke="#ACD8FF" stroke-width="2" stroke-linecap="square" opacity="0.541744403"></path>
                </g>
                <g id="Group" transform="translate(0.000000, 560.000000)">
                    <g id="iMac-27&quot;" sketch:type="MSShapeGroup">
                        <path d="M80.753759,141.529126 C80.753759,141.529126 79.1703469,169.676375 77.9827878,171.262136 C76.7952287,172.847896 68.0864621,172.847896 68.4823151,173.640777 C68.8410507,174.359312 86.2957027,174.433565 103.911161,174.433564 C121.52662,174.433563 138.981272,174.359312 139.340007,173.640777 C139.73586,172.847896 131.027094,172.847896 129.839535,171.262136 C128.651976,169.676375 127.068564,141.529126 127.068564,141.529126 L103.911161,141.529126 L80.753759,141.529126 Z" id="Foot" stroke="#ABABAB" stroke-width="1.00574713" fill="#FFFFFF"></path>
                        <rect id="blackglass" stroke="#AAAAAA" stroke-width="1.00574713" fill="#FFFFFF" x="0" y="0" width="207" height="151" rx="5.94999981"></rect>
                        <path d="M0.5,131.5 L207.792068,131.5" id="Line" stroke="#AAAAAA" stroke-linecap="square"></path>
                        <rect id="pixels" stroke="#CCCCCC" stroke-width="1.00574713" stroke-linejoin="round" fill="#FFFFFF" x="9.15576923" y="9.11812298" width="189.086538" height="112.985437"></rect>
                    </g>
                    <g id="Mac-App-UI-Light-Copy" transform="translate(23.000000, 16.000000)">
                        <rect id="App-Window" stroke="#BFBFBF" stroke-width="0.5" fill="#FFFFFF" filter="url(#filter-1)" sketch:type="MSShapeGroup" x="0" y="0" width="161" height="100" rx="0.81061911"></rect>
                        <g id="#-Proposed-Producer-" transform="translate(60.845070, 12.287793)">
                            <mask id="mask-3" sketch:name="Mask" fill="white">
                                <use xlink:href="#path-2"></use>
                            </mask>
                            <use id="Mask" opacity="0" fill="#D8D8D8" sketch:type="MSShapeGroup" xlink:href="#path-2"></use>
                        </g>
                        <path id="Toolbar-Divider" stroke="#E0E0E0" stroke-width="0.5" stroke-linecap="square" sketch:type="MSShapeGroup" d="M0.0405633803,5.86095392 L143.959437,5.86095392"></path>
                        <g id="OS-Window-Controls" transform="translate(1.622535, 2.021019)" sketch:type="MSShapeGroup">
                            <ellipse id="Red" fill="#FF6057" cx="0.973521127" cy="0.970088925" rx="0.973521127" ry="0.970088925"></ellipse>
                            <ellipse id="Yellow" fill="#FFC02F" cx="4.21859155" cy="0.970088925" rx="0.973521127" ry="0.970088925"></ellipse>
                            <ellipse id="Green" fill="#29CD42" cx="7.46366197" cy="0.970088925" rx="0.973521127" ry="0.970088925"></ellipse>
                        </g>
                        <path id="Line" stroke="#E5E5E5" stroke-width="0.5" stroke-linecap="square" sketch:type="MSShapeGroup" d="M60.9667606,5.94179466 L60.9667606,99.7979376"></path>
                        <path d="M6.5,10 L15.5,10" id="Line-Copy-6" stroke="#448AC9" stroke-width="2" stroke-linecap="square" sketch:type="MSShapeGroup"></path>
                        <path d="M6.5,15 L15.5,15" id="Line-Copy-7" stroke="#448AC9" stroke-width="2" stroke-linecap="square" sketch:type="MSShapeGroup"></path>
                        <path d="M6.5,22.5 L12.5,22.5" id="Line-Copy-8" stroke="#6CBAFF" stroke-linecap="square" sketch:type="MSShapeGroup"></path>
                        <path d="M6.5,25.5 L12.5,25.5" id="Line-Copy-9" stroke="#6CBAFF" stroke-linecap="square" sketch:type="MSShapeGroup"></path>
                        <path d="M6.5,28.5 L12.5,28.5" id="Line-Copy-10" stroke="#6CBAFF" stroke-linecap="square" sketch:type="MSShapeGroup"></path>
                        <g id="Add-Icon" transform="translate(57.032113, 1.859337)" stroke-linecap="square" stroke-width="0.5" stroke="#ADADAD" sketch:type="MSShapeGroup">
                            <path id="Line" d="M0.973521127,0 L0.973521127,1.94017785"></path>
                            <path id="Line-Copy" d="M1.94704225,0.970088925 L0,0.970088925"></path>
                        </g>
                        <path d="M6.08450704,96.0388036 C6.08450704,95.9495015 6.01187155,95.8771221 5.92225352,95.8771221 C5.87849915,95.8771221 5.83885521,95.894422 5.80964958,95.9224468 L5.80959549,95.9223929 L4.9483538,96.7805982 L4.09825352,95.933495 C4.06850704,95.899003 4.02442817,95.8771221 3.97521127,95.8771221 C3.88559324,95.8771221 3.81295775,95.9495015 3.81295775,96.0388036 C3.81295775,96.0821881 3.83015662,96.1215845 3.85811831,96.1506333 L3.85768563,96.1510644 L4.83120676,97.1211533 L4.83126085,97.1210994 C4.86079099,97.1516033 4.90216563,97.170574 4.9480293,97.170574 L4.94840789,97.170574 L4.94878648,97.170574 C4.99470423,97.170574 5.0359707,97.1516033 5.06555493,97.1210994 L5.06560901,97.1211533 L6.03913014,96.1510644 L6.03907606,96.1510105 C6.0672,96.1219617 6.08450704,96.0824037 6.08450704,96.0388036 L6.08450704,96.0388036 Z" id="Shape" fill="#C1C1C1" sketch:type="MSShapeGroup" transform="translate(4.948732, 96.523848) rotate(-270.000000) translate(-4.948732, -96.523848) "></path>
                        <path id="Line" stroke="#E6E6E6" stroke-width="0.5" stroke-linecap="square" sketch:type="MSShapeGroup" d="M65.5909859,93.3306386 L142.641978,93.3306386"></path>
                        <path id="Line-Copy-2" stroke="#E6E6E6" stroke-width="0.5" stroke-linecap="square" sketch:type="MSShapeGroup" d="M24.4596141,93.3306386 L56.028788,93.3306386"></path>
                        <path d="M65.08,10.128 L66.076,10.128 L66.076,13.428 L69.736,13.428 L69.736,10.128 L70.744,10.128 L70.744,18 L69.736,18 L69.736,14.292 L66.076,14.292 L66.076,18 L65.08,18 L65.08,10.128 Z M72.52,16.488 C72.52,15.8479968 72.8059971,15.3580017 73.378,15.018 C73.9500029,14.6779983 74.8599938,14.4400007 76.108,14.304 C76.108,14.1199991 76.0900002,13.9400009 76.054,13.764 C76.0179998,13.5879991 75.9540005,13.4320007 75.862,13.296 C75.7699995,13.1599993 75.6480008,13.0500004 75.496,12.966 C75.3439992,12.8819996 75.1480012,12.84 74.908,12.84 C74.5639983,12.84 74.2460015,12.9039994 73.954,13.032 C73.6619985,13.1600006 73.4000012,13.3039992 73.168,13.464 L72.772,12.78 C73.0440014,12.6039991 73.375998,12.4340008 73.768,12.27 C74.160002,12.1059992 74.5919976,12.024 75.064,12.024 C75.7760036,12.024 76.2919984,12.2419978 76.612,12.678 C76.9320016,13.1140022 77.092,13.6959964 77.092,14.424 L77.092,18 L76.276,18 L76.192,17.304 L76.168,17.304 C75.8879986,17.5360012 75.5860016,17.7339992 75.262,17.898 C74.9379984,18.0620008 74.5960018,18.144 74.236,18.144 C73.7399975,18.144 73.3300016,18.0000014 73.006,17.712 C72.6819984,17.4239986 72.52,17.0160026 72.52,16.488 L72.52,16.488 Z M73.492,16.416 C73.492,16.7520017 73.589999,16.9919993 73.786,17.136 C73.982001,17.2800007 74.2239986,17.352 74.512,17.352 C74.7920014,17.352 75.0579987,17.2860007 75.31,17.154 C75.5620013,17.0219993 75.8279986,16.8280013 76.108,16.572 L76.108,14.952 C75.6199976,15.0160003 75.2080017,15.0919996 74.872,15.18 C74.5359983,15.2680004 74.266001,15.3719994 74.062,15.492 C73.857999,15.6120006 73.7120004,15.7499992 73.624,15.906 C73.5359996,16.0620008 73.492,16.2319991 73.492,16.416 L73.492,16.416 Z M78.952,12.168 L79.768,12.168 L79.852,13.008 L79.888,13.008 C80.1440013,12.7279986 80.4219985,12.4940009 80.722,12.306 C81.0220015,12.1179991 81.3479982,12.024 81.7,12.024 C82.1480022,12.024 82.4979987,12.121999 82.75,12.318 C83.0020013,12.514001 83.1879994,12.7879982 83.308,13.14 C83.6120015,12.8039983 83.9179985,12.534001 84.226,12.33 C84.5340015,12.125999 84.8679982,12.024 85.228,12.024 C85.828003,12.024 86.2739985,12.2159981 86.566,12.6 C86.8580015,12.9840019 87.004,13.5519962 87.004,14.304 L87.004,18 L86.02,18 L86.02,14.436 C86.02,13.8839972 85.9320009,13.4860012 85.756,13.242 C85.5799991,12.9979988 85.3080018,12.876 84.94,12.876 C84.4999978,12.876 84.0120027,13.175997 83.476,13.776 L83.476,18 L82.492,18 L82.492,14.436 C82.492,13.8839972 82.4040009,13.4860012 82.228,13.242 C82.0519991,12.9979988 81.7760019,12.876 81.4,12.876 C80.9599978,12.876 80.4720027,13.175997 79.936,13.776 L79.936,18 L78.952,18 L78.952,12.168 Z M88.9,9.456 L89.884,9.456 L89.884,16.896 C89.884,17.0560008 89.9119997,17.1679997 89.968,17.232 C90.0240003,17.2960003 90.0879996,17.328 90.16,17.328 L90.25,17.328 C90.2780001,17.328 90.3199997,17.3200001 90.376,17.304 L90.508,18.048 C90.4439997,18.0800002 90.3680004,18.1039999 90.28,18.12 C90.1919996,18.1360001 90.0800007,18.144 89.944,18.144 C89.5679981,18.144 89.3000008,18.0320011 89.14,17.808 C88.9799992,17.5839989 88.9,17.2560022 88.9,16.824 L88.9,9.456 Z M91.528,15.096 C91.528,14.6159976 91.6019993,14.1860019 91.75,13.806 C91.8980007,13.4259981 92.0939988,13.1040013 92.338,12.84 C92.5820012,12.5759987 92.8599984,12.3740007 93.172,12.234 C93.4840016,12.0939993 93.8079983,12.024 94.144,12.024 C94.5120018,12.024 94.8419985,12.0879994 95.134,12.216 C95.4260015,12.3440006 95.669999,12.5279988 95.866,12.768 C96.062001,13.0080012 96.2119995,13.2959983 96.316,13.632 C96.4200005,13.9680017 96.472,14.3439979 96.472,14.76 C96.472,14.9760011 96.4600001,15.1559993 96.436,15.3 L92.5,15.3 C92.5400002,15.9320032 92.7339983,16.4319982 93.082,16.8 C93.4300017,17.1680018 93.8839972,17.352 94.444,17.352 C94.7240014,17.352 94.9819988,17.3100004 95.218,17.226 C95.4540012,17.1419996 95.6799989,17.0320007 95.896,16.896 L96.244,17.544 C95.9879987,17.7040008 95.7040016,17.8439994 95.392,17.964 C95.0799984,18.0840006 94.724002,18.144 94.324,18.144 C93.931998,18.144 93.5660017,18.0740007 93.226,17.934 C92.8859983,17.7939993 92.5900013,17.5940013 92.338,17.334 C92.0859987,17.0739987 91.8880007,16.7560019 91.744,16.38 C91.5999993,16.0039981 91.528,15.5760024 91.528,15.096 L91.528,15.096 Z M95.608,14.652 C95.608,14.051997 95.4820013,13.5940016 95.23,13.278 C94.9779987,12.9619984 94.6240023,12.804 94.168,12.804 C93.959999,12.804 93.7620009,12.8459996 93.574,12.93 C93.3859991,13.0140004 93.2160008,13.1339992 93.064,13.29 C92.9119992,13.4460008 92.7860005,13.6379989 92.686,13.866 C92.5859995,14.0940011 92.5200002,14.3559985 92.488,14.652 L95.608,14.652 Z M98.08,12.972 L97.216,12.972 L97.216,12.228 L98.128,12.168 L98.248,10.536 L99.076,10.536 L99.076,12.168 L100.648,12.168 L100.648,12.972 L99.076,12.972 L99.076,16.212 C99.076,16.5720018 99.1419993,16.849999 99.274,17.046 C99.4060007,17.242001 99.6399983,17.34 99.976,17.34 C100.080001,17.34 100.191999,17.3240002 100.312,17.292 C100.432001,17.2599998 100.54,17.2240002 100.636,17.184 L100.828,17.928 C100.667999,17.9840003 100.494001,18.0339998 100.306,18.078 C100.117999,18.1220002 99.9320009,18.144 99.748,18.144 C99.4359984,18.144 99.1740011,18.0960005 98.962,18 C98.7499989,17.9039995 98.5780007,17.7720008 98.446,17.604 C98.3139993,17.4359992 98.2200003,17.2320012 98.164,16.992 C98.1079997,16.7519988 98.08,16.4880014 98.08,16.2 L98.08,12.972 Z" id="Hamlet-Copy" fill="#448AC9" sketch:type="MSShapeGroup"></path>
                        <path d="M66.26,30.14 L64.28,30.14 L64.28,29.44 L69.08,29.44 L69.08,30.14 L67.1,30.14 L67.1,36 L66.26,36 L66.26,30.14 Z M69.16,33.58 C69.16,33.1733313 69.2216661,32.8116683 69.345,32.495 C69.468334,32.1783318 69.6333323,31.9100011 69.84,31.69 C70.0466677,31.4699989 70.2849987,31.3033339 70.555,31.19 C70.8250014,31.0766661 71.1099985,31.02 71.41,31.02 C71.7100015,31.02 71.9949987,31.0766661 72.265,31.19 C72.5350014,31.3033339 72.7733323,31.4699989 72.98,31.69 C73.1866677,31.9100011 73.3516661,32.1783318 73.475,32.495 C73.598334,32.8116683 73.66,33.1733313 73.66,33.58 C73.66,33.980002 73.598334,34.3383318 73.475,34.655 C73.3516661,34.9716683 73.1866677,35.2383323 72.98,35.455 C72.7733323,35.6716678 72.5350014,35.8366661 72.265,35.95 C71.9949987,36.0633339 71.7100015,36.12 71.41,36.12 C71.1099985,36.12 70.8250014,36.0633339 70.555,35.95 C70.2849987,35.8366661 70.0466677,35.6716678 69.84,35.455 C69.6333323,35.2383323 69.468334,34.9716683 69.345,34.655 C69.2216661,34.3383318 69.16,33.980002 69.16,33.58 L69.16,33.58 Z M70.01,33.58 C70.01,33.8600014 70.043333,34.1133322 70.11,34.34 C70.176667,34.5666678 70.2716661,34.7616659 70.395,34.925 C70.518334,35.0883342 70.6666658,35.2149996 70.84,35.305 C71.0133342,35.3950005 71.2033323,35.44 71.41,35.44 C71.6166677,35.44 71.8066658,35.3950005 71.98,35.305 C72.1533342,35.2149996 72.3016661,35.0883342 72.425,34.925 C72.548334,34.7616659 72.643333,34.5666678 72.71,34.34 C72.776667,34.1133322 72.81,33.8600014 72.81,33.58 C72.81,33.2999986 72.776667,33.0450012 72.71,32.815 C72.643333,32.5849989 72.548334,32.3866675 72.425,32.22 C72.3016661,32.0533325 72.1533342,31.9250005 71.98,31.835 C71.8066658,31.7449996 71.6166677,31.7 71.41,31.7 C71.2033323,31.7 71.0133342,31.7449996 70.84,31.835 C70.6666658,31.9250005 70.518334,32.0533325 70.395,32.22 C70.2716661,32.3866675 70.176667,32.5849989 70.11,32.815 C70.043333,33.0450012 70.01,33.2999986 70.01,33.58 L70.01,33.58 Z M76.96,28.88 L77.78,28.88 L77.78,30.82 L77.76,31.7 C77.9800011,31.5066657 78.2199987,31.3450007 78.48,31.215 C78.7400013,31.0849994 79.0066653,31.02 79.28,31.02 C79.5933349,31.02 79.8699988,31.0783328 80.11,31.195 C80.3500012,31.3116673 80.5516659,31.4783323 80.715,31.695 C80.8783342,31.9116678 81.0016663,32.1716652 81.085,32.475 C81.1683338,32.7783349 81.21,33.1166648 81.21,33.49 C81.21,33.9033354 81.1533339,34.2733317 81.04,34.6 C80.9266661,34.9266683 80.7733343,35.2033322 80.58,35.43 C80.3866657,35.6566678 80.1633346,35.8283328 79.91,35.945 C79.6566654,36.0616673 79.3900014,36.12 79.11,36.12 C78.8833322,36.12 78.6483346,36.0683339 78.405,35.965 C78.1616655,35.8616662 77.9333344,35.7133343 77.72,35.52 L77.69,35.52 L77.62,36 L76.96,36 L76.96,28.88 Z M77.78,34.92 C77.9933344,35.1066676 78.204999,35.238333 78.415,35.315 C78.6250011,35.3916671 78.8099992,35.43 78.97,35.43 C79.170001,35.43 79.3549992,35.3850005 79.525,35.295 C79.6950009,35.2049996 79.8416661,35.0783342 79.965,34.915 C80.088334,34.7516659 80.1849997,34.5500012 80.255,34.31 C80.3250004,34.0699988 80.36,33.8000015 80.36,33.5 C80.36,33.233332 80.3366669,32.9900011 80.29,32.77 C80.2433331,32.5499989 80.1683339,32.3616675 80.065,32.205 C79.9616662,32.0483326 79.8283342,31.9266671 79.665,31.84 C79.5016659,31.7533329 79.3066678,31.71 79.08,31.71 C78.6866647,31.71 78.2533357,31.9299978 77.78,32.37 L77.78,34.92 Z M82.15,33.58 C82.15,33.179998 82.2116661,32.8216683 82.335,32.505 C82.458334,32.1883318 82.6216657,31.9200011 82.825,31.7 C83.0283344,31.4799989 83.2599987,31.3116673 83.52,31.195 C83.7800013,31.0783328 84.0499986,31.02 84.33,31.02 C84.6366682,31.02 84.9116655,31.0733328 85.155,31.18 C85.3983346,31.2866672 85.6016659,31.439999 85.765,31.64 C85.9283342,31.840001 86.0533329,32.0799986 86.14,32.36 C86.2266671,32.6400014 86.27,32.9533316 86.27,33.3 C86.27,33.4800009 86.2600001,33.6299994 86.24,33.75 L82.96,33.75 C82.9933335,34.2766693 83.1549986,34.6933318 83.445,35 C83.7350015,35.3066682 84.113331,35.46 84.58,35.46 C84.8133345,35.46 85.0283324,35.4250004 85.225,35.355 C85.4216677,35.2849997 85.6099991,35.1933339 85.79,35.08 L86.08,35.62 C85.8666656,35.753334 85.6300013,35.8699995 85.37,35.97 C85.1099987,36.0700005 84.813335,36.12 84.48,36.12 C84.1533317,36.12 83.8483348,36.0616673 83.565,35.945 C83.2816653,35.8283328 83.0350011,35.6616678 82.825,35.445 C82.614999,35.2283323 82.4500006,34.9633349 82.33,34.65 C82.2099994,34.3366651 82.15,33.980002 82.15,33.58 L82.15,33.58 Z M85.55,33.21 C85.55,32.7099975 85.4450011,32.3283347 85.235,32.065 C85.024999,31.8016654 84.7300019,31.67 84.35,31.67 C84.1766658,31.67 84.0116675,31.7049997 83.855,31.775 C83.6983326,31.8450004 83.5566673,31.9449994 83.43,32.075 C83.3033327,32.2050007 83.1983338,32.3649991 83.115,32.555 C83.0316663,32.745001 82.9766668,32.9633321 82.95,33.21 L85.55,33.21 Z M89.13,33.58 C89.13,33.1733313 89.1916661,32.8116683 89.315,32.495 C89.438334,32.1783318 89.6033323,31.9100011 89.81,31.69 C90.0166677,31.4699989 90.2549987,31.3033339 90.525,31.19 C90.7950014,31.0766661 91.0799985,31.02 91.38,31.02 C91.6800015,31.02 91.9649987,31.0766661 92.235,31.19 C92.5050014,31.3033339 92.7433323,31.4699989 92.95,31.69 C93.1566677,31.9100011 93.3216661,32.1783318 93.445,32.495 C93.568334,32.8116683 93.63,33.1733313 93.63,33.58 C93.63,33.980002 93.568334,34.3383318 93.445,34.655 C93.3216661,34.9716683 93.1566677,35.2383323 92.95,35.455 C92.7433323,35.6716678 92.5050014,35.8366661 92.235,35.95 C91.9649987,36.0633339 91.6800015,36.12 91.38,36.12 C91.0799985,36.12 90.7950014,36.0633339 90.525,35.95 C90.2549987,35.8366661 90.0166677,35.6716678 89.81,35.455 C89.6033323,35.2383323 89.438334,34.9716683 89.315,34.655 C89.1916661,34.3383318 89.13,33.980002 89.13,33.58 L89.13,33.58 Z M89.98,33.58 C89.98,33.8600014 90.013333,34.1133322 90.08,34.34 C90.146667,34.5666678 90.2416661,34.7616659 90.365,34.925 C90.488334,35.0883342 90.6366658,35.2149996 90.81,35.305 C90.9833342,35.3950005 91.1733323,35.44 91.38,35.44 C91.5866677,35.44 91.7766658,35.3950005 91.95,35.305 C92.1233342,35.2149996 92.2716661,35.0883342 92.395,34.925 C92.518334,34.7616659 92.613333,34.5666678 92.68,34.34 C92.746667,34.1133322 92.78,33.8600014 92.78,33.58 C92.78,33.2999986 92.746667,33.0450012 92.68,32.815 C92.613333,32.5849989 92.518334,32.3866675 92.395,32.22 C92.2716661,32.0533325 92.1233342,31.9250005 91.95,31.835 C91.7766658,31.7449996 91.5866677,31.7 91.38,31.7 C91.1733323,31.7 90.9833342,31.7449996 90.81,31.835 C90.6366658,31.9250005 90.488334,32.0533325 90.365,32.22 C90.2416661,32.3866675 90.146667,32.5849989 90.08,32.815 C90.013333,33.0450012 89.98,33.2999986 89.98,33.58 L89.98,33.58 Z M94.91,31.14 L95.59,31.14 L95.66,32.02 L95.69,32.02 C95.8566675,31.7133318 96.0583322,31.4700009 96.295,31.29 C96.5316679,31.1099991 96.7899986,31.02 97.07,31.02 C97.2633343,31.02 97.4366659,31.053333 97.59,31.12 L97.43,31.84 C97.3499996,31.8133332 97.276667,31.7933334 97.21,31.78 C97.143333,31.7666666 97.0600005,31.76 96.96,31.76 C96.7533323,31.76 96.5383345,31.8433325 96.315,32.01 C96.0916656,32.1766675 95.8966675,32.4666646 95.73,32.88 L95.73,36 L94.91,36 L94.91,31.14 Z M100.4,31.14 L101.08,31.14 L101.15,31.84 L101.18,31.84 C101.413335,31.6066655 101.658332,31.4116675 101.915,31.255 C102.171668,31.0983326 102.469998,31.02 102.81,31.02 C103.323336,31.02 103.698332,31.1799984 103.935,31.5 C104.171668,31.8200016 104.29,32.2933302 104.29,32.92 L104.29,36 L103.47,36 L103.47,33.03 C103.47,32.5699977 103.396667,32.2383344 103.25,32.035 C103.103333,31.8316657 102.870002,31.73 102.55,31.73 C102.296665,31.73 102.073334,31.7933327 101.88,31.92 C101.686666,32.0466673 101.466668,32.2333321 101.22,32.48 L101.22,36 L100.4,36 L100.4,31.14 Z M105.51,33.58 C105.51,33.1733313 105.571666,32.8116683 105.695,32.495 C105.818334,32.1783318 105.983332,31.9100011 106.19,31.69 C106.396668,31.4699989 106.634999,31.3033339 106.905,31.19 C107.175001,31.0766661 107.459999,31.02 107.76,31.02 C108.060002,31.02 108.344999,31.0766661 108.615,31.19 C108.885001,31.3033339 109.123332,31.4699989 109.33,31.69 C109.536668,31.9100011 109.701666,32.1783318 109.825,32.495 C109.948334,32.8116683 110.01,33.1733313 110.01,33.58 C110.01,33.980002 109.948334,34.3383318 109.825,34.655 C109.701666,34.9716683 109.536668,35.2383323 109.33,35.455 C109.123332,35.6716678 108.885001,35.8366661 108.615,35.95 C108.344999,36.0633339 108.060002,36.12 107.76,36.12 C107.459999,36.12 107.175001,36.0633339 106.905,35.95 C106.634999,35.8366661 106.396668,35.6716678 106.19,35.455 C105.983332,35.2383323 105.818334,34.9716683 105.695,34.655 C105.571666,34.3383318 105.51,33.980002 105.51,33.58 L105.51,33.58 Z M106.36,33.58 C106.36,33.8600014 106.393333,34.1133322 106.46,34.34 C106.526667,34.5666678 106.621666,34.7616659 106.745,34.925 C106.868334,35.0883342 107.016666,35.2149996 107.19,35.305 C107.363334,35.3950005 107.553332,35.44 107.76,35.44 C107.966668,35.44 108.156666,35.3950005 108.33,35.305 C108.503334,35.2149996 108.651666,35.0883342 108.775,34.925 C108.898334,34.7616659 108.993333,34.5666678 109.06,34.34 C109.126667,34.1133322 109.16,33.8600014 109.16,33.58 C109.16,33.2999986 109.126667,33.0450012 109.06,32.815 C108.993333,32.5849989 108.898334,32.3866675 108.775,32.22 C108.651666,32.0533325 108.503334,31.9250005 108.33,31.835 C108.156666,31.7449996 107.966668,31.7 107.76,31.7 C107.553332,31.7 107.363334,31.7449996 107.19,31.835 C107.016666,31.9250005 106.868334,32.0533325 106.745,32.22 C106.621666,32.3866675 106.526667,32.5849989 106.46,32.815 C106.393333,33.0450012 106.36,33.2999986 106.36,33.58 L106.36,33.58 Z M111.43,31.81 L110.71,31.81 L110.71,31.19 L111.47,31.14 L111.57,29.78 L112.26,29.78 L112.26,31.14 L113.57,31.14 L113.57,31.81 L112.26,31.81 L112.26,34.51 C112.26,34.8100015 112.314999,35.0416659 112.425,35.205 C112.535001,35.3683342 112.729999,35.45 113.01,35.45 C113.096667,35.45 113.19,35.4366668 113.29,35.41 C113.390001,35.3833332 113.48,35.3533335 113.56,35.32 L113.72,35.94 C113.586666,35.9866669 113.441667,36.0283332 113.285,36.065 C113.128333,36.1016669 112.973334,36.12 112.82,36.12 C112.559999,36.12 112.341668,36.0800004 112.165,36 C111.988332,35.9199996 111.845001,35.8100007 111.735,35.67 C111.624999,35.5299993 111.546667,35.360001 111.5,35.16 C111.453333,34.959999 111.43,34.7400012 111.43,34.5 L111.43,31.81 Z M116.83,31.81 L116.11,31.81 L116.11,31.19 L116.87,31.14 L116.97,29.78 L117.66,29.78 L117.66,31.14 L118.97,31.14 L118.97,31.81 L117.66,31.81 L117.66,34.51 C117.66,34.8100015 117.714999,35.0416659 117.825,35.205 C117.935001,35.3683342 118.129999,35.45 118.41,35.45 C118.496667,35.45 118.59,35.4366668 118.69,35.41 C118.790001,35.3833332 118.88,35.3533335 118.96,35.32 L119.12,35.94 C118.986666,35.9866669 118.841667,36.0283332 118.685,36.065 C118.528333,36.1016669 118.373334,36.12 118.22,36.12 C117.959999,36.12 117.741668,36.0800004 117.565,36 C117.388332,35.9199996 117.245001,35.8100007 117.135,35.67 C117.024999,35.5299993 116.946667,35.360001 116.9,35.16 C116.853333,34.959999 116.83,34.7400012 116.83,34.5 L116.83,31.81 Z M119.61,33.58 C119.61,33.1733313 119.671666,32.8116683 119.795,32.495 C119.918334,32.1783318 120.083332,31.9100011 120.29,31.69 C120.496668,31.4699989 120.734999,31.3033339 121.005,31.19 C121.275001,31.0766661 121.559999,31.02 121.86,31.02 C122.160002,31.02 122.444999,31.0766661 122.715,31.19 C122.985001,31.3033339 123.223332,31.4699989 123.43,31.69 C123.636668,31.9100011 123.801666,32.1783318 123.925,32.495 C124.048334,32.8116683 124.11,33.1733313 124.11,33.58 C124.11,33.980002 124.048334,34.3383318 123.925,34.655 C123.801666,34.9716683 123.636668,35.2383323 123.43,35.455 C123.223332,35.6716678 122.985001,35.8366661 122.715,35.95 C122.444999,36.0633339 122.160002,36.12 121.86,36.12 C121.559999,36.12 121.275001,36.0633339 121.005,35.95 C120.734999,35.8366661 120.496668,35.6716678 120.29,35.455 C120.083332,35.2383323 119.918334,34.9716683 119.795,34.655 C119.671666,34.3383318 119.61,33.980002 119.61,33.58 L119.61,33.58 Z M120.46,33.58 C120.46,33.8600014 120.493333,34.1133322 120.56,34.34 C120.626667,34.5666678 120.721666,34.7616659 120.845,34.925 C120.968334,35.0883342 121.116666,35.2149996 121.29,35.305 C121.463334,35.3950005 121.653332,35.44 121.86,35.44 C122.066668,35.44 122.256666,35.3950005 122.43,35.305 C122.603334,35.2149996 122.751666,35.0883342 122.875,34.925 C122.998334,34.7616659 123.093333,34.5666678 123.16,34.34 C123.226667,34.1133322 123.26,33.8600014 123.26,33.58 C123.26,33.2999986 123.226667,33.0450012 123.16,32.815 C123.093333,32.5849989 122.998334,32.3866675 122.875,32.22 C122.751666,32.0533325 122.603334,31.9250005 122.43,31.835 C122.256666,31.7449996 122.066668,31.7 121.86,31.7 C121.653332,31.7 121.463334,31.7449996 121.29,31.835 C121.116666,31.9250005 120.968334,32.0533325 120.845,32.22 C120.721666,32.3866675 120.626667,32.5849989 120.56,32.815 C120.493333,33.0450012 120.46,33.2999986 120.46,33.58 L120.46,33.58 Z M127.41,28.88 L128.23,28.88 L128.23,30.82 L128.21,31.7 C128.430001,31.5066657 128.669999,31.3450007 128.93,31.215 C129.190001,31.0849994 129.456665,31.02 129.73,31.02 C130.043335,31.02 130.319999,31.0783328 130.56,31.195 C130.800001,31.3116673 131.001666,31.4783323 131.165,31.695 C131.328334,31.9116678 131.451666,32.1716652 131.535,32.475 C131.618334,32.7783349 131.66,33.1166648 131.66,33.49 C131.66,33.9033354 131.603334,34.2733317 131.49,34.6 C131.376666,34.9266683 131.223334,35.2033322 131.03,35.43 C130.836666,35.6566678 130.613335,35.8283328 130.36,35.945 C130.106665,36.0616673 129.840001,36.12 129.56,36.12 C129.333332,36.12 129.098335,36.0683339 128.855,35.965 C128.611665,35.8616662 128.383334,35.7133343 128.17,35.52 L128.14,35.52 L128.07,36 L127.41,36 L127.41,28.88 Z M128.23,34.92 C128.443334,35.1066676 128.654999,35.238333 128.865,35.315 C129.075001,35.3916671 129.259999,35.43 129.42,35.43 C129.620001,35.43 129.804999,35.3850005 129.975,35.295 C130.145001,35.2049996 130.291666,35.0783342 130.415,34.915 C130.538334,34.7516659 130.635,34.5500012 130.705,34.31 C130.775,34.0699988 130.81,33.8000015 130.81,33.5 C130.81,33.233332 130.786667,32.9900011 130.74,32.77 C130.693333,32.5499989 130.618334,32.3616675 130.515,32.205 C130.411666,32.0483326 130.278334,31.9266671 130.115,31.84 C129.951666,31.7533329 129.756668,31.71 129.53,31.71 C129.136665,31.71 128.703336,31.9299978 128.23,32.37 L128.23,34.92 Z M132.6,33.58 C132.6,33.179998 132.661666,32.8216683 132.785,32.505 C132.908334,32.1883318 133.071666,31.9200011 133.275,31.7 C133.478334,31.4799989 133.709999,31.3116673 133.97,31.195 C134.230001,31.0783328 134.499999,31.02 134.78,31.02 C135.086668,31.02 135.361665,31.0733328 135.605,31.18 C135.848335,31.2866672 136.051666,31.439999 136.215,31.64 C136.378334,31.840001 136.503333,32.0799986 136.59,32.36 C136.676667,32.6400014 136.72,32.9533316 136.72,33.3 C136.72,33.4800009 136.71,33.6299994 136.69,33.75 L133.41,33.75 C133.443334,34.2766693 133.604999,34.6933318 133.895,35 C134.185001,35.3066682 134.563331,35.46 135.03,35.46 C135.263335,35.46 135.478332,35.4250004 135.675,35.355 C135.871668,35.2849997 136.059999,35.1933339 136.24,35.08 L136.53,35.62 C136.316666,35.753334 136.080001,35.8699995 135.82,35.97 C135.559999,36.0700005 135.263335,36.12 134.93,36.12 C134.603332,36.12 134.298335,36.0616673 134.015,35.945 C133.731665,35.8283328 133.485001,35.6616678 133.275,35.445 C133.064999,35.2283323 132.900001,34.9633349 132.78,34.65 C132.659999,34.3366651 132.6,33.980002 132.6,33.58 L132.6,33.58 Z M136,33.21 C136,32.7099975 135.895001,32.3283347 135.685,32.065 C135.474999,31.8016654 135.180002,31.67 134.8,31.67 C134.626666,31.67 134.461667,31.7049997 134.305,31.775 C134.148333,31.8450004 134.006667,31.9449994 133.88,32.075 C133.753333,32.2050007 133.648334,32.3649991 133.565,32.555 C133.481666,32.745001 133.426667,32.9633321 133.4,33.21 L136,33.21 Z M138.04,35.5 C138.04,35.3066657 138.098333,35.1516673 138.215,35.035 C138.331667,34.9183328 138.473333,34.86 138.64,34.86 C138.800001,34.86 138.938333,34.9183328 139.055,35.035 C139.171667,35.1516673 139.23,35.3066657 139.23,35.5 C139.23,35.6800009 139.171667,35.8283328 139.055,35.945 C138.938333,36.0616673 138.800001,36.12 138.64,36.12 C138.473333,36.12 138.331667,36.0616673 138.215,35.945 C138.098333,35.8283328 138.04,35.6800009 138.04,35.5 L138.04,35.5 Z M141.39,35.5 C141.39,35.3066657 141.448333,35.1516673 141.565,35.035 C141.681667,34.9183328 141.823333,34.86 141.99,34.86 C142.150001,34.86 142.288333,34.9183328 142.405,35.035 C142.521667,35.1516673 142.58,35.3066657 142.58,35.5 C142.58,35.6800009 142.521667,35.8283328 142.405,35.945 C142.288333,36.0616673 142.150001,36.12 141.99,36.12 C141.823333,36.12 141.681667,36.0616673 141.565,35.945 C141.448333,35.8283328 141.39,35.6800009 141.39,35.5 L141.39,35.5 Z M144.74,35.5 C144.74,35.3066657 144.798333,35.1516673 144.915,35.035 C145.031667,34.9183328 145.173333,34.86 145.34,34.86 C145.500001,34.86 145.638333,34.9183328 145.755,35.035 C145.871667,35.1516673 145.93,35.3066657 145.93,35.5 C145.93,35.6800009 145.871667,35.8283328 145.755,35.945 C145.638333,36.0616673 145.500001,36.12 145.34,36.12 C145.173333,36.12 145.031667,36.0616673 144.915,35.945 C144.798333,35.8283328 144.74,35.6800009 144.74,35.5 L144.74,35.5 Z" id="To-be-or-not-to-be…" fill="#444444" sketch:type="MSShapeGroup"></path>
                    </g>
                    <g id="Line-+-Line-Copy-5" transform="translate(48.000000, 26.000000)" stroke="#656363" stroke-linecap="square" sketch:type="MSShapeGroup">
                        <path d="M1.5,1.5 L27.5,1.5" id="Line" stroke-width="3"></path>
                        <path d="M0.5,5.5 L28.5,5.5" id="Line-Copy-5"></path>
                    </g>
                    <g id="Line-+-Line-Copy-6" transform="translate(48.000000, 52.000000)" stroke="#656363" stroke-linecap="square" sketch:type="MSShapeGroup">
                        <path d="M1.5,1.5 L27.5,1.5" id="Line" stroke-width="3"></path>
                        <path d="M0.5,5.5 L28.5,5.5" id="Line-Copy-5"></path>
                    </g>
                    <g id="Line-+-Line-Copy-8" transform="translate(48.000000, 39.000000)" stroke="#448AC9" stroke-linecap="square" sketch:type="MSShapeGroup">
                        <path d="M1.5,1.5 L27.5,1.5" id="Line" stroke-width="3"></path>
                        <path d="M0.5,5.5 L28.5,5.5" id="Line-Copy-5"></path>
                    </g>
                    <g id="Line-+-Line-Copy-7" transform="translate(48.000000, 65.000000)" stroke="#656363" stroke-linecap="square" sketch:type="MSShapeGroup">
                        <path d="M1.5,1.5 L27.5,1.5" id="Line" stroke-width="3"></path>
                        <path d="M0.5,5.5 L28.5,5.5" id="Line-Copy-5"></path>
                    </g>
                </g>
                <g id="Group" transform="translate(46.000000, 0.000000)" sketch:type="MSShapeGroup">
                    <rect id="body-copy" fill="#FFFFFF" x="1.38346129" y="0.931679898" width="118.983675" height="248.447973" rx="18.6206897"></rect>
                    <g id="iPhone-5s-Copy-2" stroke-linejoin="round">
                        <rect id="btn-power" stroke="#8C8C8C" x="80.9146547" y="0" width="18.7868961" height="3.72671959" rx="0.620689655"></rect>
                        <rect id="btn-silent" stroke="#8C8C8C" transform="translate(2.322806, 40.372796) rotate(-270.000000) translate(-2.322806, -40.372796) " x="-3.31326273" y="38.5094358" width="11.2721376" height="3.72671959" rx="0.620689655"></rect>
                        <rect id="Rectangle-13" stroke="#8C8C8C" transform="translate(2.635921, 62.422553) rotate(-270.000000) translate(-2.635921, -62.422553) " x="-1.74768805" y="60.2486334" width="8.76721817" height="4.34783952" rx="0.620689655"></rect>
                        <rect id="Rectangle-13" stroke="#8C8C8C" transform="translate(2.635921, 82.919511) rotate(-270.000000) translate(-2.635921, -82.919511) " x="-1.74768805" y="80.7455911" width="8.76721817" height="4.34783952" rx="0.620689655"></rect>
                        <path d="M20.0005467,0.931679898 C9.71861432,0.931679898 1.38346129,9.26903116 1.38346129,19.5548254 L1.38346129,230.756507 C1.38346129,241.041786 9.7257947,249.379653 20.0005467,249.379653 L102.758316,249.379653 C113.040248,249.379653 121.375401,241.042301 121.375401,230.756507 L121.375401,19.5548254 C121.375401,9.26954616 113.033068,0.931679898 102.758316,0.931679898 L20.0005467,0.931679898 Z" id="body" stroke="#9F9F9F" fill="#FFFFFF"></path>
                        <ellipse id="btn-home" stroke="#8C8C8C" fill="#FFFFFF" cx="60.8752989" cy="229.503815" rx="9.70656298" ry="9.62735894"></ellipse>
                        <rect id="speaker" stroke="#8C8C8C" fill="#FFFFFF" x="51.1687359" y="20.8075177" width="19.413126" height="1.8633598" rx="1.55172414"></rect>
                    </g>
                    <rect id="Screen" stroke="#BDBDBD" stroke-linejoin="round" fill="#FFFFFF" x="11.0909091" y="34" width="100.196779" height="176.398061"></rect>
                    <path d="M88.2231405,107.5 L88.2231405,118.5" id="Line" stroke="#979797" stroke-linecap="square"></path>
                    <path d="M11.5950413,54.5 L110.487229,54.5" id="Line" stroke="#E0EEFB" stroke-linecap="square"></path>
                    <path d="M46.8842975,45.5 L74.1261037,45.5" id="Line" stroke="#448AC9" stroke-width="3" stroke-linecap="square"></path>
                    <g id="Add-Icon-Copy" transform="translate(100.826446, 42.000000)" stroke="#448AC9" stroke-linecap="square">
                        <path d="M3.08780992,0 L3.08780992,6" id="Line"></path>
                        <path d="M6.18158422,3 L0.00596438133,3" id="Line-Copy"></path>
                    </g>
                    <path d="M20.1652893,42.6075 L19.4868113,42 L16.1322314,45 L19.4868113,48 L20.1652893,47.3925 L17.4912879,45 L20.1652893,42.6075 Z" id="Shape" fill="#448AC9"></path>
                    <path d="M18.3922314,92.14 L16.4122314,92.14 L16.4122314,91.44 L21.2122314,91.44 L21.2122314,92.14 L19.2322314,92.14 L19.2322314,98 L18.3922314,98 L18.3922314,92.14 Z M21.2922314,95.58 C21.2922314,95.1733313 21.3538975,94.8116683 21.4772314,94.495 C21.6005654,94.1783318 21.7655637,93.9100011 21.9722314,93.69 C22.1788991,93.4699989 22.4172301,93.3033339 22.6872314,93.19 C22.9572328,93.0766661 23.2422299,93.02 23.5422314,93.02 C23.8422329,93.02 24.1272301,93.0766661 24.3972314,93.19 C24.6672328,93.3033339 24.9055637,93.4699989 25.1122314,93.69 C25.3188991,93.9100011 25.4838975,94.1783318 25.6072314,94.495 C25.7305654,94.8116683 25.7922314,95.1733313 25.7922314,95.58 C25.7922314,95.980002 25.7305654,96.3383318 25.6072314,96.655 C25.4838975,96.9716683 25.3188991,97.2383323 25.1122314,97.455 C24.9055637,97.6716678 24.6672328,97.8366661 24.3972314,97.95 C24.1272301,98.0633339 23.8422329,98.12 23.5422314,98.12 C23.2422299,98.12 22.9572328,98.0633339 22.6872314,97.95 C22.4172301,97.8366661 22.1788991,97.6716678 21.9722314,97.455 C21.7655637,97.2383323 21.6005654,96.9716683 21.4772314,96.655 C21.3538975,96.3383318 21.2922314,95.980002 21.2922314,95.58 L21.2922314,95.58 Z M22.1422314,95.58 C22.1422314,95.8600014 22.1755644,96.1133322 22.2422314,96.34 C22.3088984,96.5666678 22.4038975,96.7616659 22.5272314,96.925 C22.6505654,97.0883342 22.7988972,97.2149996 22.9722314,97.305 C23.1455656,97.3950005 23.3355637,97.44 23.5422314,97.44 C23.7488991,97.44 23.9388972,97.3950005 24.1122314,97.305 C24.2855656,97.2149996 24.4338975,97.0883342 24.5572314,96.925 C24.6805654,96.7616659 24.7755644,96.5666678 24.8422314,96.34 C24.9088984,96.1133322 24.9422314,95.8600014 24.9422314,95.58 C24.9422314,95.2999986 24.9088984,95.0450012 24.8422314,94.815 C24.7755644,94.5849989 24.6805654,94.3866675 24.5572314,94.22 C24.4338975,94.0533325 24.2855656,93.9250005 24.1122314,93.835 C23.9388972,93.7449996 23.7488991,93.7 23.5422314,93.7 C23.3355637,93.7 23.1455656,93.7449996 22.9722314,93.835 C22.7988972,93.9250005 22.6505654,94.0533325 22.5272314,94.22 C22.4038975,94.3866675 22.3088984,94.5849989 22.2422314,94.815 C22.1755644,95.0450012 22.1422314,95.2999986 22.1422314,95.58 L22.1422314,95.58 Z M29.0922314,90.88 L29.9122314,90.88 L29.9122314,92.82 L29.8922314,93.7 C30.1122325,93.5066657 30.3522301,93.3450007 30.6122314,93.215 C30.8722327,93.0849994 31.1388967,93.02 31.4122314,93.02 C31.7255663,93.02 32.0022302,93.0783328 32.2422314,93.195 C32.4822326,93.3116673 32.6838973,93.4783323 32.8472314,93.695 C33.0105656,93.9116678 33.1338977,94.1716652 33.2172314,94.475 C33.3005652,94.7783349 33.3422314,95.1166648 33.3422314,95.49 C33.3422314,95.9033354 33.2855653,96.2733317 33.1722314,96.6 C33.0588975,96.9266683 32.9055657,97.2033322 32.7122314,97.43 C32.5188971,97.6566678 32.295566,97.8283328 32.0422314,97.945 C31.7888968,98.0616673 31.5222328,98.12 31.2422314,98.12 C31.0155636,98.12 30.780566,98.0683339 30.5372314,97.965 C30.2938969,97.8616662 30.0655658,97.7133343 29.8522314,97.52 L29.8222314,97.52 L29.7522314,98 L29.0922314,98 L29.0922314,90.88 Z M29.9122314,96.92 C30.1255658,97.1066676 30.3372304,97.238333 30.5472314,97.315 C30.7572325,97.3916671 30.9422306,97.43 31.1022314,97.43 C31.3022324,97.43 31.4872306,97.3850005 31.6572314,97.295 C31.8272323,97.2049996 31.9738975,97.0783342 32.0972314,96.915 C32.2205654,96.7516659 32.3172311,96.5500012 32.3872314,96.31 C32.4572318,96.0699988 32.4922314,95.8000015 32.4922314,95.5 C32.4922314,95.233332 32.4688983,94.9900011 32.4222314,94.77 C32.3755645,94.5499989 32.3005653,94.3616675 32.1972314,94.205 C32.0938976,94.0483326 31.9605656,93.9266671 31.7972314,93.84 C31.6338973,93.7533329 31.4388992,93.71 31.2122314,93.71 C30.8188961,93.71 30.3855671,93.9299978 29.9122314,94.37 L29.9122314,96.92 Z M34.2822314,95.58 C34.2822314,95.179998 34.3438975,94.8216683 34.4672314,94.505 C34.5905654,94.1883318 34.7538971,93.9200011 34.9572314,93.7 C35.1605658,93.4799989 35.3922301,93.3116673 35.6522314,93.195 C35.9122327,93.0783328 36.18223,93.02 36.4622314,93.02 C36.7688996,93.02 37.0438969,93.0733328 37.2872314,93.18 C37.530566,93.2866672 37.7338973,93.439999 37.8972314,93.64 C38.0605656,93.840001 38.1855643,94.0799986 38.2722314,94.36 C38.3588985,94.6400014 38.4022314,94.9533316 38.4022314,95.3 C38.4022314,95.4800009 38.3922315,95.6299994 38.3722314,95.75 L35.0922314,95.75 C35.1255649,96.2766693 35.28723,96.6933318 35.5772314,97 C35.8672329,97.3066682 36.2455624,97.46 36.7122314,97.46 C36.9455659,97.46 37.1605638,97.4250004 37.3572314,97.355 C37.5538991,97.2849997 37.7422305,97.1933339 37.9222314,97.08 L38.2122314,97.62 C37.998897,97.753334 37.7622327,97.8699995 37.5022314,97.97 C37.2422301,98.0700005 36.9455664,98.12 36.6122314,98.12 C36.2855631,98.12 35.9805662,98.0616673 35.6972314,97.945 C35.4138967,97.8283328 35.1672325,97.6616678 34.9572314,97.445 C34.7472304,97.2283323 34.582232,96.9633349 34.4622314,96.65 C34.3422308,96.3366651 34.2822314,95.980002 34.2822314,95.58 L34.2822314,95.58 Z M37.6822314,95.21 C37.6822314,94.7099975 37.5772325,94.3283347 37.3672314,94.065 C37.1572304,93.8016654 36.8622333,93.67 36.4822314,93.67 C36.3088972,93.67 36.1438989,93.7049997 35.9872314,93.775 C35.830564,93.8450004 35.6888987,93.9449994 35.5622314,94.075 C35.4355641,94.2050007 35.3305652,94.3649991 35.2472314,94.555 C35.1638977,94.745001 35.1088982,94.9633321 35.0822314,95.21 L37.6822314,95.21 Z M41.2622314,95.58 C41.2622314,95.1733313 41.3238975,94.8116683 41.4472314,94.495 C41.5705654,94.1783318 41.7355637,93.9100011 41.9422314,93.69 C42.1488991,93.4699989 42.3872301,93.3033339 42.6572314,93.19 C42.9272328,93.0766661 43.2122299,93.02 43.5122314,93.02 C43.8122329,93.02 44.0972301,93.0766661 44.3672314,93.19 C44.6372328,93.3033339 44.8755637,93.4699989 45.0822314,93.69 C45.2888991,93.9100011 45.4538975,94.1783318 45.5772314,94.495 C45.7005654,94.8116683 45.7622314,95.1733313 45.7622314,95.58 C45.7622314,95.980002 45.7005654,96.3383318 45.5772314,96.655 C45.4538975,96.9716683 45.2888991,97.2383323 45.0822314,97.455 C44.8755637,97.6716678 44.6372328,97.8366661 44.3672314,97.95 C44.0972301,98.0633339 43.8122329,98.12 43.5122314,98.12 C43.2122299,98.12 42.9272328,98.0633339 42.6572314,97.95 C42.3872301,97.8366661 42.1488991,97.6716678 41.9422314,97.455 C41.7355637,97.2383323 41.5705654,96.9716683 41.4472314,96.655 C41.3238975,96.3383318 41.2622314,95.980002 41.2622314,95.58 L41.2622314,95.58 Z M42.1122314,95.58 C42.1122314,95.8600014 42.1455644,96.1133322 42.2122314,96.34 C42.2788984,96.5666678 42.3738975,96.7616659 42.4972314,96.925 C42.6205654,97.0883342 42.7688972,97.2149996 42.9422314,97.305 C43.1155656,97.3950005 43.3055637,97.44 43.5122314,97.44 C43.7188991,97.44 43.9088972,97.3950005 44.0822314,97.305 C44.2555656,97.2149996 44.4038975,97.0883342 44.5272314,96.925 C44.6505654,96.7616659 44.7455644,96.5666678 44.8122314,96.34 C44.8788984,96.1133322 44.9122314,95.8600014 44.9122314,95.58 C44.9122314,95.2999986 44.8788984,95.0450012 44.8122314,94.815 C44.7455644,94.5849989 44.6505654,94.3866675 44.5272314,94.22 C44.4038975,94.0533325 44.2555656,93.9250005 44.0822314,93.835 C43.9088972,93.7449996 43.7188991,93.7 43.5122314,93.7 C43.3055637,93.7 43.1155656,93.7449996 42.9422314,93.835 C42.7688972,93.9250005 42.6205654,94.0533325 42.4972314,94.22 C42.3738975,94.3866675 42.2788984,94.5849989 42.2122314,94.815 C42.1455644,95.0450012 42.1122314,95.2999986 42.1122314,95.58 L42.1122314,95.58 Z M47.0422314,93.14 L47.7222314,93.14 L47.7922314,94.02 L47.8222314,94.02 C47.9888989,93.7133318 48.1905636,93.4700009 48.4272314,93.29 C48.6638993,93.1099991 48.92223,93.02 49.2022314,93.02 C49.3955657,93.02 49.5688973,93.053333 49.7222314,93.12 L49.5622314,93.84 C49.482231,93.8133332 49.4088984,93.7933334 49.3422314,93.78 C49.2755644,93.7666666 49.1922319,93.76 49.0922314,93.76 C48.8855637,93.76 48.6705659,93.8433325 48.4472314,94.01 C48.223897,94.1766675 48.0288989,94.4666646 47.8622314,94.88 L47.8622314,98 L47.0422314,98 L47.0422314,93.14 Z M52.5322314,93.14 L53.2122314,93.14 L53.2822314,93.84 L53.3122314,93.84 C53.5455659,93.6066655 53.7905635,93.4116675 54.0472314,93.255 C54.3038994,93.0983326 54.6022297,93.02 54.9422314,93.02 C55.4555673,93.02 55.8305636,93.1799984 56.0672314,93.5 C56.3038993,93.8200016 56.4222314,94.2933302 56.4222314,94.92 L56.4222314,98 L55.6022314,98 L55.6022314,95.03 C55.6022314,94.5699977 55.5288988,94.2383344 55.3822314,94.035 C55.235564,93.8316657 55.002233,93.73 54.6822314,93.73 C54.4288968,93.73 54.2055657,93.7933327 54.0122314,93.92 C53.8188971,94.0466673 53.5988993,94.2333321 53.3522314,94.48 L53.3522314,98 L52.5322314,98 L52.5322314,93.14 Z M57.6422314,95.58 C57.6422314,95.1733313 57.7038975,94.8116683 57.8272314,94.495 C57.9505654,94.1783318 58.1155637,93.9100011 58.3222314,93.69 C58.5288991,93.4699989 58.7672301,93.3033339 59.0372314,93.19 C59.3072328,93.0766661 59.5922299,93.02 59.8922314,93.02 C60.1922329,93.02 60.4772301,93.0766661 60.7472314,93.19 C61.0172328,93.3033339 61.2555637,93.4699989 61.4622314,93.69 C61.6688991,93.9100011 61.8338975,94.1783318 61.9572314,94.495 C62.0805654,94.8116683 62.1422314,95.1733313 62.1422314,95.58 C62.1422314,95.980002 62.0805654,96.3383318 61.9572314,96.655 C61.8338975,96.9716683 61.6688991,97.2383323 61.4622314,97.455 C61.2555637,97.6716678 61.0172328,97.8366661 60.7472314,97.95 C60.4772301,98.0633339 60.1922329,98.12 59.8922314,98.12 C59.5922299,98.12 59.3072328,98.0633339 59.0372314,97.95 C58.7672301,97.8366661 58.5288991,97.6716678 58.3222314,97.455 C58.1155637,97.2383323 57.9505654,96.9716683 57.8272314,96.655 C57.7038975,96.3383318 57.6422314,95.980002 57.6422314,95.58 L57.6422314,95.58 Z M58.4922314,95.58 C58.4922314,95.8600014 58.5255644,96.1133322 58.5922314,96.34 C58.6588984,96.5666678 58.7538975,96.7616659 58.8772314,96.925 C59.0005654,97.0883342 59.1488972,97.2149996 59.3222314,97.305 C59.4955656,97.3950005 59.6855637,97.44 59.8922314,97.44 C60.0988991,97.44 60.2888972,97.3950005 60.4622314,97.305 C60.6355656,97.2149996 60.7838975,97.0883342 60.9072314,96.925 C61.0305654,96.7616659 61.1255644,96.5666678 61.1922314,96.34 C61.2588984,96.1133322 61.2922314,95.8600014 61.2922314,95.58 C61.2922314,95.2999986 61.2588984,95.0450012 61.1922314,94.815 C61.1255644,94.5849989 61.0305654,94.3866675 60.9072314,94.22 C60.7838975,94.0533325 60.6355656,93.9250005 60.4622314,93.835 C60.2888972,93.7449996 60.0988991,93.7 59.8922314,93.7 C59.6855637,93.7 59.4955656,93.7449996 59.3222314,93.835 C59.1488972,93.9250005 59.0005654,94.0533325 58.8772314,94.22 C58.7538975,94.3866675 58.6588984,94.5849989 58.5922314,94.815 C58.5255644,95.0450012 58.4922314,95.2999986 58.4922314,95.58 L58.4922314,95.58 Z M63.5622314,93.81 L62.8422314,93.81 L62.8422314,93.19 L63.6022314,93.14 L63.7022314,91.78 L64.3922314,91.78 L64.3922314,93.14 L65.7022314,93.14 L65.7022314,93.81 L64.3922314,93.81 L64.3922314,96.51 C64.3922314,96.8100015 64.4472309,97.0416659 64.5572314,97.205 C64.667232,97.3683342 64.86223,97.45 65.1422314,97.45 C65.2288985,97.45 65.3222309,97.4366668 65.4222314,97.41 C65.5222319,97.3833332 65.612231,97.3533335 65.6922314,97.32 L65.8522314,97.94 C65.7188974,97.9866669 65.5738989,98.0283332 65.4172314,98.065 C65.260564,98.1016669 65.1055655,98.12 64.9522314,98.12 C64.6922301,98.12 64.473899,98.0800004 64.2972314,98 C64.1205639,97.9199996 63.977232,97.8100007 63.8672314,97.67 C63.7572309,97.5299993 63.6788983,97.360001 63.6322314,97.16 C63.5855645,96.959999 63.5622314,96.7400012 63.5622314,96.5 L63.5622314,93.81 Z M68.9622314,93.81 L68.2422314,93.81 L68.2422314,93.19 L69.0022314,93.14 L69.1022314,91.78 L69.7922314,91.78 L69.7922314,93.14 L71.1022314,93.14 L71.1022314,93.81 L69.7922314,93.81 L69.7922314,96.51 C69.7922314,96.8100015 69.8472309,97.0416659 69.9572314,97.205 C70.067232,97.3683342 70.26223,97.45 70.5422314,97.45 C70.6288985,97.45 70.7222309,97.4366668 70.8222314,97.41 C70.9222319,97.3833332 71.012231,97.3533335 71.0922314,97.32 L71.2522314,97.94 C71.1188974,97.9866669 70.9738989,98.0283332 70.8172314,98.065 C70.660564,98.1016669 70.5055655,98.12 70.3522314,98.12 C70.0922301,98.12 69.873899,98.0800004 69.6972314,98 C69.5205639,97.9199996 69.377232,97.8100007 69.2672314,97.67 C69.1572309,97.5299993 69.0788983,97.360001 69.0322314,97.16 C68.9855645,96.959999 68.9622314,96.7400012 68.9622314,96.5 L68.9622314,93.81 Z M71.7422314,95.58 C71.7422314,95.1733313 71.8038975,94.8116683 71.9272314,94.495 C72.0505654,94.1783318 72.2155637,93.9100011 72.4222314,93.69 C72.6288991,93.4699989 72.8672301,93.3033339 73.1372314,93.19 C73.4072328,93.0766661 73.6922299,93.02 73.9922314,93.02 C74.2922329,93.02 74.5772301,93.0766661 74.8472314,93.19 C75.1172328,93.3033339 75.3555637,93.4699989 75.5622314,93.69 C75.7688991,93.9100011 75.9338975,94.1783318 76.0572314,94.495 C76.1805654,94.8116683 76.2422314,95.1733313 76.2422314,95.58 C76.2422314,95.980002 76.1805654,96.3383318 76.0572314,96.655 C75.9338975,96.9716683 75.7688991,97.2383323 75.5622314,97.455 C75.3555637,97.6716678 75.1172328,97.8366661 74.8472314,97.95 C74.5772301,98.0633339 74.2922329,98.12 73.9922314,98.12 C73.6922299,98.12 73.4072328,98.0633339 73.1372314,97.95 C72.8672301,97.8366661 72.6288991,97.6716678 72.4222314,97.455 C72.2155637,97.2383323 72.0505654,96.9716683 71.9272314,96.655 C71.8038975,96.3383318 71.7422314,95.980002 71.7422314,95.58 L71.7422314,95.58 Z M72.5922314,95.58 C72.5922314,95.8600014 72.6255644,96.1133322 72.6922314,96.34 C72.7588984,96.5666678 72.8538975,96.7616659 72.9772314,96.925 C73.1005654,97.0883342 73.2488972,97.2149996 73.4222314,97.305 C73.5955656,97.3950005 73.7855637,97.44 73.9922314,97.44 C74.1988991,97.44 74.3888972,97.3950005 74.5622314,97.305 C74.7355656,97.2149996 74.8838975,97.0883342 75.0072314,96.925 C75.1305654,96.7616659 75.2255644,96.5666678 75.2922314,96.34 C75.3588984,96.1133322 75.3922314,95.8600014 75.3922314,95.58 C75.3922314,95.2999986 75.3588984,95.0450012 75.2922314,94.815 C75.2255644,94.5849989 75.1305654,94.3866675 75.0072314,94.22 C74.8838975,94.0533325 74.7355656,93.9250005 74.5622314,93.835 C74.3888972,93.7449996 74.1988991,93.7 73.9922314,93.7 C73.7855637,93.7 73.5955656,93.7449996 73.4222314,93.835 C73.2488972,93.9250005 73.1005654,94.0533325 72.9772314,94.22 C72.8538975,94.3866675 72.7588984,94.5849989 72.6922314,94.815 C72.6255644,95.0450012 72.5922314,95.2999986 72.5922314,95.58 L72.5922314,95.58 Z M79.5422314,90.88 L80.3622314,90.88 L80.3622314,92.82 L80.3422314,93.7 C80.5622325,93.5066657 80.8022301,93.3450007 81.0622314,93.215 C81.3222327,93.0849994 81.5888967,93.02 81.8622314,93.02 C82.1755663,93.02 82.4522302,93.0783328 82.6922314,93.195 C82.9322326,93.3116673 83.1338973,93.4783323 83.2972314,93.695 C83.4605656,93.9116678 83.5838977,94.1716652 83.6672314,94.475 C83.7505652,94.7783349 83.7922314,95.1166648 83.7922314,95.49 C83.7922314,95.9033354 83.7355653,96.2733317 83.6222314,96.6 C83.5088975,96.9266683 83.3555657,97.2033322 83.1622314,97.43 C82.9688971,97.6566678 82.745566,97.8283328 82.4922314,97.945 C82.2388968,98.0616673 81.9722328,98.12 81.6922314,98.12 C81.4655636,98.12 81.230566,98.0683339 80.9872314,97.965 C80.7438969,97.8616662 80.5155658,97.7133343 80.3022314,97.52 L80.2722314,97.52 L80.2022314,98 L79.5422314,98 L79.5422314,90.88 Z M80.3622314,96.92 C80.5755658,97.1066676 80.7872304,97.238333 80.9972314,97.315 C81.2072325,97.3916671 81.3922306,97.43 81.5522314,97.43 C81.7522324,97.43 81.9372306,97.3850005 82.1072314,97.295 C82.2772323,97.2049996 82.4238975,97.0783342 82.5472314,96.915 C82.6705654,96.7516659 82.7672311,96.5500012 82.8372314,96.31 C82.9072318,96.0699988 82.9422314,95.8000015 82.9422314,95.5 C82.9422314,95.233332 82.9188983,94.9900011 82.8722314,94.77 C82.8255645,94.5499989 82.7505653,94.3616675 82.6472314,94.205 C82.5438976,94.0483326 82.4105656,93.9266671 82.2472314,93.84 C82.0838973,93.7533329 81.8888992,93.71 81.6622314,93.71 C81.2688961,93.71 80.8355671,93.9299978 80.3622314,94.37 L80.3622314,96.92 Z M84.7322314,95.58 C84.7322314,95.179998 84.7938975,94.8216683 84.9172314,94.505 C85.0405654,94.1883318 85.2038971,93.9200011 85.4072314,93.7 C85.6105658,93.4799989 85.8422301,93.3116673 86.1022314,93.195 C86.3622327,93.0783328 86.63223,93.02 86.9122314,93.02 C87.2188996,93.02 87.4938969,93.0733328 87.7372314,93.18 C87.980566,93.2866672 88.1838973,93.439999 88.3472314,93.64 C88.5105656,93.840001 88.6355643,94.0799986 88.7222314,94.36 C88.8088985,94.6400014 88.8522314,94.9533316 88.8522314,95.3 C88.8522314,95.4800009 88.8422315,95.6299994 88.8222314,95.75 L85.5422314,95.75 C85.5755649,96.2766693 85.73723,96.6933318 86.0272314,97 C86.3172329,97.3066682 86.6955624,97.46 87.1622314,97.46 C87.3955659,97.46 87.6105638,97.4250004 87.8072314,97.355 C88.0038991,97.2849997 88.1922305,97.1933339 88.3722314,97.08 L88.6622314,97.62 C88.448897,97.753334 88.2122327,97.8699995 87.9522314,97.97 C87.6922301,98.0700005 87.3955664,98.12 87.0622314,98.12 C86.7355631,98.12 86.4305662,98.0616673 86.1472314,97.945 C85.8638967,97.8283328 85.6172325,97.6616678 85.4072314,97.445 C85.1972304,97.2283323 85.032232,96.9633349 84.9122314,96.65 C84.7922308,96.3366651 84.7322314,95.980002 84.7322314,95.58 L84.7322314,95.58 Z M88.1322314,95.21 C88.1322314,94.7099975 88.0272325,94.3283347 87.8172314,94.065 C87.6072304,93.8016654 87.3122333,93.67 86.9322314,93.67 C86.7588972,93.67 86.5938989,93.7049997 86.4372314,93.775 C86.280564,93.8450004 86.1388987,93.9449994 86.0122314,94.075 C85.8855641,94.2050007 85.7805652,94.3649991 85.6972314,94.555 C85.6138977,94.745001 85.5588982,94.9633321 85.5322314,95.21 L88.1322314,95.21 Z M90.1722314,97.5 C90.1722314,97.3066657 90.2305642,97.1516673 90.3472314,97.035 C90.4638987,96.9183328 90.6055639,96.86 90.7722314,96.86 C90.9322322,96.86 91.0705642,96.9183328 91.1872314,97.035 C91.3038987,97.1516673 91.3622314,97.3066657 91.3622314,97.5 C91.3622314,97.6800009 91.3038987,97.8283328 91.1872314,97.945 C91.0705642,98.0616673 90.9322322,98.12 90.7722314,98.12 C90.6055639,98.12 90.4638987,98.0616673 90.3472314,97.945 C90.2305642,97.8283328 90.1722314,97.6800009 90.1722314,97.5 L90.1722314,97.5 Z M93.5222314,97.5 C93.5222314,97.3066657 93.5805642,97.1516673 93.6972314,97.035 C93.8138987,96.9183328 93.9555639,96.86 94.1222314,96.86 C94.2822322,96.86 94.4205642,96.9183328 94.5372314,97.035 C94.6538987,97.1516673 94.7122314,97.3066657 94.7122314,97.5 C94.7122314,97.6800009 94.6538987,97.8283328 94.5372314,97.945 C94.4205642,98.0616673 94.2822322,98.12 94.1222314,98.12 C93.9555639,98.12 93.8138987,98.0616673 93.6972314,97.945 C93.5805642,97.8283328 93.5222314,97.6800009 93.5222314,97.5 L93.5222314,97.5 Z M96.8722314,97.5 C96.8722314,97.3066657 96.9305642,97.1516673 97.0472314,97.035 C97.1638987,96.9183328 97.3055639,96.86 97.4722314,96.86 C97.6322322,96.86 97.7705642,96.9183328 97.8872314,97.035 C98.0038987,97.1516673 98.0622314,97.3066657 98.0622314,97.5 C98.0622314,97.6800009 98.0038987,97.8283328 97.8872314,97.945 C97.7705642,98.0616673 97.6322322,98.12 97.4722314,98.12 C97.3055639,98.12 97.1638987,98.0616673 97.0472314,97.945 C96.9305642,97.8283328 96.8722314,97.6800009 96.8722314,97.5 L96.8722314,97.5 Z M18.3922314,110.14 L16.4122314,110.14 L16.4122314,109.44 L21.2122314,109.44 L21.2122314,110.14 L19.2322314,110.14 L19.2322314,116 L18.3922314,116 L18.3922314,110.14 Z M22.3122314,108.88 L23.1322314,108.88 L23.1322314,110.82 L23.1022314,111.82 C23.3355659,111.599999 23.5788968,111.411667 23.8322314,111.255 C24.085566,111.098333 24.3822297,111.02 24.7222314,111.02 C25.2355673,111.02 25.6105636,111.179998 25.8472314,111.5 C26.0838993,111.820002 26.2022314,112.29333 26.2022314,112.92 L26.2022314,116 L25.3822314,116 L25.3822314,113.03 C25.3822314,112.569998 25.3088988,112.238334 25.1622314,112.035 C25.015564,111.831666 24.782233,111.73 24.4622314,111.73 C24.2088968,111.73 23.9855657,111.793333 23.7922314,111.92 C23.5988971,112.046667 23.3788993,112.233332 23.1322314,112.48 L23.1322314,116 L22.3122314,116 L22.3122314,108.88 Z M27.5122314,114.74 C27.5122314,114.206664 27.7505624,113.798335 28.2272314,113.515 C28.7039005,113.231665 29.4622262,113.033334 30.5022314,112.92 C30.5022314,112.766666 30.4872316,112.616667 30.4572314,112.47 C30.4272313,112.323333 30.3738985,112.193334 30.2972314,112.08 C30.2205644,111.966666 30.1188987,111.875 29.9922314,111.805 C29.8655641,111.735 29.7022324,111.7 29.5022314,111.7 C29.2155633,111.7 28.950566,111.753333 28.7072314,111.86 C28.4638969,111.966667 28.2455657,112.086666 28.0522314,112.22 L27.7222314,111.65 C27.9488992,111.503333 28.2255631,111.361667 28.5522314,111.225 C28.8788997,111.088333 29.2388961,111.02 29.6322314,111.02 C30.2255677,111.02 30.6555634,111.201665 30.9222314,111.565 C31.1888994,111.928335 31.3222314,112.41333 31.3222314,113.02 L31.3222314,116 L30.6422314,116 L30.5722314,115.42 L30.5522314,115.42 C30.3188969,115.613334 30.0672328,115.778333 29.7972314,115.915 C29.5272301,116.051667 29.2422329,116.12 28.9422314,116.12 C28.528896,116.12 28.1872328,116.000001 27.9172314,115.76 C27.6472301,115.519999 27.5122314,115.180002 27.5122314,114.74 L27.5122314,114.74 Z M28.3222314,114.68 C28.3222314,114.960001 28.4038973,115.159999 28.5672314,115.28 C28.7305656,115.400001 28.9322302,115.46 29.1722314,115.46 C29.4055659,115.46 29.6272304,115.405001 29.8372314,115.295 C30.0472325,115.184999 30.2688969,115.023334 30.5022314,114.81 L30.5022314,113.46 C30.0955627,113.513334 29.7522328,113.576666 29.4722314,113.65 C29.19223,113.723334 28.9672323,113.81 28.7972314,113.91 C28.6272306,114.010001 28.5055651,114.124999 28.4322314,114.255 C28.3588977,114.385001 28.3222314,114.526666 28.3222314,114.68 L28.3222314,114.68 Z M33.0122314,111.81 L32.2922314,111.81 L32.2922314,111.19 L33.0522314,111.14 L33.1522314,109.78 L33.8422314,109.78 L33.8422314,111.14 L35.1522314,111.14 L35.1522314,111.81 L33.8422314,111.81 L33.8422314,114.51 C33.8422314,114.810002 33.8972309,115.041666 34.0072314,115.205 C34.117232,115.368334 34.31223,115.45 34.5922314,115.45 C34.6788985,115.45 34.7722309,115.436667 34.8722314,115.41 C34.9722319,115.383333 35.062231,115.353334 35.1422314,115.32 L35.3022314,115.94 C35.1688974,115.986667 35.0238989,116.028333 34.8672314,116.065 C34.710564,116.101667 34.5555655,116.12 34.4022314,116.12 C34.1422301,116.12 33.923899,116.08 33.7472314,116 C33.5705639,115.92 33.427232,115.810001 33.3172314,115.67 C33.2072309,115.529999 33.1288983,115.360001 33.0822314,115.16 C33.0355645,114.959999 33.0122314,114.740001 33.0122314,114.5 L33.0122314,111.81 Z M38.6922314,110.14 C38.5322306,110.14 38.397232,110.090001 38.2872314,109.99 C38.1772309,109.89 38.1222314,109.763334 38.1222314,109.61 C38.1222314,109.449999 38.1772309,109.321667 38.2872314,109.225 C38.397232,109.128333 38.5322306,109.08 38.6922314,109.08 C38.8522322,109.08 38.9872309,109.128333 39.0972314,109.225 C39.207232,109.321667 39.2622314,109.449999 39.2622314,109.61 C39.2622314,109.763334 39.207232,109.89 39.0972314,109.99 C38.9872309,110.090001 38.8522322,110.14 38.6922314,110.14 L38.6922314,110.14 Z M38.2722314,111.14 L39.0922314,111.14 L39.0922314,116 L38.2722314,116 L38.2722314,111.14 Z M40.6022314,114.9 C40.8155658,115.073334 41.033897,115.213333 41.2572314,115.32 C41.4805659,115.426667 41.7388966,115.48 42.0322314,115.48 C42.352233,115.48 42.5922306,115.406667 42.7522314,115.26 C42.9122322,115.113333 42.9922314,114.933334 42.9922314,114.72 C42.9922314,114.593333 42.9588984,114.483334 42.8922314,114.39 C42.8255644,114.296666 42.7405653,114.215 42.6372314,114.145 C42.5338976,114.075 42.4155654,114.013334 42.2822314,113.96 C42.1488974,113.906666 42.0155654,113.853334 41.8822314,113.8 C41.7088972,113.74 41.5355656,113.671667 41.3622314,113.595 C41.1888972,113.518333 41.0338988,113.425001 40.8972314,113.315 C40.7605641,113.204999 40.6488985,113.076667 40.5622314,112.93 C40.4755643,112.783333 40.4322314,112.606668 40.4322314,112.4 C40.4322314,112.206666 40.4705644,112.025001 40.5472314,111.855 C40.6238985,111.684999 40.7338974,111.538334 40.8772314,111.415 C41.0205655,111.291666 41.1955637,111.195 41.4022314,111.125 C41.6088991,111.055 41.8422301,111.02 42.1022314,111.02 C42.4088996,111.02 42.6905635,111.073333 42.9472314,111.18 C43.2038994,111.286667 43.4255638,111.416666 43.6122314,111.57 L43.2222314,112.09 C43.0555639,111.963333 42.8822323,111.86 42.7022314,111.78 C42.5222305,111.7 42.3255658,111.66 42.1122314,111.66 C41.8055632,111.66 41.5805655,111.729999 41.4372314,111.87 C41.2938974,112.010001 41.2222314,112.173332 41.2222314,112.36 C41.2222314,112.473334 41.2522311,112.571666 41.3122314,112.655 C41.3722317,112.738334 41.4522309,112.811666 41.5522314,112.875 C41.6522319,112.938334 41.7672308,112.995 41.8972314,113.045 C42.0272321,113.095 42.1622307,113.146666 42.3022314,113.2 C42.4755656,113.266667 42.6505639,113.336666 42.8272314,113.41 C43.003899,113.483334 43.1622307,113.574999 43.3022314,113.685 C43.4422321,113.795001 43.557231,113.929999 43.6472314,114.09 C43.7372319,114.250001 43.7822314,114.443332 43.7822314,114.67 C43.7822314,114.870001 43.7438985,115.056666 43.6672314,115.23 C43.5905644,115.403334 43.4772322,115.556666 43.3272314,115.69 C43.1772307,115.823334 42.9905659,115.928333 42.7672314,116.005 C42.543897,116.081667 42.2888995,116.12 42.0022314,116.12 C41.655563,116.12 41.3255663,116.056667 41.0122314,115.93 C40.6988965,115.803333 40.4255659,115.643334 40.1922314,115.45 L40.6022314,114.9 Z M47.0822314,111.81 L46.3622314,111.81 L46.3622314,111.19 L47.1222314,111.14 L47.2222314,109.78 L47.9122314,109.78 L47.9122314,111.14 L49.2222314,111.14 L49.2222314,111.81 L47.9122314,111.81 L47.9122314,114.51 C47.9122314,114.810002 47.9672309,115.041666 48.0772314,115.205 C48.187232,115.368334 48.38223,115.45 48.6622314,115.45 C48.7488985,115.45 48.8422309,115.436667 48.9422314,115.41 C49.0422319,115.383333 49.132231,115.353334 49.2122314,115.32 L49.3722314,115.94 C49.2388974,115.986667 49.0938989,116.028333 48.9372314,116.065 C48.780564,116.101667 48.6255655,116.12 48.4722314,116.12 C48.2122301,116.12 47.993899,116.08 47.8172314,116 C47.6405639,115.92 47.497232,115.810001 47.3872314,115.67 C47.2772309,115.529999 47.1988983,115.360001 47.1522314,115.16 C47.1055645,114.959999 47.0822314,114.740001 47.0822314,114.5 L47.0822314,111.81 Z M50.3222314,108.88 L51.1422314,108.88 L51.1422314,110.82 L51.1122314,111.82 C51.3455659,111.599999 51.5888968,111.411667 51.8422314,111.255 C52.095566,111.098333 52.3922297,111.02 52.7322314,111.02 C53.2455673,111.02 53.6205636,111.179998 53.8572314,111.5 C54.0938993,111.820002 54.2122314,112.29333 54.2122314,112.92 L54.2122314,116 L53.3922314,116 L53.3922314,113.03 C53.3922314,112.569998 53.3188988,112.238334 53.1722314,112.035 C53.025564,111.831666 52.792233,111.73 52.4722314,111.73 C52.2188968,111.73 51.9955657,111.793333 51.8022314,111.92 C51.6088971,112.046667 51.3888993,112.233332 51.1422314,112.48 L51.1422314,116 L50.3222314,116 L50.3222314,108.88 Z M55.4022314,113.58 C55.4022314,113.179998 55.4638975,112.821668 55.5872314,112.505 C55.7105654,112.188332 55.8738971,111.920001 56.0772314,111.7 C56.2805658,111.479999 56.5122301,111.311667 56.7722314,111.195 C57.0322327,111.078333 57.30223,111.02 57.5822314,111.02 C57.8888996,111.02 58.1638969,111.073333 58.4072314,111.18 C58.650566,111.286667 58.8538973,111.439999 59.0172314,111.64 C59.1805656,111.840001 59.3055643,112.079999 59.3922314,112.36 C59.4788985,112.640001 59.5222314,112.953332 59.5222314,113.3 C59.5222314,113.480001 59.5122315,113.629999 59.4922314,113.75 L56.2122314,113.75 C56.2455649,114.276669 56.40723,114.693332 56.6972314,115 C56.9872329,115.306668 57.3655624,115.46 57.8322314,115.46 C58.0655659,115.46 58.2805638,115.425 58.4772314,115.355 C58.6738991,115.285 58.8622305,115.193334 59.0422314,115.08 L59.3322314,115.62 C59.118897,115.753334 58.8822327,115.87 58.6222314,115.97 C58.3622301,116.070001 58.0655664,116.12 57.7322314,116.12 C57.4055631,116.12 57.1005662,116.061667 56.8172314,115.945 C56.5338967,115.828333 56.2872325,115.661668 56.0772314,115.445 C55.8672304,115.228332 55.702232,114.963335 55.5822314,114.65 C55.4622308,114.336665 55.4022314,113.980002 55.4022314,113.58 L55.4022314,113.58 Z M58.8022314,113.21 C58.8022314,112.709998 58.6972325,112.328335 58.4872314,112.065 C58.2772304,111.801665 57.9822333,111.67 57.6022314,111.67 C57.4288972,111.67 57.2638989,111.705 57.1072314,111.775 C56.950564,111.845 56.8088987,111.944999 56.6822314,112.075 C56.5555641,112.205001 56.4505652,112.364999 56.3672314,112.555 C56.2838977,112.745001 56.2288982,112.963332 56.2022314,113.21 L58.8022314,113.21 Z M62.3922314,113.58 C62.3922314,113.186665 62.4505642,112.831668 62.5672314,112.515 C62.6838987,112.198332 62.8388971,111.930001 63.0322314,111.71 C63.2255657,111.489999 63.4488968,111.320001 63.7022314,111.2 C63.955566,111.079999 64.22223,111.02 64.5022314,111.02 C64.7822328,111.02 65.028897,111.068333 65.2422314,111.165 C65.4555658,111.261667 65.6722303,111.406666 65.8922314,111.6 L65.9122314,111.6 L65.9922314,111.14 L66.6522314,111.14 L66.6522314,118.05 L65.8222314,118.05 L65.8222314,116.32 L65.8622314,115.46 C65.6688971,115.640001 65.4472327,115.794999 65.1972314,115.925 C64.9472302,116.055001 64.6822328,116.12 64.4022314,116.12 C63.788895,116.12 63.3005666,115.900002 62.9372314,115.46 C62.5738963,115.019998 62.3922314,114.393337 62.3922314,113.58 L62.3922314,113.58 Z M63.2422314,113.57 C63.2422314,114.15667 63.3588969,114.613332 63.5922314,114.94 C63.8255659,115.266668 64.1555626,115.43 64.5822314,115.43 C64.8088992,115.43 65.0222304,115.375001 65.2222314,115.265 C65.4222324,115.154999 65.6222304,114.986668 65.8222314,114.76 L65.8222314,112.22 C65.6155637,112.033332 65.4172324,111.901667 65.2272314,111.825 C65.0372305,111.748333 64.8422324,111.71 64.6422314,111.71 C64.4488971,111.71 64.2672323,111.755 64.0972314,111.845 C63.9272306,111.935 63.7788987,112.061666 63.6522314,112.225 C63.5255641,112.388334 63.4255651,112.583332 63.3522314,112.81 C63.2788977,113.036668 63.2422314,113.289999 63.2422314,113.57 L63.2422314,113.57 Z M68.1722314,111.14 L69.0022314,111.14 L69.0022314,114.11 C69.0022314,114.570002 69.0738974,114.901666 69.2172314,115.105 C69.3605655,115.308334 69.5922298,115.41 69.9122314,115.41 C70.165566,115.41 70.3888971,115.345001 70.5822314,115.215 C70.7755657,115.084999 70.9888969,114.876668 71.2222314,114.59 L71.2222314,111.14 L72.0422314,111.14 L72.0422314,116 L71.3622314,116 L71.2922314,115.24 L71.2622314,115.24 C71.0355636,115.506668 70.7972327,115.719999 70.5472314,115.88 C70.2972302,116.040001 70.0022331,116.12 69.6622314,116.12 C69.1422288,116.12 68.7638993,115.960002 68.5272314,115.64 C68.2905636,115.319998 68.1722314,114.84667 68.1722314,114.22 L68.1722314,111.14 Z M73.3222314,113.58 C73.3222314,113.179998 73.3838975,112.821668 73.5072314,112.505 C73.6305654,112.188332 73.7938971,111.920001 73.9972314,111.7 C74.2005658,111.479999 74.4322301,111.311667 74.6922314,111.195 C74.9522327,111.078333 75.22223,111.02 75.5022314,111.02 C75.8088996,111.02 76.0838969,111.073333 76.3272314,111.18 C76.570566,111.286667 76.7738973,111.439999 76.9372314,111.64 C77.1005656,111.840001 77.2255643,112.079999 77.3122314,112.36 C77.3988985,112.640001 77.4422314,112.953332 77.4422314,113.3 C77.4422314,113.480001 77.4322315,113.629999 77.4122314,113.75 L74.1322314,113.75 C74.1655649,114.276669 74.32723,114.693332 74.6172314,115 C74.9072329,115.306668 75.2855624,115.46 75.7522314,115.46 C75.9855659,115.46 76.2005638,115.425 76.3972314,115.355 C76.5938991,115.285 76.7822305,115.193334 76.9622314,115.08 L77.2522314,115.62 C77.038897,115.753334 76.8022327,115.87 76.5422314,115.97 C76.2822301,116.070001 75.9855664,116.12 75.6522314,116.12 C75.3255631,116.12 75.0205662,116.061667 74.7372314,115.945 C74.4538967,115.828333 74.2072325,115.661668 73.9972314,115.445 C73.7872304,115.228332 73.622232,114.963335 73.5022314,114.65 C73.3822308,114.336665 73.3222314,113.980002 73.3222314,113.58 L73.3222314,113.58 Z M76.7222314,113.21 C76.7222314,112.709998 76.6172325,112.328335 76.4072314,112.065 C76.1972304,111.801665 75.9022333,111.67 75.5222314,111.67 C75.3488972,111.67 75.1838989,111.705 75.0272314,111.775 C74.870564,111.845 74.7288987,111.944999 74.6022314,112.075 C74.4755641,112.205001 74.3705652,112.364999 74.2872314,112.555 C74.2038977,112.745001 74.1488982,112.963332 74.1222314,113.21 L76.7222314,113.21 Z M78.5122314,114.9 C78.7255658,115.073334 78.943897,115.213333 79.1672314,115.32 C79.3905659,115.426667 79.6488966,115.48 79.9422314,115.48 C80.262233,115.48 80.5022306,115.406667 80.6622314,115.26 C80.8222322,115.113333 80.9022314,114.933334 80.9022314,114.72 C80.9022314,114.593333 80.8688984,114.483334 80.8022314,114.39 C80.7355644,114.296666 80.6505653,114.215 80.5472314,114.145 C80.4438976,114.075 80.3255654,114.013334 80.1922314,113.96 C80.0588974,113.906666 79.9255654,113.853334 79.7922314,113.8 C79.6188972,113.74 79.4455656,113.671667 79.2722314,113.595 C79.0988972,113.518333 78.9438988,113.425001 78.8072314,113.315 C78.6705641,113.204999 78.5588985,113.076667 78.4722314,112.93 C78.3855643,112.783333 78.3422314,112.606668 78.3422314,112.4 C78.3422314,112.206666 78.3805644,112.025001 78.4572314,111.855 C78.5338985,111.684999 78.6438974,111.538334 78.7872314,111.415 C78.9305655,111.291666 79.1055637,111.195 79.3122314,111.125 C79.5188991,111.055 79.7522301,111.02 80.0122314,111.02 C80.3188996,111.02 80.6005635,111.073333 80.8572314,111.18 C81.1138994,111.286667 81.3355638,111.416666 81.5222314,111.57 L81.1322314,112.09 C80.9655639,111.963333 80.7922323,111.86 80.6122314,111.78 C80.4322305,111.7 80.2355658,111.66 80.0222314,111.66 C79.7155632,111.66 79.4905655,111.729999 79.3472314,111.87 C79.2038974,112.010001 79.1322314,112.173332 79.1322314,112.36 C79.1322314,112.473334 79.1622311,112.571666 79.2222314,112.655 C79.2822317,112.738334 79.3622309,112.811666 79.4622314,112.875 C79.5622319,112.938334 79.6772308,112.995 79.8072314,113.045 C79.9372321,113.095 80.0722307,113.146666 80.2122314,113.2 C80.3855656,113.266667 80.5605639,113.336666 80.7372314,113.41 C80.913899,113.483334 81.0722307,113.574999 81.2122314,113.685 C81.3522321,113.795001 81.467231,113.929999 81.5572314,114.09 C81.6472319,114.250001 81.6922314,114.443332 81.6922314,114.67 C81.6922314,114.870001 81.6538985,115.056666 81.5772314,115.23 C81.5005644,115.403334 81.3872322,115.556666 81.2372314,115.69 C81.0872307,115.823334 80.9005659,115.928333 80.6772314,116.005 C80.453897,116.081667 80.1988995,116.12 79.9122314,116.12 C79.565563,116.12 79.2355663,116.056667 78.9222314,115.93 C78.6088965,115.803333 78.3355659,115.643334 78.1022314,115.45 L78.5122314,114.9 Z M82.9722314,111.81 L82.2522314,111.81 L82.2522314,111.19 L83.0122314,111.14 L83.1122314,109.78 L83.8022314,109.78 L83.8022314,111.14 L85.1122314,111.14 L85.1122314,111.81 L83.8022314,111.81 L83.8022314,114.51 C83.8022314,114.810002 83.8572309,115.041666 83.9672314,115.205 C84.077232,115.368334 84.27223,115.45 84.5522314,115.45 C84.6388985,115.45 84.7322309,115.436667 84.8322314,115.41 C84.9322319,115.383333 85.022231,115.353334 85.1022314,115.32 L85.2622314,115.94 C85.1288974,115.986667 84.9838989,116.028333 84.8272314,116.065 C84.670564,116.101667 84.5155655,116.12 84.3622314,116.12 C84.1022301,116.12 83.883899,116.08 83.7072314,116 C83.5305639,115.92 83.387232,115.810001 83.2772314,115.67 C83.1672309,115.529999 83.0888983,115.360001 83.0422314,115.16 C82.9955645,114.959999 82.9722314,114.740001 82.9722314,114.5 L82.9722314,111.81 Z" id="To-be-or-not-to-be…" fill="#444444"></path>
                    <path d="M17.2122314,64.618 L18.2082314,64.618 L18.2082314,67.918 L21.8682314,67.918 L21.8682314,64.618 L22.8762314,64.618 L22.8762314,72.49 L21.8682314,72.49 L21.8682314,68.782 L18.2082314,68.782 L18.2082314,72.49 L17.2122314,72.49 L17.2122314,64.618 Z M24.6522314,70.978 C24.6522314,70.3379968 24.9382285,69.8480017 25.5102314,69.508 C26.0822343,69.1679983 26.9922252,68.9300007 28.2402314,68.794 C28.2402314,68.6099991 28.2222316,68.4300009 28.1862314,68.254 C28.1502312,68.0779991 28.0862319,67.9220007 27.9942314,67.786 C27.9022309,67.6499993 27.7802322,67.5400004 27.6282314,67.456 C27.4762306,67.3719996 27.2802326,67.33 27.0402314,67.33 C26.6962297,67.33 26.3782329,67.3939994 26.0862314,67.522 C25.7942299,67.6500006 25.5322326,67.7939992 25.3002314,67.954 L24.9042314,67.27 C25.1762328,67.0939991 25.5082294,66.9240008 25.9002314,66.76 C26.2922334,66.5959992 26.724229,66.514 27.1962314,66.514 C27.908235,66.514 28.4242298,66.7319978 28.7442314,67.168 C29.064233,67.6040022 29.2242314,68.1859964 29.2242314,68.914 L29.2242314,72.49 L28.4082314,72.49 L28.3242314,71.794 L28.3002314,71.794 C28.02023,72.0260012 27.718233,72.2239992 27.3942314,72.388 C27.0702298,72.5520008 26.7282332,72.634 26.3682314,72.634 C25.8722289,72.634 25.462233,72.4900014 25.1382314,72.202 C24.8142298,71.9139986 24.6522314,71.5060026 24.6522314,70.978 L24.6522314,70.978 Z M25.6242314,70.906 C25.6242314,71.2420017 25.7222304,71.4819993 25.9182314,71.626 C26.1142324,71.7700007 26.35623,71.842 26.6442314,71.842 C26.9242328,71.842 27.1902301,71.7760007 27.4422314,71.644 C27.6942327,71.5119993 27.96023,71.3180013 28.2402314,71.062 L28.2402314,69.442 C27.752229,69.5060003 27.3402331,69.5819996 27.0042314,69.67 C26.6682297,69.7580004 26.3982324,69.8619994 26.1942314,69.982 C25.9902304,70.1020006 25.8442318,70.2399992 25.7562314,70.396 C25.668231,70.5520008 25.6242314,70.7219991 25.6242314,70.906 L25.6242314,70.906 Z M31.0842314,66.658 L31.9002314,66.658 L31.9842314,67.498 L32.0202314,67.498 C32.2762327,67.2179986 32.5542299,66.9840009 32.8542314,66.796 C33.1542329,66.6079991 33.4802296,66.514 33.8322314,66.514 C34.2802336,66.514 34.6302301,66.611999 34.8822314,66.808 C35.1342327,67.004001 35.3202308,67.2779982 35.4402314,67.63 C35.7442329,67.2939983 36.0502299,67.024001 36.3582314,66.82 C36.6662329,66.615999 37.0002296,66.514 37.3602314,66.514 C37.9602344,66.514 38.4062299,66.7059981 38.6982314,67.09 C38.9902329,67.4740019 39.1362314,68.0419962 39.1362314,68.794 L39.1362314,72.49 L38.1522314,72.49 L38.1522314,68.926 C38.1522314,68.3739972 38.0642323,67.9760012 37.8882314,67.732 C37.7122305,67.4879988 37.4402332,67.366 37.0722314,67.366 C36.6322292,67.366 36.1442341,67.665997 35.6082314,68.266 L35.6082314,72.49 L34.6242314,72.49 L34.6242314,68.926 C34.6242314,68.3739972 34.5362323,67.9760012 34.3602314,67.732 C34.1842305,67.4879988 33.9082333,67.366 33.5322314,67.366 C33.0922292,67.366 32.6042341,67.665997 32.0682314,68.266 L32.0682314,72.49 L31.0842314,72.49 L31.0842314,66.658 Z M41.0322314,63.946 L42.0162314,63.946 L42.0162314,71.386 C42.0162314,71.5460008 42.0442311,71.6579997 42.1002314,71.722 C42.1562317,71.7860003 42.220231,71.818 42.2922314,71.818 L42.3822314,71.818 C42.4102315,71.818 42.4522311,71.8100001 42.5082314,71.794 L42.6402314,72.538 C42.5762311,72.5700002 42.5002318,72.5939999 42.4122314,72.61 C42.324231,72.6260001 42.2122321,72.634 42.0762314,72.634 C41.7002295,72.634 41.4322322,72.5220011 41.2722314,72.298 C41.1122306,72.0739989 41.0322314,71.7460022 41.0322314,71.314 L41.0322314,63.946 Z M43.6602314,69.586 C43.6602314,69.1059976 43.7342307,68.6760019 43.8822314,68.296 C44.0302321,67.9159981 44.2262302,67.5940013 44.4702314,67.33 C44.7142326,67.0659987 44.9922298,66.8640007 45.3042314,66.724 C45.616233,66.5839993 45.9402297,66.514 46.2762314,66.514 C46.6442332,66.514 46.9742299,66.5779994 47.2662314,66.706 C47.5582329,66.8340006 47.8022304,67.0179988 47.9982314,67.258 C48.1942324,67.4980012 48.3442309,67.7859983 48.4482314,68.122 C48.5522319,68.4580017 48.6042314,68.8339979 48.6042314,69.25 C48.6042314,69.4660011 48.5922315,69.6459993 48.5682314,69.79 L44.6322314,69.79 C44.6722316,70.4220032 44.8662297,70.9219982 45.2142314,71.29 C45.5622331,71.6580018 46.0162286,71.842 46.5762314,71.842 C46.8562328,71.842 47.1142302,71.8000004 47.3502314,71.716 C47.5862326,71.6319996 47.8122303,71.5220007 48.0282314,71.386 L48.3762314,72.034 C48.1202301,72.1940008 47.836233,72.3339994 47.5242314,72.454 C47.2122298,72.5740006 46.8562334,72.634 46.4562314,72.634 C46.0642294,72.634 45.6982331,72.5640007 45.3582314,72.424 C45.0182297,72.2839993 44.7222327,72.0840013 44.4702314,71.824 C44.2182301,71.5639987 44.0202321,71.2460019 43.8762314,70.87 C43.7322307,70.4939981 43.6602314,70.0660024 43.6602314,69.586 L43.6602314,69.586 Z M47.7402314,69.142 C47.7402314,68.541997 47.6142327,68.0840016 47.3622314,67.768 C47.1102301,67.4519984 46.7562337,67.294 46.3002314,67.294 C46.0922304,67.294 45.8942323,67.3359996 45.7062314,67.42 C45.5182305,67.5040004 45.3482322,67.6239992 45.1962314,67.78 C45.0442306,67.9360008 44.9182319,68.1279989 44.8182314,68.356 C44.7182309,68.5840011 44.6522316,68.8459985 44.6202314,69.142 L47.7402314,69.142 Z M50.2122314,67.462 L49.3482314,67.462 L49.3482314,66.718 L50.2602314,66.658 L50.3802314,65.026 L51.2082314,65.026 L51.2082314,66.658 L52.7802314,66.658 L52.7802314,67.462 L51.2082314,67.462 L51.2082314,70.702 C51.2082314,71.0620018 51.2742307,71.339999 51.4062314,71.536 C51.5382321,71.732001 51.7722297,71.83 52.1082314,71.83 C52.2122319,71.83 52.3242308,71.8140002 52.4442314,71.782 C52.564232,71.7499998 52.6722309,71.7140002 52.7682314,71.674 L52.9602314,72.418 C52.8002306,72.4740003 52.6262323,72.5239998 52.4382314,72.568 C52.2502305,72.6120002 52.0642323,72.634 51.8802314,72.634 C51.5682298,72.634 51.3062325,72.5860005 51.0942314,72.49 C50.8822303,72.3939995 50.7102321,72.2620008 50.5782314,72.094 C50.4462307,71.9259992 50.3522317,71.7220012 50.2962314,71.482 C50.2402311,71.2419988 50.2122314,70.9780014 50.2122314,70.69 L50.2122314,67.462 Z" id="Hamlet" fill="#448AC9"></path>
                </g>
            </g>
        </g>
    </g>
</svg>