<?xml version="1.0" encoding="UTF-8" standalone="no"?>
<svg width="17px" height="13px" viewBox="0 0 17 13" version="1.1" xmlns="http://www.w3.org/2000/svg" xmlns:xlink="http://www.w3.org/1999/xlink" xmlns:sketch="http://www.bohemiancoding.com/sketch/ns">
    <!-- Generator: Sketch 3.3.3 (12072) - http://www.bohemiancoding.com/sketch -->
    <title>Shape</title>
    <desc>Created with Sketch.</desc>
    <defs></defs>
    <g id="Comp" stroke="none" stroke-width="1" fill="none" fill-rule="evenodd" sketch:type="MSPage">
        <g id="simplenote-comp" sketch:type="MSArtboardGroup" transform="translate(-1014.000000, -3631.000000)" fill="#FFFFFF">
            <g id="Mac-Button-Copy" sketch:type="MSLayerGroup" transform="translate(837.000000, 3617.000000)">
                <g id="Mac-+-Shape-Copy-4" transform="translate(23.693878, 9.000000)" sketch:type="MSShapeGroup">
                    <g id="Sign-in-to-Simplenot-+-Shape">
                        <path d="M158.968182,5.42706813 L154.409091,10.1959246 C154.136364,10.4593471 154,10.8181468 154,11.2132806 C154,11.6084144 154.136364,11.9626723 154.409091,12.2306367 L158.968182,17.0176602 C159.509091,17.5853812 160.390909,17.5853812 160.931818,17.0176602 C161.472727,16.4499392 161.472727,15.532502 160.931818,14.964781 L158.745455,12.6757299 L168.609091,12.6757299 C169.377273,12.6757299 170,12.0262571 170,11.2223642 C170,10.4184712 169.377273,9.76899838 168.609091,9.76899838 L158.745455,9.76899838 L160.936364,7.47994728 C161.477273,6.91222628 161.477273,5.99478913 160.936364,5.42706813 C160.390909,4.85934712 159.513636,4.85934712 158.968182,5.42706813 L158.968182,5.42706813 Z" id="Shape" transform="translate(162.000000, 11.222364) rotate(-180.000000) translate(-162.000000, -11.222364) "></path>
                    </g>
                </g>
            </g>
        </g>
    </g>
</svg>