<?xml version="1.0" encoding="UTF-8" standalone="no"?>
<svg width="18px" height="23px" viewBox="0 0 18 23" version="1.1" xmlns="http://www.w3.org/2000/svg" xmlns:xlink="http://www.w3.org/1999/xlink" xmlns:sketch="http://www.bohemiancoding.com/sketch/ns">
    <!-- Generator: Sketch 3.3.3 (12072) - http://www.bohemiancoding.com/sketch -->
    <title>Shape Copy 4</title>
    <desc>Created with Sketch.</desc>
    <defs></defs>
    <g id="Comp" stroke="none" stroke-width="1" fill="none" fill-rule="evenodd" sketch:type="MSPage">
        <g id="simplenote-comp" sketch:type="MSArtboardGroup" transform="translate(-694.000000, -3505.000000)" fill="#FFFFFF">
            <g id="Mac-Button" sketch:type="MSLayerGroup" transform="translate(641.000000, 3499.000000)">
                <g id="Mac-+-Shape-Copy-4" transform="translate(53.000000, 6.000000)" sketch:type="MSShapeGroup">
                    <path d="M15.0330511,12.2191771 C15.0641156,15.6998052 17.9678307,16.8580706 18,16.8728544 C17.9754477,16.9545416 17.5360348,18.5234959 16.4701849,20.1441135 C15.5488046,21.5452197 14.5925334,22.9411932 13.0861237,22.970105 C11.6059255,22.9984817 11.1299592,22.0568566 9.4376735,22.0568566 C7.74589904,22.0568566 7.21707883,22.9411909 5.81590636,22.9984817 C4.3618388,23.0557306 3.25458162,21.483371 2.3255443,20.0873975 C0.427169051,17.2318865 -1.02358244,12.0183944 0.924410108,8.49920207 C1.89213125,6.75155692 3.62152208,5.64487503 5.49862119,5.61649624 C6.92647836,5.58815856 8.27420585,6.6159477 9.14707303,6.6159477 C10.0193867,6.6159477 11.6571624,5.37994119 13.3788957,5.56146437 C14.099672,5.59267661 16.122903,5.86438826 17.4220752,7.84292112 C17.3173939,7.91043924 15.0079465,9.30924452 15.0330511,12.2191804 M12.2511897,3.6722947 C13.0231639,2.70007189 13.542747,1.34664783 13.4009991,0 C12.2882563,0.0465303627 10.9427002,0.771479135 10.1445545,1.74316705 C9.42926277,2.60364196 8.80282794,3.98088693 8.97185092,5.30088169 C10.2121334,5.40072022 11.4791775,4.64513578 12.2511897,3.67229628" id="Shape-Copy-4"></path>
                </g>
            </g>
        </g>
    </g>
</svg>