<?xml version="1.0" encoding="UTF-8" standalone="no"?>
<svg width="24px" height="42px" viewBox="0 0 24 42" version="1.1" xmlns="http://www.w3.org/2000/svg" xmlns:xlink="http://www.w3.org/1999/xlink" xmlns:sketch="http://www.bohemiancoding.com/sketch/ns">
    <!-- Generator: Sketch 3.3.3 (12072) - http://www.bohemiancoding.com/sketch -->
    <title>Shape Copy 2</title>
    <desc>Created with Sketch.</desc>
    <defs></defs>
    <g id="Comp" stroke="none" stroke-width="1" fill="none" fill-rule="evenodd" sketch:type="MSPage">
        <g id="simplenote-comp" sketch:type="MSArtboardGroup" transform="translate(-1400.000000, -2522.000000)" fill="#FFFFFF" opacity="0.418843284">
            <g id="Group" sketch:type="MSLayerGroup" transform="translate(-5.000000, 2304.000000)">
                <g id="Bitmap-+-Prev-Next-+-Users-love-Simplenote" sketch:type="MSShapeGroup">
                    <g id="Prev-Next" transform="translate(0.000000, 192.000000)">
                        <g id="Rectangle-35-+-Shape-Copy-2" transform="translate(1381.000000, 0.000000)">
                            <path d="M57,38 C57,36.343 55.657,35 54,35 C53.191,35 52.458,35.321 51.918,35.841 L51.917,35.84 L35.993,51.764 L20.275,36.046 C19.725,35.406 18.91,35 18,35 C16.343,35 15,36.343 15,38 C15,38.805 15.318,39.536 15.835,40.075 L15.827,40.083 L33.827,58.083 L33.828,58.082 C34.374,58.648 35.139,59 35.987,59 L35.994,59 L36.001,59 C36.85,59 37.613,58.648 38.16,58.082 L38.161,58.083 L56.161,40.083 L56.16,40.082 C56.68,39.543 57,38.809 57,38 L57,38 Z" id="Shape-Copy-2" transform="translate(36.000000, 47.000000) rotate(-90.000000) translate(-36.000000, -47.000000) "></path>
                        </g>
                    </g>
                </g>
            </g>
        </g>
    </g>
</svg>