<?xml version="1.0" encoding="UTF-8" standalone="no"?>
<svg width="21px" height="18px" viewBox="0 0 21 18" version="1.1" xmlns="http://www.w3.org/2000/svg" xmlns:xlink="http://www.w3.org/1999/xlink" xmlns:sketch="http://www.bohemiancoding.com/sketch/ns">
    <!-- Generator: Sketch 3.3.3 (12072) - http://www.bohemiancoding.com/sketch -->
    <title>Shape</title>
    <desc>Created with Sketch.</desc>
    <defs></defs>
    <g id="Comp" stroke="none" stroke-width="1" fill="none" fill-rule="evenodd" sketch:type="MSPage">
        <g id="simplenote-comp" sketch:type="MSArtboardGroup" transform="translate(-948.000000, -3509.000000)" fill="#FFFFFF">
            <g id="iOS-Button" sketch:type="MSLayerGroup" transform="translate(898.000000, 3499.000000)">
                <g id="Mac-+-Shape-Copy-4" transform="translate(50.000000, 9.000000)" sketch:type="MSShapeGroup">
                    <path d="M0,10 L4,10 C3.59082878,10.6666667 3.18165684,11.3333333 2.77248562,12 L1.0202666e-15,12 L1.0202666e-15,10 L0,10 Z M7.03086576,6.1018639 C7.70032484,6.48171304 8.36978315,6.86156217 9.03924223,7.24141131 C7.37526921,10.0738141 5.71129543,12.9062153 4.04732241,15.7386173 C3.33766906,15.3359622 2.62801493,14.9333063 1.91836157,14.5306512 C3.62252963,11.7210559 5.3266977,8.91145992 7.03086576,6.1018639 L7.03086576,6.1018639 Z M3.8144924,16.1723028 C2.82435463,17.0645732 0.953614223,18.8271343 0.953614223,18.8271343 C0.738036359,19.0297856 0.627214356,18.975342 0.712149171,18.6827014 C0.712149171,18.6827014 1.43420932,16.2330544 1.72927481,14.9250246 C2.42434709,15.340784 3.11942013,15.7565434 3.8144924,16.1723028 Z M9.2626981,6.95161758 C9.2626981,6.95161758 9.65847246,6.16570899 9.96448259,5.67284724 C10.4279449,4.60209937 8.56945006,3.65291732 7.8544437,4.61508676 C7.66622097,4.91552142 7.2195732,5.79235381 7.2195732,5.79235381 L9.2626981,6.95161758 Z M17.2031483,11.3935201 C17.5380421,11.9635732 18.0133366,12.8095886 18.3482304,13.3796417 C17.6643491,13.7676745 16.980467,14.1557066 16.2965857,14.5437394 C15.9566213,13.976564 15.4762546,13.1334255 15.1362902,12.5662501 C15.8252429,12.1753404 16.5141956,11.7844298 17.2031483,11.3935201 Z M17.0081767,10.9830336 C17.0081767,10.9830336 13.1535619,4.44861113 11.238358,1.22991985 C10.5305723,0.526738071 8.77785769,1.57191285 9.12177311,2.54277197 C11.0110047,5.75833217 14.9068659,12.2336297 14.9068659,12.2336297 L17.0081767,10.9830336 Z M16.8048474,14.8018638 C17.4300192,14.4471434 17.7743871,14.2304033 18.3995588,13.8756828 C20.1324045,14.4941356 20.2833637,17.3852047 19.5915021,18.7307234 C19.1915038,19.3320728 19.4314937,18.1486825 18.454406,17.5538813 C16.5553858,16.3978545 16.7346466,15.8398562 16.648211,15.4306289 C16.5849742,15.1312359 16.8048474,14.8018638 16.8048474,14.8018638 Z M8.20792513,10 L12.8177616,10 C13.2118413,10.6666664 13.6059203,11.3333336 14,12 L7,12 C7.40264148,11.3333336 7.80528365,10.6666664 8.20792513,10 L8.20792513,10 Z M21,10 L21,12 L18.1355169,12 C17.7128162,11.3333331 17.4227008,10.6666669 17,10 L21,10 Z" id="Shape"></path>
                </g>
            </g>
        </g>
    </g>
</svg>