<?xml version="1.0" encoding="UTF-8" standalone="no"?>
<svg width="22px" height="25px" viewBox="0 0 22 25" version="1.1" xmlns="http://www.w3.org/2000/svg" xmlns:xlink="http://www.w3.org/1999/xlink" xmlns:sketch="http://www.bohemiancoding.com/sketch/ns">
    <!-- Generator: Sketch 3.3.3 (12072) - http://www.bohemiancoding.com/sketch -->
    <title>Fill 9</title>
    <desc>Created with Sketch.</desc>
    <defs></defs>
    <g id="Comp" stroke="none" stroke-width="1" fill="none" fill-rule="evenodd" sketch:type="MSPage">
        <g id="simplenote-comp" sketch:type="MSArtboardGroup" transform="translate(-425.000000, -3505.000000)" fill="#FFFFFF">
            <g id="Android-Button" sketch:type="MSLayerGroup" transform="translate(387.000000, 3499.000000)">
                <g id="Android-+-Fill-9" transform="translate(38.000000, 6.000000)" sketch:type="MSShapeGroup">
                    <path d="M1.54930667,8.08641641 C0.69366143,8.08600923 0.000204438971,8.77800907 0,9.62935142 L0.00109034118,16.090799 C0.00129478015,16.9450594 0.695092503,17.6343448 1.55073774,17.634209 C2.4069963,17.6342769 3.10058959,16.9445844 3.09970368,16.0908668 L3.09977183,9.62853707 C3.0994311,8.77733044 2.40502006,8.0858735 1.54930667,8.08641641 L1.54930667,8.08641641 Z M14.0442077,2.2840551 L15.1256217,0.317315145 C15.1833417,0.21457044 15.1454523,0.0836625567 15.0408477,0.0256396222 C14.9353572,-0.0300081043 14.8050614,0.00779163189 14.7493177,0.111282831 L13.6569322,2.09851744 C12.7375701,1.69127109 11.7091739,1.46264037 10.6208771,1.46392977 C9.53537436,1.46297968 8.50718262,1.69059246 7.5918412,2.09559933 L6.49843344,0.113590175 C6.44146311,0.00894530427 6.31069031,-0.028854432 6.20738049,0.0280826932 C6.10216256,0.0844769137 6.06372804,0.215588387 6.12199314,0.318129502 L7.20402047,2.28337647 C5.07812776,3.37522558 3.64194398,5.45421108 3.64303432,7.84109137 L17.600151,7.83966624 C17.6004918,5.45312527 16.1668294,3.37848301 14.0442077,2.2840551 L14.0442077,2.2840551 Z M7.44641695,5.3230996 C7.12503888,5.32235311 6.86322071,5.06216606 6.86308441,4.7407665 C6.86328885,4.42058849 7.12442557,4.1573476 7.44696212,4.15741546 C7.77052086,4.15714401 8.03233904,4.42058849 8.03274792,4.74063078 C8.03288421,5.06182674 7.77052086,5.32289602 7.44641695,5.3230996 L7.44641695,5.3230996 Z M13.8015387,5.32194593 C13.478934,5.32228525 13.216298,5.06175888 13.2163662,4.73934138 C13.2173884,4.42011345 13.4785251,4.15653324 13.8018112,4.15544743 C14.1227123,4.15632965 14.3860297,4.41977413 14.3857571,4.7396807 C14.3864386,5.06141956 14.1241434,5.32201379 13.8015387,5.32194593 L13.8015387,5.32194593 Z M3.7000728,8.37775262 L3.70238977,18.3913574 C3.70170831,19.3021478 4.44143665,20.0373086 5.35561959,20.0375122 L6.48139686,20.0379872 L6.48262349,23.4568614 C6.4824872,24.3079323 7.17730711,25 8.03090797,25 C8.88709838,25 9.58069166,24.3073894 9.58096425,23.4557756 L9.58007834,20.03758 L11.6718979,20.0372407 L11.6727838,23.4559113 C11.6725794,24.3066429 12.3678082,24.9997285 13.2216816,24.9983713 C14.0777357,24.9989142 14.771806,24.3063036 14.7716697,23.4545541 L14.7707157,20.0367657 L15.9003091,20.0358835 C16.8123114,20.0362228 17.5541523,19.2999762 17.5543567,18.3891179 L17.5525849,8.37544527 L3.7000728,8.37775262 L3.7000728,8.37775262 Z M21.2489097,9.62697621 C21.2487734,8.7748195 20.5551801,8.08417693 19.6994667,8.08438052 C18.8439577,8.08370188 18.1504326,8.775566 18.150637,9.62779057 L18.1516592,16.0893738 C18.1515911,16.9424128 18.8448436,17.6318338 19.7011022,17.6321053 C20.5566112,17.6319695 21.2497956,16.9424128 21.25,16.0886952 L21.2489097,9.62697621 L21.2489097,9.62697621 Z" id="Fill-9"></path>
                </g>
            </g>
        </g>
    </g>
</svg>