<?xml version="1.0" encoding="UTF-8" standalone="no"?>
<svg width="189px" height="32px" viewBox="0 0 189 32" version="1.1" xmlns="http://www.w3.org/2000/svg" xmlns:xlink="http://www.w3.org/1999/xlink" xmlns:sketch="http://www.bohemiancoding.com/sketch/ns">
    <!-- Generator: Sketch 3.3.3 (12072) - http://www.bohemiancoding.com/sketch -->
    <title>logo</title>
    <desc>Created with Sketch.</desc>
    <defs></defs>
    <g id="Comp" stroke="none" stroke-width="1" fill="none" fill-rule="evenodd" sketch:type="MSPage">
        <g id="simplenote-comp" sketch:type="MSArtboardGroup" transform="translate(-35.000000, -33.000000)">
            <g id="logo" sketch:type="MSLayerGroup" transform="translate(35.000000, 33.000000)">
                <path d="M41.698375,20.9177917 C42.469625,21.7965417 43.390875,22.4927917 44.4625417,23.0069583 C45.5337917,23.521125 46.6804583,23.7782083 47.9017083,23.7782083 C49.5300417,23.7782083 50.8154583,23.3877917 51.7587917,22.6052917 C52.7017083,21.8232083 53.1729583,20.8002917 53.1729583,19.5357083 C53.1729583,18.8719583 53.070875,18.3144583 52.8679583,17.8644583 C52.6637917,17.4144583 52.390875,17.0232083 52.0479583,16.6907083 C51.7050417,16.3594583 51.303375,16.069875 50.8429583,15.8232083 C50.3817083,15.577375 49.894625,15.336125 49.3804583,15.099875 L46.1662917,13.653625 C45.694625,13.461125 45.2067083,13.2252917 44.703375,12.9465417 C44.2000417,12.6682083 43.7392083,12.3194583 43.3217083,11.9019583 C42.9037917,11.4840417 42.5550417,10.9915417 42.277125,10.4232083 C41.998375,9.85570833 41.8592083,9.17529167 41.8592083,8.382375 C41.8592083,7.61070833 42.0142083,6.90945833 42.3250417,6.27695833 C42.6354583,5.64529167 43.0642083,5.098625 43.610875,4.63779167 C44.157125,4.17695833 44.8104583,3.81820833 45.5712917,3.561125 C46.3317083,3.30404167 47.1512917,3.17529167 48.0304583,3.17529167 C49.315875,3.17529167 50.457125,3.427375 51.453375,3.93029167 C52.4500417,4.43404167 53.269625,5.02904167 53.912125,5.71445833 L53.0767083,6.71070833 C52.4550417,6.047375 51.7267083,5.51654167 50.890875,5.119875 C50.0554583,4.723625 49.1017083,4.52529167 48.0304583,4.52529167 C46.6162917,4.52529167 45.4800417,4.86820833 44.623375,5.553625 C43.765875,6.23945833 43.3375417,7.16070833 43.3375417,8.31820833 C43.3375417,8.939875 43.4550417,9.464875 43.6912917,9.89279167 C43.9267083,10.3219583 44.2262917,10.6915417 44.5912917,11.0019583 C44.9550417,11.3127917 45.3517083,11.5807083 45.7804583,11.8057083 C46.2087917,12.0302917 46.6162917,12.228625 47.0017083,12.4002917 L50.215875,13.8144583 C50.8154583,14.071125 51.3837917,14.3607083 51.919625,14.6819583 C52.4550417,15.003625 52.9262917,15.378625 53.3337917,15.8069583 C53.7404583,16.236125 54.0675417,16.7444583 54.3142083,17.333625 C54.5604583,17.9232083 54.6837917,18.6252917 54.6837917,19.4390417 C54.6837917,20.253625 54.5229583,21.0094583 54.2017083,21.7052917 C53.8800417,22.4019583 53.424625,23.0019583 52.8354583,23.5052917 C52.245875,24.0090417 51.5337917,24.4052917 50.698375,24.6944583 C49.8625417,24.983625 48.9300417,25.1282083 47.9017083,25.1282083 C46.3592083,25.1282083 44.9875417,24.8332083 43.7875417,24.2444583 C42.587125,23.6552917 41.569625,22.8894583 40.7342083,21.9465417 L41.698375,20.9177917 Z" id="Fill-1" fill="#FFFFFF" sketch:type="MSShapeGroup"></path>
                <path d="M58.95875,9.31458333 L60.3733333,9.31458333 L60.3733333,24.7425 L58.95875,24.7425 L58.95875,9.31458333 Z M59.6975,5.58583333 C59.3329167,5.58583333 59.0279167,5.46875 58.7820833,5.2325 C58.5354167,4.99708333 58.4120833,4.69708333 58.4120833,4.3325 C58.4120833,3.92541667 58.5354167,3.60916667 58.7820833,3.38458333 C59.0279167,3.15958333 59.3329167,3.04666667 59.6975,3.04666667 C60.0620833,3.04666667 60.3675,3.15958333 60.6141667,3.38458333 C60.8595833,3.60916667 60.9833333,3.92541667 60.9833333,4.3325 C60.9833333,4.69708333 60.8595833,4.99708333 60.6141667,5.2325 C60.3675,5.46875 60.0620833,5.58583333 59.6975,5.58583333 L59.6975,5.58583333 Z" id="Fill-3" fill="#FFFFFF" sketch:type="MSShapeGroup"></path>
                <path d="M66.31875,9.314625 L67.5404167,9.314625 L67.66875,11.6929583 L67.7654167,11.6929583 C68.4508333,10.9004583 69.2166667,10.2417083 70.0633333,9.71629167 C70.91,9.19129167 71.7616667,8.92879167 72.61875,8.92879167 C73.86125,8.92879167 74.815,9.21295833 75.4791667,9.78045833 C76.1433333,10.348375 76.615,11.1142083 76.89375,12.0787917 C77.79375,11.1142083 78.6666667,10.348375 79.5133333,9.78045833 C80.3591667,9.21295833 81.2329167,8.92879167 82.1329167,8.92879167 C85.2183333,8.92879167 86.7616667,10.9004583 86.7616667,14.8429583 L86.7616667,24.7425417 L85.315,24.7425417 L85.315,15.0354583 C85.315,13.385875 85.03625,12.1704583 84.4791667,11.3879583 C83.9216667,10.605875 83.05375,10.2142083 81.8758333,10.2142083 C80.4825,10.2142083 78.9395833,11.1787917 77.2475,13.1075417 L77.2475,24.7425417 L75.8329167,24.7425417 L75.8329167,15.0354583 C75.8329167,13.385875 75.5541667,12.1704583 74.9970833,11.3879583 C74.4395833,10.605875 73.5616667,10.2142083 72.3616667,10.2142083 C70.9683333,10.2142083 69.4254167,11.1787917 67.7333333,13.1075417 L67.7333333,24.7425417 L66.31875,24.7425417 L66.31875,9.314625 Z" id="Fill-5" fill="#FFFFFF" sketch:type="MSShapeGroup"></path>
                <path d="M93.8321667,21.8821667 C94.7321667,22.6109167 95.568,23.1246667 96.33925,23.4246667 C97.1105,23.7250833 97.7963333,23.8746667 98.3963333,23.8746667 C99.168,23.8746667 99.8850833,23.7034167 100.549667,23.3605 C101.213833,23.0184167 101.78175,22.5359167 102.253417,21.91425 C102.724667,21.293 103.09425,20.548 103.362167,19.6805 C103.630083,18.8125833 103.76425,17.8538333 103.76425,16.8038333 C103.76425,15.8609167 103.672583,14.9821667 103.490917,14.1675833 C103.308417,13.3538333 103.024667,12.6521667 102.63925,12.0625833 C102.253417,11.4738333 101.749667,11.013 101.128417,10.6805 C100.50675,10.3484167 99.7571667,10.1821667 98.8784167,10.1821667 C98.1071667,10.1821667 97.3088333,10.4021667 96.4838333,10.8413333 C95.6588333,11.2809167 94.7750833,11.9075833 93.8321667,12.72175 L93.8321667,21.8821667 Z M93.8321667,26.0925833 L93.8321667,31.7171667 L92.4175833,31.7171667 L92.4175833,9.31466667 L93.63925,9.31466667 L93.768,11.243 L93.86425,11.243 C94.61425,10.643 95.4338333,10.1075833 96.3234167,9.63591667 C97.2121667,9.16508333 98.13925,8.92883333 99.1034167,8.92883333 C101.1605,8.92883333 102.703417,9.64133333 103.732167,11.0663333 C104.7605,12.49175 105.274667,14.40425 105.274667,16.8038333 C105.274667,18.1109167 105.092167,19.2784167 104.728,20.3071667 C104.363417,21.3355 103.8655,22.2088333 103.233417,22.92675 C102.601333,23.6446667 101.872583,24.1913333 101.048,24.5659167 C100.223,24.9405 99.3609167,25.1284167 98.4605,25.1284167 C97.73175,25.1284167 96.9821667,24.9621667 96.2105,24.6305 C95.43925,24.2984167 94.6463333,23.8321667 93.8321667,23.23175 L93.8321667,26.0925833 Z" id="Fill-6" fill="#FFFFFF" sketch:type="MSShapeGroup"></path>
                <path d="M109.90275,1.63233333 L111.317333,1.63233333 L111.317333,22.8781667 C111.317333,23.2210833 111.3815,23.4731667 111.509833,23.634 C111.638583,23.7944167 111.799417,23.8748333 111.992333,23.8748333 L112.201083,23.8748333 C112.275667,23.8748333 112.399,23.8535833 112.570667,23.8106667 L112.828167,24.96775 C112.67775,25.01025 112.52775,25.04775 112.37775,25.0798333 C112.22775,25.1123333 112.034833,25.1285833 111.799417,25.1285833 C110.534833,25.1285833 109.90275,24.3144167 109.90275,22.68525 L109.90275,1.63233333 Z" id="Fill-7" fill="#FFFFFF" sketch:type="MSShapeGroup"></path>
                <path d="M127.517083,16.1285833 C127.517083,14.1356667 127.109583,12.6410833 126.295417,11.6448333 C125.480833,10.6485833 124.377917,10.1498333 122.985,10.1498333 C122.320417,10.1498333 121.688333,10.2898333 121.088333,10.56775 C120.48875,10.8465 119.9475,11.24275 119.465417,11.7573333 C118.983333,12.2715 118.58625,12.8981667 118.27625,13.6373333 C117.965417,14.3769167 117.767083,15.2073333 117.681667,16.1285833 L127.517083,16.1285833 Z M116.235417,17.0606667 C116.235417,15.7965 116.4225,14.6615 116.7975,13.654 C117.1725,12.6469167 117.67625,11.79525 118.308333,11.0985833 C118.94,10.4023333 119.658333,9.8665 120.461667,9.49108333 C121.265417,9.1165 122.095417,8.929 122.952917,8.929 C124.795833,8.929 126.241667,9.55066667 127.292083,10.79275 C128.341667,12.0360833 128.867083,13.7935833 128.867083,16.0644167 L128.867083,16.64275 C128.867083,16.8356667 128.845417,17.0285833 128.802917,17.2215 L117.681667,17.2215 C117.7025,18.1856667 117.852917,19.0806667 118.131667,19.90525 C118.41,20.7306667 118.800833,21.4373333 119.304583,22.0265 C119.807917,22.6160833 120.41375,23.0769167 121.120417,23.409 C121.827917,23.7415 122.620417,23.9069167 123.499167,23.9069167 C124.335,23.9069167 125.090417,23.784 125.765417,23.5373333 C126.440417,23.2910833 127.067083,22.954 127.645833,22.52525 L128.224167,23.61775 C127.6025,23.9823333 126.9225,24.3248333 126.183333,24.6460833 C125.44375,24.96775 124.50625,25.1285833 123.370833,25.1285833 C122.385,25.1285833 121.458333,24.9460833 120.590417,24.5819167 C119.7225,24.21775 118.967083,23.68775 118.324583,22.9910833 C117.681667,22.2948333 117.1725,21.4481667 116.7975,20.4519167 C116.4225,19.45525 116.235417,18.32525 116.235417,17.0606667 L116.235417,17.0606667 Z" id="Fill-8" fill="#FFFFFF" sketch:type="MSShapeGroup"></path>
                <path d="M133.044833,9.314625 L134.2665,9.314625 L134.394833,11.6929583 L134.4915,11.6929583 C135.284,10.9004583 136.098583,10.2417083 136.934,9.71629167 C137.769833,9.19129167 138.723167,8.92879167 139.794833,8.92879167 C141.401917,8.92879167 142.58025,9.410875 143.330667,10.3750417 C144.08025,11.3392083 144.455667,12.8292083 144.455667,14.8429583 L144.455667,24.7425417 L143.041083,24.7425417 L143.041083,15.0354583 C143.041083,13.385875 142.768167,12.1704583 142.2215,11.3879583 C141.67525,10.605875 140.769417,10.2142083 139.505667,10.2142083 C138.584,10.2142083 137.748167,10.4554583 136.998167,10.9379583 C136.24775,11.4200417 135.401917,12.1429583 134.459417,13.1075417 L134.459417,24.7425417 L133.044833,24.7425417 L133.044833,9.314625 Z" id="Fill-9" fill="#FFFFFF" sketch:type="MSShapeGroup"></path>
                <path d="M150.337292,17.0607917 C150.337292,18.0682917 150.476458,18.989125 150.755208,19.8249583 C151.033542,20.6607917 151.414375,21.3787083 151.896042,21.9787083 C152.378125,22.5787083 152.951458,23.0445417 153.615625,23.376625 C154.279792,23.709125 154.998125,23.8749583 155.769375,23.8749583 C156.541042,23.8749583 157.263958,23.709125 157.938958,23.376625 C158.613958,23.0445417 159.192708,22.5787083 159.674792,21.9787083 C160.156458,21.3787083 160.536875,20.6607917 160.815625,19.8249583 C161.093958,18.989125 161.233542,18.0682917 161.233542,17.0607917 C161.233542,16.0320417 161.093958,15.0999583 160.815625,14.264125 C160.536875,13.4287083 160.156458,12.705375 159.674792,12.0945417 C159.192708,11.484125 158.613958,11.012875 157.938958,10.680375 C157.263958,10.3487083 156.541042,10.1820417 155.769375,10.1820417 C154.998125,10.1820417 154.279792,10.3487083 153.615625,10.680375 C152.951458,11.012875 152.378125,11.484125 151.896042,12.0945417 C151.414375,12.705375 151.033542,13.4287083 150.755208,14.264125 C150.476458,15.0999583 150.337292,16.0320417 150.337292,17.0607917 M148.858958,17.0607917 C148.858958,15.7749583 149.046042,14.6232917 149.421458,13.605375 C149.796042,12.587875 150.299792,11.7362083 150.932292,11.0499583 C151.563542,10.3645417 152.298125,9.83995833 153.133958,9.475375 C153.969375,9.11120833 154.847708,8.92870833 155.769375,8.92870833 C156.690625,8.92870833 157.574375,9.11120833 158.421042,9.475375 C159.267708,9.83995833 160.006458,10.3645417 160.638958,11.0499583 C161.270625,11.7362083 161.774375,12.587875 162.149792,13.605375 C162.524375,14.6232917 162.711875,15.7749583 162.711875,17.0607917 C162.711875,18.3462083 162.524375,19.4874583 162.149792,20.4837083 C161.774375,21.4799583 161.270625,22.321625 160.638958,23.0070417 C160.006458,23.692875 159.267708,24.217875 158.421042,24.5820417 C157.574375,24.9462083 156.690625,25.1282917 155.769375,25.1282917 C154.847708,25.1282917 153.969375,24.9462083 153.133958,24.5820417 C152.298125,24.217875 151.563542,23.692875 150.932292,23.0070417 C150.299792,22.321625 149.796042,21.4799583 149.421458,20.4837083 C149.046042,19.4874583 148.858958,18.3462083 148.858958,17.0607917" id="Fill-10" fill="#FFFFFF" sketch:type="MSShapeGroup"></path>
                <path d="M167.693667,10.5357083 L165.28325,10.5357083 L165.28325,9.44320833 L167.72575,9.31445833 L167.918667,4.84695833 L169.140333,4.84695833 L169.140333,9.31445833 L173.607833,9.31445833 L173.607833,10.5357083 L169.140333,10.5357083 L169.140333,20.5965417 C169.140333,21.0894583 169.177417,21.5340417 169.252417,21.9302917 C169.327417,22.3269583 169.461583,22.6694583 169.6545,22.958625 C169.847417,23.2482083 170.1095,23.4732083 170.442,23.6340417 C170.774083,23.7944583 171.207833,23.874875 171.743667,23.874875 C172.04325,23.874875 172.37075,23.8265417 172.724083,23.7302917 C173.077417,23.6340417 173.393667,23.521125 173.672417,23.392375 L174.057833,24.549875 C173.607833,24.7215417 173.157833,24.8602917 172.707833,24.9677917 C172.257833,25.074875 171.872,25.1282083 171.55075,25.1282083 C170.800333,25.1282083 170.1795,25.0157083 169.686583,24.7907083 C169.193667,24.566125 168.797,24.249875 168.497417,23.8427917 C168.197,23.4357083 167.98825,22.942375 167.87075,22.3644583 C167.752833,21.7857083 167.693667,21.153625 167.693667,20.4677917 L167.693667,10.5357083 Z" id="Fill-11" fill="#FFFFFF" sketch:type="MSShapeGroup"></path>
                <path d="M187.043417,16.1285833 C187.043417,14.1356667 186.635917,12.6410833 185.82175,11.6448333 C185.007167,10.6485833 183.90425,10.1498333 182.511333,10.1498333 C181.84675,10.1498333 181.214667,10.2898333 180.614667,10.56775 C180.015083,10.8465 179.473833,11.24275 178.99175,11.7573333 C178.509667,12.2715 178.112583,12.8981667 177.802583,13.6373333 C177.49175,14.3769167 177.293417,15.2073333 177.208,16.1285833 L187.043417,16.1285833 Z M175.76175,17.0606667 C175.76175,15.7965 175.948833,14.6615 176.323833,13.654 C176.698833,12.6469167 177.202583,11.79525 177.834667,11.0985833 C178.466333,10.4023333 179.184667,9.8665 179.988,9.49108333 C180.79175,9.1165 181.62175,8.929 182.47925,8.929 C184.322167,8.929 185.768,9.55066667 186.818417,10.79275 C187.868,12.0360833 188.393417,13.7935833 188.393417,16.0644167 L188.393417,16.64275 C188.393417,16.8356667 188.37175,17.0285833 188.32925,17.2215 L177.208,17.2215 C177.228833,18.1856667 177.37925,19.0806667 177.658,19.90525 C177.936333,20.7306667 178.327167,21.4373333 178.830917,22.0265 C179.33425,22.6160833 179.940083,23.0769167 180.64675,23.409 C181.35425,23.7415 182.14675,23.9069167 183.0255,23.9069167 C183.861333,23.9069167 184.61675,23.784 185.29175,23.5373333 C185.96675,23.2910833 186.593417,22.954 187.172167,22.52525 L187.7505,23.61775 C187.128833,23.9823333 186.448833,24.3248333 185.709667,24.6460833 C184.970083,24.96775 184.032583,25.1285833 182.897167,25.1285833 C181.911333,25.1285833 180.984667,24.9460833 180.11675,24.5819167 C179.248833,24.21775 178.493417,23.68775 177.850917,22.9910833 C177.208,22.2948333 176.698833,21.4481667 176.323833,20.4519167 C175.948833,19.45525 175.76175,18.32525 175.76175,17.0606667 L175.76175,17.0606667 Z" id="Fill-12" fill="#FFFFFF" sketch:type="MSShapeGroup"></path>
                <path d="M9.42516667,5.783875 C9.42516667,8.20345833 11.5655833,9.606375 14.5889167,11.035125 L21.5201667,14.632625 L21.60975,14.6880417 C24.6589167,16.6130417 26.066,19.146375 26.066,22.6547083 C26.066,22.8822083 26.0551667,23.1084583 26.041,23.3334583 C27.741,20.995125 28.7464167,18.1159583 28.7464167,15.0059583 C28.7464167,7.17095833 22.3968333,0.822625 14.5655833,0.822625 C14.2089167,0.822625 9.42516667,0.782625 9.42516667,5.783875 M14.5655833,29.1830417 C6.73433333,29.1830417 0.385583333,22.8359583 0.385583333,15.0059583 C0.385583333,11.0659583 1.99266667,7.50220833 4.586,4.933875 C4.54683333,5.30679167 4.52641667,5.68970833 4.52641667,6.07804167 C4.52641667,9.176375 5.96225,11.630125 8.76141667,13.3684583 C8.76141667,13.3684583 15.4776667,16.895125 15.6726667,16.9859583 C18.916,18.5672083 21.2101667,19.8847083 21.2101667,22.4722083 C21.2101667,25.916375 18.2789167,29.1830417 14.5655833,29.1830417" id="Fill-13" fill="#448AC9" sketch:type="MSShapeGroup"></path>
            </g>
        </g>
    </g>
</svg>